%TF.GenerationSoftware,KiCad,Pcbnew,(6.0.11)*%
%TF.CreationDate,2023-01-29T19:30:00+08:00*%
%TF.ProjectId,UINIO-Cubic-Prism,55494e49-4f2d-4437-9562-69632d507269,Version 3.0.0*%
%TF.SameCoordinates,PX8dfe190PY501e410*%
%TF.FileFunction,Copper,L2,Bot*%
%TF.FilePolarity,Positive*%
%FSLAX46Y46*%
G04 Gerber Fmt 4.6, Leading zero omitted, Abs format (unit mm)*
G04 Created by KiCad (PCBNEW (6.0.11)) date 2023-01-29 19:30:00*
%MOMM*%
%LPD*%
G01*
G04 APERTURE LIST*
G04 Aperture macros list*
%AMRoundRect*
0 Rectangle with rounded corners*
0 $1 Rounding radius*
0 $2 $3 $4 $5 $6 $7 $8 $9 X,Y pos of 4 corners*
0 Add a 4 corners polygon primitive as box body*
4,1,4,$2,$3,$4,$5,$6,$7,$8,$9,$2,$3,0*
0 Add four circle primitives for the rounded corners*
1,1,$1+$1,$2,$3*
1,1,$1+$1,$4,$5*
1,1,$1+$1,$6,$7*
1,1,$1+$1,$8,$9*
0 Add four rect primitives between the rounded corners*
20,1,$1+$1,$2,$3,$4,$5,0*
20,1,$1+$1,$4,$5,$6,$7,0*
20,1,$1+$1,$6,$7,$8,$9,0*
20,1,$1+$1,$8,$9,$2,$3,0*%
G04 Aperture macros list end*
%TA.AperFunction,ComponentPad*%
%ADD10C,0.610000*%
%TD*%
%TA.AperFunction,ComponentPad*%
%ADD11O,1.000000X2.100000*%
%TD*%
%TA.AperFunction,ComponentPad*%
%ADD12O,1.000000X1.900000*%
%TD*%
%TA.AperFunction,SMDPad,CuDef*%
%ADD13RoundRect,0.135000X-0.185000X0.135000X-0.185000X-0.135000X0.185000X-0.135000X0.185000X0.135000X0*%
%TD*%
%TA.AperFunction,SMDPad,CuDef*%
%ADD14R,0.700000X1.600000*%
%TD*%
%TA.AperFunction,SMDPad,CuDef*%
%ADD15R,1.200000X1.500000*%
%TD*%
%TA.AperFunction,SMDPad,CuDef*%
%ADD16R,1.200000X2.200000*%
%TD*%
%TA.AperFunction,SMDPad,CuDef*%
%ADD17R,1.600000X1.500000*%
%TD*%
%TA.AperFunction,ViaPad*%
%ADD18C,0.500000*%
%TD*%
%TA.AperFunction,ViaPad*%
%ADD19C,0.700000*%
%TD*%
%TA.AperFunction,ViaPad*%
%ADD20C,0.900000*%
%TD*%
%TA.AperFunction,Conductor*%
%ADD21C,0.300000*%
%TD*%
%TA.AperFunction,Conductor*%
%ADD22C,0.200000*%
%TD*%
%TA.AperFunction,Conductor*%
%ADD23C,0.500000*%
%TD*%
%TA.AperFunction,Conductor*%
%ADD24C,0.400000*%
%TD*%
%TA.AperFunction,Conductor*%
%ADD25C,0.130000*%
%TD*%
G04 APERTURE END LIST*
D10*
%TO.P,U5,*%
%TO.N,GND*%
X-8998481Y-18864261D03*
X-7998481Y-19864261D03*
X-6998481Y-18864261D03*
X-7998481Y-18864261D03*
X-8998481Y-19864261D03*
X-6998481Y-19864261D03*
X-6998481Y-20864261D03*
X-7998481Y-20864261D03*
X-8998481Y-20864261D03*
%TD*%
D11*
%TO.P,USB1,13,GND*%
%TO.N,GND*%
X-4165000Y-29051000D03*
%TO.P,USB1,14,GND*%
X4485000Y-29051000D03*
D12*
%TO.P,USB1,15,GND*%
X-4165000Y-33251000D03*
%TO.P,USB1,16,GND*%
X4485000Y-33251000D03*
%TD*%
D13*
%TO.P,R1,1,1*%
%TO.N,/VDD_3.3V*%
X4230000Y-9680000D03*
%TO.P,R1,2,2*%
%TO.N,/GPIO26*%
X4230000Y-10700000D03*
%TD*%
%TO.P,R4,1,1*%
%TO.N,/VDD_3.3V*%
X-1250000Y-9720000D03*
%TO.P,R4,2,2*%
%TO.N,/GPIO15*%
X-1250000Y-10740000D03*
%TD*%
%TO.P,R3,1,1*%
%TO.N,/VDD_3.3V*%
X2030000Y-9680000D03*
%TO.P,R3,2,2*%
%TO.N,/GPIO14*%
X2030000Y-10700000D03*
%TD*%
%TO.P,R2,1,1*%
%TO.N,/VDD_3.3V*%
X-160000Y-9720000D03*
%TO.P,R2,2,2*%
%TO.N,/GPIO13*%
X-160000Y-10740000D03*
%TD*%
D14*
%TO.P,Card1,1,DAT2*%
%TO.N,unconnected-(Card1-Pad1)*%
X-2358481Y-12507215D03*
%TO.P,Card1,2,CD/DAT3*%
%TO.N,/GPIO15*%
X-1258481Y-12507215D03*
%TO.P,Card1,3,CMD*%
%TO.N,/GPIO13*%
X-159481Y-12507215D03*
%TO.P,Card1,4,VDD*%
%TO.N,/VDD_3.3V*%
X941519Y-12507215D03*
%TO.P,Card1,5,CLK*%
%TO.N,/GPIO14*%
X2040519Y-12507215D03*
%TO.P,Card1,6,VSS*%
%TO.N,GND*%
X3141519Y-12507215D03*
%TO.P,Card1,7,DAT0*%
%TO.N,/GPIO26*%
X4240519Y-12507215D03*
%TO.P,Card1,8,DAT1*%
%TO.N,unconnected-(Card1-Pad8)*%
X5340519Y-12507215D03*
%TO.P,Card1,9,CD*%
%TO.N,unconnected-(Card1-Pad9)*%
X6440519Y-12507215D03*
D15*
%TO.P,Card1,10,GND*%
%TO.N,GND*%
X7640519Y-13507215D03*
D16*
%TO.P,Card1,11,GND*%
X7632519Y-23107215D03*
%TO.P,Card1,12,GND*%
X-7867481Y-23107215D03*
D17*
%TO.P,Card1,13,GND*%
X-6967481Y-13507215D03*
%TD*%
D18*
%TO.N,GND*%
X-8570000Y-11900000D03*
X-11910000Y-13680000D03*
X-9283481Y-6297215D03*
D19*
X-4963481Y-10757215D03*
X4436519Y-20167215D03*
D18*
X-9960000Y-13370000D03*
X-4150000Y-24560000D03*
X-11300000Y-14630000D03*
X-12640000Y-17620000D03*
X-8570000Y-10500000D03*
X-9283481Y-12597215D03*
X-8576519Y-13312785D03*
D20*
X39950000Y-25920000D03*
D19*
X3741019Y-15648761D03*
D18*
X-9283481Y-8397215D03*
X-9283481Y-6997215D03*
X9910000Y-25400000D03*
X-8570000Y-8400000D03*
X-8570000Y-7000000D03*
X-11300000Y-13390000D03*
X-8570000Y-6300000D03*
X-9283481Y-11897215D03*
X-10630000Y-13390000D03*
X-8570000Y-12600000D03*
D19*
X996519Y-23757215D03*
D18*
X110000Y-2340000D03*
X-11960000Y-14330000D03*
X-11300000Y-15280000D03*
D20*
X32782785Y-29337215D03*
D18*
X-9283481Y-7697215D03*
X-8570000Y-9100000D03*
X-9290000Y-13310000D03*
D20*
X7400000Y-30730000D03*
X39950000Y-31590000D03*
D18*
X-8570000Y-9800000D03*
X9150000Y-14780000D03*
X-11300000Y-14010000D03*
X-11960995Y-14970000D03*
X5090000Y-13910000D03*
X-11960000Y-15630000D03*
X-11960000Y-16320000D03*
X-9283481Y-11197215D03*
X-10630000Y-14010000D03*
X-8570000Y-7700000D03*
X-9283481Y-9097215D03*
X-9283481Y-9797215D03*
D19*
X-10343481Y-27187215D03*
D18*
X-9283481Y-10497215D03*
D19*
X6128519Y-10387215D03*
D18*
X-8570000Y-11200000D03*
%TO.N,/EN*%
X-4773481Y-13477215D03*
X-12248981Y-25214261D03*
D19*
%TO.N,/VDD_3.3V*%
X-12443481Y-20117215D03*
X36560000Y-25080000D03*
X-10568518Y-14706796D03*
X1400000Y-9070000D03*
X2606519Y-24467215D03*
X25370000Y-31300000D03*
D18*
X3200000Y-9080000D03*
X906519Y-11147215D03*
D19*
X-5248481Y-15414261D03*
X6480000Y-28770000D03*
X-5623481Y-13487215D03*
X286519Y-16991215D03*
X-4285481Y-16229215D03*
D18*
%TO.N,/GPIO15*%
X-6738481Y-25274261D03*
%TO.N,/GPIO13*%
X-7233617Y-24714261D03*
%TO.N,/GPIO14*%
X-8733481Y-25227215D03*
%TO.N,/GPIO26*%
X-9748481Y-24207215D03*
%TO.N,/GPIO27*%
X2581519Y-7000000D03*
X-9253481Y-24707215D03*
D19*
%TO.N,/LCD_BL_VCC*%
X34316519Y-20887215D03*
X24646519Y-20887215D03*
X-23543481Y-17337215D03*
X-35313481Y-20447215D03*
D18*
%TO.N,/DTR*%
X5956519Y-21377215D03*
X6596519Y-16067215D03*
D19*
%TO.N,/VDD_5V*%
X2570000Y-27060000D03*
X-2220000Y-27070000D03*
D18*
%TO.N,Net-(R7-Pad2)*%
X10676519Y-23147215D03*
X12256519Y-22107215D03*
%TO.N,/GPIO5*%
X39926519Y-19497215D03*
X36646519Y-11667215D03*
X-3039064Y-15434101D03*
X-3148481Y-7004261D03*
%TO.N,/DC*%
X411519Y-6564261D03*
X-6248481Y-24424261D03*
%TO.N,/GPIO18*%
X-3638481Y-15444261D03*
X-3823481Y-7007215D03*
%TO.N,/GPIO23*%
X-4273481Y-7807215D03*
X-4258481Y-15454261D03*
%TO.N,/GPIO4*%
X-2428481Y-7004261D03*
X-2194212Y-15418530D03*
%TO.N,/BH_SDA*%
X-11283481Y-23827215D03*
X-2910000Y-21568267D03*
X2341519Y-26094261D03*
X3096Y-25016904D03*
%TO.N,/BH_SCL*%
X-850000Y-24750000D03*
X1710000Y-26510000D03*
X-10743481Y-24207215D03*
X-2908481Y-20674261D03*
X-2470000Y-22240000D03*
%TO.N,/GPIO0*%
X4901519Y-15704261D03*
X6026519Y-14577215D03*
%TO.N,/USB_Data_P*%
X920000Y-29390000D03*
X-80000Y-29390000D03*
%TD*%
D21*
%TO.N,GND*%
X-4963481Y-11907215D02*
X-6563481Y-13507215D01*
X-9290000Y-12603734D02*
X-9283481Y-12597215D01*
X7640519Y-13507215D02*
X7877215Y-13507215D01*
X7632519Y-25223215D02*
X4678205Y-25223215D01*
X3326519Y-23757215D02*
X996519Y-23757215D01*
X-11300000Y-14630000D02*
X-11300000Y-13390000D01*
X4446519Y-22637215D02*
X3326519Y-23757215D01*
D22*
X-6998481Y-20864261D02*
X-6998481Y-18864261D01*
D21*
X7632519Y-23107215D02*
X7632519Y-25223215D01*
D23*
X-4165000Y-33251000D02*
X-4165000Y-29051000D01*
D24*
X39950000Y-31590000D02*
X39950000Y-31570000D01*
X39950000Y-31570000D02*
X37717215Y-29337215D01*
D21*
X4436519Y-20167215D02*
X4446519Y-20177215D01*
D24*
X7400000Y-30730000D02*
X4530000Y-30730000D01*
D21*
X7083734Y-29840000D02*
X5274000Y-29840000D01*
X-11783481Y-25007215D02*
X-11783481Y-22657215D01*
X-10343481Y-26447215D02*
X-11783481Y-25007215D01*
X-8570000Y-13306266D02*
X-8576519Y-13312785D01*
X-8570000Y-6300000D02*
X-8570000Y-13306266D01*
X-11783481Y-22657215D02*
X-8998481Y-19872215D01*
X7632519Y-29291215D02*
X7083734Y-29840000D01*
X7640519Y-13507215D02*
X7640519Y-23099215D01*
X-9290000Y-13310000D02*
X-9290000Y-12603734D01*
D24*
X37717215Y-29337215D02*
X32782785Y-29337215D01*
D21*
X4446519Y-20177215D02*
X4446519Y-22637215D01*
X3141519Y-15049261D02*
X3141519Y-12507215D01*
X-10630000Y-13390000D02*
X-9370000Y-13390000D01*
D22*
X-4150000Y-24560000D02*
X-5602785Y-23107215D01*
D23*
X4485000Y-33251000D02*
X-4165000Y-33251000D01*
D21*
X-11960000Y-16320000D02*
X-11960000Y-13730000D01*
X9910000Y-25400000D02*
X7632519Y-23122519D01*
X3326519Y-23871529D02*
X3326519Y-23757215D01*
X5274000Y-29840000D02*
X4485000Y-29051000D01*
X-8601435Y-28929261D02*
X-4286739Y-28929261D01*
X6128519Y-10387215D02*
X7640519Y-11899215D01*
X5090000Y-13910000D02*
X7237734Y-13910000D01*
X-11950000Y-16330000D02*
X-11960000Y-16320000D01*
X-10630000Y-13390000D02*
X-10630000Y-14010000D01*
D22*
X-7998481Y-20864261D02*
X-7998481Y-18864261D01*
D23*
X4496519Y-33239481D02*
X4496519Y-30696519D01*
D21*
X-4286739Y-28929261D02*
X-4165000Y-29051000D01*
X-10343481Y-27187215D02*
X-8601435Y-28929261D01*
X7632519Y-23122519D02*
X7632519Y-23107215D01*
X7640519Y-11899215D02*
X7640519Y-13507215D01*
D22*
X-8998481Y-20864261D02*
X-6998481Y-20864261D01*
D21*
X-9370000Y-13390000D02*
X-9290000Y-13310000D01*
D22*
X-5602785Y-23107215D02*
X-7867481Y-23107215D01*
D21*
X-11960000Y-13730000D02*
X-11910000Y-13680000D01*
X-11670000Y-13390000D02*
X-11300000Y-13390000D01*
X-9283481Y-12597215D02*
X-9283481Y-6297215D01*
D22*
X-8998481Y-19864261D02*
X-6998481Y-19864261D01*
D21*
X4678205Y-25223215D02*
X3326519Y-23871529D01*
D23*
X4485000Y-33251000D02*
X4496519Y-33239481D01*
D24*
X4530000Y-30730000D02*
X4496519Y-30696519D01*
D23*
X4496519Y-29062519D02*
X4485000Y-29051000D01*
D21*
X-11730000Y-13500000D02*
X-11730000Y-13450000D01*
D24*
X39950000Y-31590000D02*
X39950000Y-25920000D01*
D23*
X4496519Y-30696519D02*
X4496519Y-29062519D01*
D21*
X-11730000Y-13450000D02*
X-11670000Y-13390000D01*
D22*
X-6998481Y-20864261D02*
X-8998481Y-18864261D01*
D21*
X-12640000Y-17620000D02*
X-11950000Y-16930000D01*
X7632519Y-25223215D02*
X7632519Y-29291215D01*
D22*
X-8998481Y-20864261D02*
X-6998481Y-18864261D01*
D21*
X-11910000Y-13680000D02*
X-11730000Y-13500000D01*
X-4963481Y-10757215D02*
X-4963481Y-11907215D01*
D22*
X-8998481Y-20864261D02*
X-8998481Y-18864261D01*
D21*
X3741019Y-15648761D02*
X3141519Y-15049261D01*
X7237734Y-13910000D02*
X7640519Y-13507215D01*
X-11950000Y-16930000D02*
X-11950000Y-16330000D01*
D22*
X-8998481Y-18864261D02*
X-6998481Y-18864261D01*
D21*
X-10343481Y-27187215D02*
X-10343481Y-26447215D01*
X-11300000Y-13390000D02*
X-10630000Y-13390000D01*
X7877215Y-13507215D02*
X9150000Y-14780000D01*
D25*
%TO.N,/EN*%
X-7584506Y-16214261D02*
X-12248981Y-20878736D01*
X-12248981Y-20878736D02*
X-12248981Y-25214261D01*
X-4703481Y-15885215D02*
X-5032527Y-16214261D01*
X-5032527Y-16214261D02*
X-7584506Y-16214261D01*
X-4703481Y-13547215D02*
X-4703481Y-15885215D01*
X-4773481Y-13477215D02*
X-4703481Y-13547215D01*
D21*
%TO.N,/VDD_3.3V*%
X3430000Y-9680000D02*
X4230000Y-9680000D01*
X600000Y-9720000D02*
X630000Y-9750000D01*
X1400000Y-9070000D02*
X1400000Y-10653734D01*
X-10272742Y-15002572D02*
X-10272742Y-15700000D01*
X-10568518Y-14706796D02*
X-10272742Y-15002572D01*
X906519Y-11147215D02*
X896519Y-11157215D01*
X-12418481Y-20144261D02*
X-12308481Y-20144261D01*
X3200000Y-9450000D02*
X3430000Y-9680000D01*
X1400000Y-9070000D02*
X1440000Y-9070000D01*
X-10258481Y-18094261D02*
X-10258481Y-15714261D01*
X630000Y-10870696D02*
X630000Y-9750000D01*
X-5623481Y-13487215D02*
X-5248481Y-13862215D01*
X-10258481Y-15714261D02*
X-10268481Y-15704261D01*
X6480000Y-27590696D02*
X3356519Y-24467215D01*
X-10264220Y-15700000D02*
X-10268481Y-15704261D01*
X1400000Y-10653734D02*
X906519Y-11147215D01*
X-5248481Y-15414261D02*
X-5248481Y-13862215D01*
X25370000Y-31300000D02*
X31590000Y-25080000D01*
X6480000Y-28770000D02*
X6480000Y-27590696D01*
X31590000Y-25080000D02*
X36560000Y-25080000D01*
X3200000Y-9080000D02*
X3200000Y-9450000D01*
X3356519Y-24467215D02*
X2606519Y-24467215D01*
X286519Y-16991215D02*
X-3523481Y-16991215D01*
X-160000Y-9720000D02*
X600000Y-9720000D01*
X1440000Y-9070000D02*
X2030000Y-9660000D01*
X-12308481Y-20144261D02*
X-10258481Y-18094261D01*
X-10272742Y-15700000D02*
X-10268481Y-15704261D01*
X1370000Y-9070000D02*
X1400000Y-9070000D01*
X-3523481Y-16991215D02*
X-4285481Y-16229215D01*
X-1250000Y-9720000D02*
X-160000Y-9720000D01*
X896519Y-11157215D02*
X896519Y-12432215D01*
X690000Y-9750000D02*
X1370000Y-9070000D01*
X906519Y-11147215D02*
X630000Y-10870696D01*
X-5554220Y-15700000D02*
X-10264220Y-15700000D01*
X2030000Y-9660000D02*
X2030000Y-9680000D01*
X-5258481Y-15404261D02*
X-5554220Y-15700000D01*
X630000Y-9750000D02*
X690000Y-9750000D01*
D25*
%TO.N,/GPIO15*%
X-6348481Y-27254261D02*
X-5299561Y-27254261D01*
X1891519Y-20063181D02*
X1891519Y-15229531D01*
X146249Y-13484261D02*
X-625481Y-13484261D01*
X1891519Y-15229531D02*
X146249Y-13484261D01*
X-1258481Y-10748481D02*
X-1258481Y-12507215D01*
X-6748481Y-25284261D02*
X-6748481Y-26854261D01*
X-1250000Y-10740000D02*
X-1258481Y-10748481D01*
X-5299561Y-27254261D02*
X1891519Y-20063181D01*
X-6748481Y-26854261D02*
X-6348481Y-27254261D01*
X-625481Y-13484261D02*
X-1258481Y-12851261D01*
X-6738481Y-25274261D02*
X-6748481Y-25284261D01*
%TO.N,/GPIO13*%
X-6443751Y-27484261D02*
X-5204291Y-27484261D01*
X2121519Y-20158451D02*
X2121519Y-15134261D01*
X2121519Y-15134261D02*
X-159481Y-12853261D01*
X-160000Y-10740000D02*
X-159481Y-10740519D01*
X-7233617Y-24714261D02*
X-7233617Y-26694395D01*
X-7233617Y-26694395D02*
X-6443751Y-27484261D01*
X-159481Y-10740519D02*
X-159481Y-12507215D01*
X-5204291Y-27484261D02*
X2121519Y-20158451D01*
%TO.N,/GPIO14*%
X-8387941Y-27714261D02*
X-5109021Y-27714261D01*
X2351519Y-20253721D02*
X2351519Y-12781261D01*
X2351519Y-12781261D02*
X2055519Y-12485261D01*
X2030000Y-10700000D02*
X2040519Y-10710519D01*
X2050000Y-12497734D02*
X2040519Y-12507215D01*
X-8733481Y-25227215D02*
X-8733481Y-27368721D01*
X-5109021Y-27714261D02*
X2351519Y-20253721D01*
X2040519Y-10710519D02*
X2040519Y-12507215D01*
X-8733481Y-27368721D02*
X-8387941Y-27714261D01*
%TO.N,/GPIO26*%
X-9748481Y-24207215D02*
X-9748481Y-27004261D01*
X4255519Y-19000261D02*
X4255519Y-13230261D01*
X4230000Y-10700000D02*
X4240519Y-10710519D01*
X-9748481Y-27004261D02*
X-8578481Y-28174261D01*
X-8578481Y-28174261D02*
X-4918481Y-28174261D01*
X-4918481Y-28174261D02*
X4255519Y-19000261D01*
X4240519Y-10710519D02*
X4240519Y-12507215D01*
%TO.N,/GPIO27*%
X-5013751Y-27944261D02*
X-8483211Y-27944261D01*
X2581519Y-7000000D02*
X2581519Y-20348991D01*
X2581519Y-20348991D02*
X-5013751Y-27944261D01*
X-9258979Y-24712713D02*
X-9253481Y-24707215D01*
X-9258979Y-27168493D02*
X-9258979Y-24712713D01*
X-8483211Y-27944261D02*
X-9258979Y-27168493D01*
D21*
%TO.N,/LCD_BL_VCC*%
X-26653481Y-20447215D02*
X-35313481Y-20447215D01*
X-23543481Y-17337215D02*
X-26653481Y-20447215D01*
X34316519Y-20887215D02*
X24646519Y-20887215D01*
D22*
%TO.N,/DTR*%
X5956519Y-16707215D02*
X6596519Y-16067215D01*
X5956519Y-21377215D02*
X5956519Y-16707215D01*
D24*
%TO.N,/VDD_5V*%
X-2210000Y-27060000D02*
X-2220000Y-27070000D01*
X2570000Y-27060000D02*
X-2210000Y-27060000D01*
D22*
%TO.N,Net-(R7-Pad2)*%
X12256519Y-22107215D02*
X12256519Y-22113481D01*
X11222785Y-23147215D02*
X10676519Y-23147215D01*
X12256519Y-22113481D02*
X11222785Y-23147215D01*
D25*
%TO.N,/GPIO5*%
X-3148481Y-7004261D02*
X-3158481Y-7014261D01*
D22*
X39936519Y-19487215D02*
X39936519Y-14957215D01*
D25*
X-3158481Y-15314684D02*
X-3039064Y-15434101D01*
D22*
X39936519Y-14957215D02*
X36646519Y-11667215D01*
D25*
X-3158481Y-7014261D02*
X-3158481Y-15314684D01*
D22*
X39926519Y-19497215D02*
X39936519Y-19487215D01*
D25*
%TO.N,/DC*%
X-6128481Y-27024261D02*
X-5394831Y-27024261D01*
X-5394831Y-27024261D02*
X1661519Y-19967911D01*
X-1798481Y-13410261D02*
X-1798481Y-8774261D01*
X-6248481Y-24424261D02*
X-6248481Y-26904261D01*
X-1484481Y-13724261D02*
X-1798481Y-13410261D01*
X-1798481Y-8774261D02*
X411519Y-6564261D01*
X1661519Y-19967911D02*
X1661519Y-15324801D01*
X60979Y-13724261D02*
X-1484481Y-13724261D01*
X1661519Y-15324801D02*
X60979Y-13724261D01*
X-6248481Y-26904261D02*
X-6128481Y-27024261D01*
%TO.N,/GPIO18*%
X-3678481Y-7152215D02*
X-3678481Y-15404261D01*
X-3823481Y-7007215D02*
X-3678481Y-7152215D01*
X-3678481Y-15404261D02*
X-3638481Y-15444261D01*
%TO.N,/GPIO23*%
X-4288481Y-7822215D02*
X-4288481Y-15424261D01*
X-4288481Y-15424261D02*
X-4258481Y-15454261D01*
X-4273481Y-7807215D02*
X-4288481Y-7822215D01*
%TO.N,/GPIO4*%
X-2428481Y-7004261D02*
X-2898481Y-7474261D01*
X-2898481Y-7474261D02*
X-2898481Y-13484261D01*
X-2194212Y-14188530D02*
X-2194212Y-15418530D01*
X-2898481Y-13484261D02*
X-2194212Y-14188530D01*
%TO.N,/BH_SDA*%
X-2915994Y-21574261D02*
X-9663211Y-21574261D01*
X-11283481Y-24327215D02*
X-11283481Y-23827215D01*
X-10308481Y-24359114D02*
X-10571582Y-24622215D01*
X6904Y-25016904D02*
X1084261Y-26094261D01*
X-2910000Y-21568267D02*
X-2915994Y-21574261D01*
X3096Y-25016904D02*
X6904Y-25016904D01*
X1084261Y-26094261D02*
X2341519Y-26094261D01*
X-10988481Y-24622215D02*
X-11283481Y-24327215D01*
X-9663211Y-21574261D02*
X-10308481Y-22219531D01*
X-10308481Y-22219531D02*
X-10308481Y-24359114D01*
X-10571582Y-24622215D02*
X-10988481Y-24622215D01*
%TO.N,/BH_SCL*%
X909261Y-26509261D02*
X1709261Y-26509261D01*
X-3578481Y-21344261D02*
X-2908481Y-20674261D01*
X1709261Y-26509261D02*
X1710000Y-26510000D01*
X-850000Y-24750000D02*
X909261Y-26509261D01*
X-10743481Y-24207215D02*
X-10743481Y-22329261D01*
X-2468481Y-21114261D02*
X-2908481Y-20674261D01*
X-9758481Y-21344261D02*
X-3578481Y-21344261D01*
X-10743481Y-22329261D02*
X-9758481Y-21344261D01*
X-2470000Y-22240000D02*
X-2468481Y-22238481D01*
X-2468481Y-22238481D02*
X-2468481Y-21114261D01*
%TO.N,/GPIO0*%
X4901519Y-15702215D02*
X4901519Y-15704261D01*
X6026519Y-14577215D02*
X4901519Y-15702215D01*
D22*
%TO.N,/USB_Data_P*%
X920000Y-29390000D02*
X-80000Y-29390000D01*
%TD*%
%TA.AperFunction,Conductor*%
%TO.N,GND*%
G36*
X3322944Y-500338D02*
G01*
X3326911Y-500706D01*
X3335641Y-502795D01*
X3344604Y-502350D01*
X3344608Y-502350D01*
X3345552Y-502303D01*
X3375197Y-504339D01*
X3427004Y-514128D01*
X3487182Y-525500D01*
X3512793Y-533230D01*
X3592493Y-566884D01*
X3636222Y-585349D01*
X3659629Y-598318D01*
X3769261Y-675323D01*
X3789402Y-692943D01*
X3865915Y-775789D01*
X3880298Y-791363D01*
X3896264Y-812839D01*
X3964324Y-928234D01*
X3975394Y-952597D01*
X4017553Y-1079771D01*
X4023229Y-1105924D01*
X4034689Y-1212306D01*
X4034320Y-1228371D01*
X4035227Y-1228381D01*
X4035126Y-1237362D01*
X4033753Y-1246231D01*
X4034925Y-1255129D01*
X4034925Y-1255132D01*
X4037817Y-1277088D01*
X4038896Y-1293704D01*
X4033032Y-5823649D01*
X4033030Y-5824256D01*
X4032716Y-5875743D01*
X4032543Y-5903982D01*
X4035010Y-5912613D01*
X4035010Y-5912615D01*
X4040555Y-5932016D01*
X4044156Y-5948938D01*
X4048253Y-5977810D01*
X4051959Y-5985988D01*
X4059020Y-6001572D01*
X4065401Y-6018950D01*
X4070103Y-6035401D01*
X4072570Y-6044032D01*
X4086451Y-6066032D01*
X4088129Y-6068691D01*
X4096332Y-6083917D01*
X4108369Y-6110483D01*
X4125381Y-6130278D01*
X4136372Y-6145152D01*
X4150295Y-6167219D01*
X4157024Y-6173162D01*
X4172149Y-6186520D01*
X4184294Y-6198830D01*
X4203305Y-6220951D01*
X4210830Y-6225842D01*
X4210832Y-6225844D01*
X4225181Y-6235171D01*
X4239919Y-6246373D01*
X4252737Y-6257693D01*
X4252739Y-6257695D01*
X4259470Y-6263639D01*
X4267597Y-6267455D01*
X4267599Y-6267456D01*
X4285858Y-6276029D01*
X4300976Y-6284439D01*
X4317906Y-6295443D01*
X4325431Y-6300334D01*
X4334020Y-6302915D01*
X4334027Y-6302918D01*
X4350425Y-6307845D01*
X4367712Y-6314459D01*
X4391319Y-6325542D01*
X4420129Y-6330028D01*
X4437000Y-6333857D01*
X4464927Y-6342248D01*
X4497620Y-6342490D01*
X4499478Y-6342504D01*
X4500545Y-6342549D01*
X4501905Y-6342761D01*
X4533649Y-6342761D01*
X4534582Y-6342764D01*
X4605926Y-6343293D01*
X4605932Y-6343293D01*
X4610581Y-6343327D01*
X4612189Y-6342870D01*
X4613797Y-6342761D01*
X11953621Y-6342761D01*
X11968483Y-6343640D01*
X12003860Y-6347842D01*
X12012715Y-6346356D01*
X12012717Y-6346356D01*
X12016021Y-6345802D01*
X12043659Y-6344247D01*
X12090670Y-6346783D01*
X12176959Y-6351438D01*
X12199408Y-6354694D01*
X12351023Y-6390860D01*
X12372524Y-6398088D01*
X12515197Y-6460852D01*
X12535052Y-6471817D01*
X12664167Y-6559149D01*
X12681726Y-6573489D01*
X12793093Y-6682560D01*
X12807799Y-6699820D01*
X12897802Y-6827084D01*
X12909179Y-6846707D01*
X12954688Y-6944571D01*
X12974904Y-6988045D01*
X12982578Y-7009391D01*
X13021895Y-7160217D01*
X13025618Y-7182592D01*
X13035063Y-7308735D01*
X13034279Y-7325194D01*
X13034752Y-7325207D01*
X13034504Y-7334178D01*
X13032986Y-7343028D01*
X13034338Y-7354773D01*
X13037192Y-7379562D01*
X13038019Y-7393973D01*
X13038019Y-10028592D01*
X13038017Y-10029362D01*
X13037543Y-10106936D01*
X13040010Y-10115567D01*
X13045669Y-10135368D01*
X13049247Y-10152130D01*
X13053439Y-10181402D01*
X13057153Y-10189570D01*
X13057153Y-10189571D01*
X13064067Y-10204777D01*
X13070515Y-10222301D01*
X13077570Y-10246986D01*
X13082362Y-10254580D01*
X13082363Y-10254583D01*
X13093349Y-10271995D01*
X13101488Y-10287078D01*
X13113727Y-10313997D01*
X13119588Y-10320799D01*
X13130489Y-10333450D01*
X13141592Y-10348454D01*
X13155295Y-10370173D01*
X13162020Y-10376112D01*
X13162023Y-10376116D01*
X13177457Y-10389747D01*
X13189501Y-10401939D01*
X13202946Y-10417542D01*
X13202949Y-10417544D01*
X13208806Y-10424342D01*
X13216335Y-10429222D01*
X13216336Y-10429223D01*
X13230354Y-10438309D01*
X13245228Y-10449600D01*
X13254004Y-10457350D01*
X13264470Y-10466593D01*
X13291230Y-10479157D01*
X13306210Y-10487478D01*
X13323502Y-10498686D01*
X13323507Y-10498688D01*
X13331034Y-10503567D01*
X13339627Y-10506137D01*
X13339632Y-10506139D01*
X13355639Y-10510926D01*
X13373083Y-10517587D01*
X13388195Y-10524682D01*
X13388197Y-10524683D01*
X13396319Y-10528496D01*
X13405186Y-10529877D01*
X13405187Y-10529877D01*
X13407872Y-10530295D01*
X13425536Y-10533045D01*
X13442251Y-10536828D01*
X13461985Y-10542730D01*
X13461991Y-10542731D01*
X13470585Y-10545301D01*
X13479556Y-10545356D01*
X13479557Y-10545356D01*
X13489616Y-10545417D01*
X13505025Y-10545511D01*
X13505808Y-10545544D01*
X13506905Y-10545715D01*
X13537896Y-10545715D01*
X13538666Y-10545717D01*
X13612304Y-10546167D01*
X13612305Y-10546167D01*
X13616240Y-10546191D01*
X13617584Y-10545807D01*
X13618929Y-10545715D01*
X16307896Y-10545715D01*
X16308667Y-10545717D01*
X16386240Y-10546191D01*
X16414671Y-10538065D01*
X16431434Y-10534487D01*
X16432272Y-10534367D01*
X16460706Y-10530295D01*
X16484083Y-10519666D01*
X16501606Y-10513219D01*
X16526290Y-10506164D01*
X16533884Y-10501372D01*
X16533887Y-10501371D01*
X16551299Y-10490385D01*
X16566384Y-10482245D01*
X16593301Y-10470007D01*
X16612754Y-10453245D01*
X16627758Y-10442142D01*
X16649477Y-10428439D01*
X16655416Y-10421714D01*
X16655420Y-10421711D01*
X16669051Y-10406277D01*
X16681243Y-10394233D01*
X16696846Y-10380788D01*
X16696848Y-10380785D01*
X16703646Y-10374928D01*
X16717613Y-10353380D01*
X16728904Y-10338506D01*
X16739950Y-10325998D01*
X16739951Y-10325997D01*
X16745897Y-10319264D01*
X16758462Y-10292502D01*
X16766782Y-10277524D01*
X16777990Y-10260232D01*
X16777992Y-10260227D01*
X16782871Y-10252700D01*
X16785441Y-10244107D01*
X16785443Y-10244102D01*
X16790230Y-10228095D01*
X16796891Y-10210651D01*
X16803986Y-10195539D01*
X16803987Y-10195537D01*
X16807800Y-10187415D01*
X16810428Y-10170541D01*
X16812349Y-10158200D01*
X16816132Y-10141483D01*
X16822034Y-10121749D01*
X16822035Y-10121743D01*
X16824605Y-10113149D01*
X16824815Y-10078709D01*
X16824848Y-10077926D01*
X16825019Y-10076829D01*
X16825019Y-10045838D01*
X16825021Y-10045068D01*
X16825471Y-9971430D01*
X16825471Y-9971429D01*
X16825495Y-9967494D01*
X16825111Y-9966150D01*
X16825019Y-9964805D01*
X16825019Y-5125958D01*
X16825714Y-5112745D01*
X16826742Y-5102998D01*
X16829893Y-5073115D01*
X16827694Y-5060990D01*
X16825776Y-5033365D01*
X16825979Y-5028405D01*
X16831196Y-4900599D01*
X16834161Y-4878095D01*
X16868224Y-4726628D01*
X16875179Y-4705020D01*
X16879795Y-4694151D01*
X16935869Y-4562119D01*
X16946580Y-4542125D01*
X17031928Y-4412430D01*
X17046061Y-4394673D01*
X17080165Y-4358965D01*
X17153289Y-4282403D01*
X17170382Y-4267467D01*
X17296013Y-4176261D01*
X17315510Y-4164634D01*
X17455465Y-4097451D01*
X17476732Y-4089510D01*
X17626473Y-4048529D01*
X17648819Y-4044534D01*
X17774148Y-4033637D01*
X17790692Y-4034226D01*
X17790699Y-4033761D01*
X17799669Y-4033902D01*
X17808539Y-4035314D01*
X17841284Y-4031148D01*
X17857158Y-4030141D01*
X31330394Y-4027721D01*
X42014229Y-4025802D01*
X42029108Y-4026682D01*
X42055512Y-4029818D01*
X42055516Y-4029818D01*
X42064433Y-4030877D01*
X42073286Y-4029391D01*
X42073288Y-4029391D01*
X42076695Y-4028819D01*
X42104249Y-4027260D01*
X42235419Y-4034247D01*
X42257707Y-4037450D01*
X42304567Y-4048529D01*
X42407403Y-4072843D01*
X42428765Y-4079961D01*
X42569779Y-4141437D01*
X42589533Y-4152244D01*
X42717349Y-4237835D01*
X42734864Y-4251986D01*
X42845408Y-4358965D01*
X42860125Y-4376007D01*
X42949856Y-4500945D01*
X42961305Y-4520334D01*
X43027371Y-4659261D01*
X43035185Y-4680379D01*
X43047734Y-4726628D01*
X43075465Y-4828835D01*
X43079396Y-4851006D01*
X43090089Y-4975034D01*
X43089501Y-4991385D01*
X43089973Y-4991392D01*
X43089832Y-5000369D01*
X43088420Y-5009236D01*
X43092586Y-5041977D01*
X43093592Y-5057850D01*
X43096150Y-21637135D01*
X43097933Y-33192348D01*
X43097933Y-33194915D01*
X43097054Y-33209793D01*
X43092857Y-33245131D01*
X43094343Y-33253983D01*
X43094343Y-33253990D01*
X43094914Y-33257391D01*
X43096474Y-33284948D01*
X43089487Y-33416109D01*
X43086284Y-33438397D01*
X43050892Y-33588088D01*
X43043774Y-33609451D01*
X42982855Y-33749186D01*
X42982300Y-33750458D01*
X42971497Y-33770205D01*
X42896476Y-33882233D01*
X42885904Y-33898020D01*
X42871753Y-33915535D01*
X42869595Y-33917765D01*
X42764775Y-34026075D01*
X42747741Y-34040784D01*
X42660468Y-34103460D01*
X42622794Y-34130516D01*
X42603405Y-34141963D01*
X42464492Y-34208018D01*
X42443372Y-34215833D01*
X42294914Y-34256107D01*
X42272742Y-34260037D01*
X42148463Y-34270746D01*
X42132367Y-34270167D01*
X42132359Y-34270669D01*
X42123384Y-34270528D01*
X42114521Y-34269116D01*
X42082021Y-34273249D01*
X42066051Y-34274256D01*
X35606056Y-34270084D01*
X33526389Y-34268741D01*
X33526270Y-34268736D01*
X33526133Y-34268715D01*
X33485948Y-34268715D01*
X33450734Y-34268692D01*
X33450334Y-34268692D01*
X33450201Y-34268711D01*
X33450090Y-34268715D01*
X17893605Y-34268715D01*
X17875115Y-34267351D01*
X17857980Y-34264809D01*
X17849103Y-34263492D01*
X17836509Y-34265231D01*
X17809147Y-34266008D01*
X17677441Y-34255381D01*
X17655683Y-34251686D01*
X17505844Y-34212482D01*
X17485062Y-34205046D01*
X17344365Y-34140297D01*
X17325205Y-34129352D01*
X17197962Y-34041043D01*
X17181003Y-34026920D01*
X17071123Y-33917765D01*
X17056886Y-33900897D01*
X16967741Y-33774243D01*
X16956667Y-33755151D01*
X16890988Y-33614879D01*
X16883416Y-33594148D01*
X16881283Y-33586211D01*
X16843223Y-33444573D01*
X16839385Y-33422843D01*
X16831587Y-33333549D01*
X16828517Y-33298402D01*
X16829087Y-33281641D01*
X16828704Y-33281636D01*
X16828819Y-33272662D01*
X16830206Y-33263790D01*
X16826073Y-33232040D01*
X16825019Y-33215775D01*
X16825019Y-31300000D01*
X24506771Y-31300000D01*
X24525635Y-31479475D01*
X24581401Y-31651107D01*
X24671633Y-31807393D01*
X24792387Y-31941504D01*
X24797729Y-31945385D01*
X24797731Y-31945387D01*
X24898821Y-32018833D01*
X24938385Y-32047578D01*
X24944413Y-32050262D01*
X24944415Y-32050263D01*
X25097217Y-32118295D01*
X25103248Y-32120980D01*
X25191508Y-32139740D01*
X25273311Y-32157128D01*
X25273315Y-32157128D01*
X25279768Y-32158500D01*
X25460232Y-32158500D01*
X25466685Y-32157128D01*
X25466689Y-32157128D01*
X25548492Y-32139740D01*
X25636752Y-32120980D01*
X25642783Y-32118295D01*
X25795585Y-32050263D01*
X25795587Y-32050262D01*
X25801615Y-32047578D01*
X25841179Y-32018833D01*
X25942269Y-31945387D01*
X25942271Y-31945385D01*
X25947613Y-31941504D01*
X26068367Y-31807393D01*
X26158599Y-31651107D01*
X26214365Y-31479475D01*
X26220575Y-31420394D01*
X26247589Y-31354737D01*
X26256790Y-31344470D01*
X29035548Y-28565712D01*
X31825854Y-25775405D01*
X31888166Y-25741379D01*
X31914949Y-25738500D01*
X35964840Y-25738500D01*
X36032961Y-25758502D01*
X36038901Y-25762564D01*
X36050660Y-25771107D01*
X36128385Y-25827578D01*
X36134413Y-25830262D01*
X36134415Y-25830263D01*
X36287217Y-25898295D01*
X36293248Y-25900980D01*
X36381508Y-25919740D01*
X36463311Y-25937128D01*
X36463315Y-25937128D01*
X36469768Y-25938500D01*
X36650232Y-25938500D01*
X36656685Y-25937128D01*
X36656689Y-25937128D01*
X36738492Y-25919740D01*
X36826752Y-25900980D01*
X36832783Y-25898295D01*
X36985585Y-25830263D01*
X36985587Y-25830262D01*
X36991615Y-25827578D01*
X37063425Y-25775405D01*
X37132269Y-25725387D01*
X37132271Y-25725385D01*
X37137613Y-25721504D01*
X37223502Y-25626115D01*
X37253948Y-25592301D01*
X37253949Y-25592300D01*
X37258367Y-25587393D01*
X37348599Y-25431107D01*
X37394734Y-25289116D01*
X37402325Y-25265754D01*
X37402325Y-25265753D01*
X37404365Y-25259475D01*
X37423229Y-25080000D01*
X37413773Y-24990032D01*
X37405055Y-24907089D01*
X37405055Y-24907088D01*
X37404365Y-24900525D01*
X37387233Y-24847796D01*
X37350641Y-24735178D01*
X37348599Y-24728893D01*
X37340702Y-24715214D01*
X37269275Y-24591501D01*
X37258367Y-24572607D01*
X37248058Y-24561157D01*
X37142035Y-24443407D01*
X37142034Y-24443406D01*
X37137613Y-24438496D01*
X37123473Y-24428222D01*
X36996957Y-24336303D01*
X36996956Y-24336302D01*
X36991615Y-24332422D01*
X36985587Y-24329738D01*
X36985585Y-24329737D01*
X36832783Y-24261705D01*
X36832781Y-24261705D01*
X36826752Y-24259020D01*
X36738492Y-24240260D01*
X36656689Y-24222872D01*
X36656685Y-24222872D01*
X36650232Y-24221500D01*
X36469768Y-24221500D01*
X36463315Y-24222872D01*
X36463311Y-24222872D01*
X36381508Y-24240260D01*
X36293248Y-24259020D01*
X36287219Y-24261704D01*
X36287217Y-24261705D01*
X36134416Y-24329737D01*
X36134414Y-24329738D01*
X36128386Y-24332422D01*
X36123044Y-24336303D01*
X36123039Y-24336306D01*
X36038900Y-24397436D01*
X35964840Y-24421500D01*
X31672056Y-24421500D01*
X31660200Y-24420941D01*
X31660197Y-24420941D01*
X31652463Y-24419212D01*
X31617111Y-24420323D01*
X31581631Y-24421438D01*
X31577673Y-24421500D01*
X31548568Y-24421500D01*
X31544168Y-24422056D01*
X31532336Y-24422988D01*
X31486169Y-24424438D01*
X31465579Y-24430420D01*
X31446218Y-24434430D01*
X31439230Y-24435312D01*
X31432796Y-24436125D01*
X31432795Y-24436125D01*
X31424936Y-24437118D01*
X31417571Y-24440034D01*
X31417567Y-24440035D01*
X31381979Y-24454126D01*
X31370769Y-24457965D01*
X31326400Y-24470855D01*
X31307943Y-24481771D01*
X31290193Y-24490466D01*
X31270244Y-24498365D01*
X31263833Y-24503023D01*
X31263831Y-24503024D01*
X31232864Y-24525523D01*
X31222946Y-24532038D01*
X31183193Y-24555548D01*
X31168032Y-24570709D01*
X31153000Y-24583548D01*
X31135643Y-24596159D01*
X31115362Y-24620675D01*
X31106193Y-24631758D01*
X31098203Y-24640538D01*
X25328349Y-30410391D01*
X25265451Y-30444543D01*
X25233224Y-30451393D01*
X25103248Y-30479020D01*
X25097219Y-30481704D01*
X25097217Y-30481705D01*
X24944416Y-30549737D01*
X24944414Y-30549738D01*
X24938386Y-30552422D01*
X24933045Y-30556302D01*
X24933044Y-30556303D01*
X24797731Y-30654613D01*
X24797729Y-30654615D01*
X24792387Y-30658496D01*
X24671633Y-30792607D01*
X24581401Y-30948893D01*
X24525635Y-31120525D01*
X24506771Y-31300000D01*
X16825019Y-31300000D01*
X16825019Y-28615838D01*
X16825021Y-28615068D01*
X16825319Y-28566317D01*
X16825495Y-28537494D01*
X16817369Y-28509062D01*
X16813791Y-28492300D01*
X16810871Y-28471913D01*
X16809599Y-28463028D01*
X16802669Y-28447785D01*
X16799475Y-28440761D01*
X16798970Y-28439651D01*
X16792523Y-28422128D01*
X16790063Y-28413521D01*
X16785468Y-28397444D01*
X16780675Y-28389847D01*
X16769689Y-28372435D01*
X16761549Y-28357350D01*
X16749311Y-28330433D01*
X16732549Y-28310980D01*
X16721446Y-28295976D01*
X16707743Y-28274257D01*
X16701018Y-28268318D01*
X16701015Y-28268314D01*
X16685581Y-28254683D01*
X16673537Y-28242491D01*
X16660092Y-28226888D01*
X16660089Y-28226886D01*
X16654232Y-28220088D01*
X16640528Y-28211205D01*
X16632684Y-28206121D01*
X16617810Y-28194830D01*
X16605302Y-28183784D01*
X16605301Y-28183783D01*
X16598568Y-28177837D01*
X16571806Y-28165272D01*
X16556828Y-28156952D01*
X16539536Y-28145744D01*
X16539531Y-28145742D01*
X16532004Y-28140863D01*
X16523411Y-28138293D01*
X16523406Y-28138291D01*
X16507399Y-28133504D01*
X16489955Y-28126843D01*
X16474843Y-28119748D01*
X16474841Y-28119747D01*
X16466719Y-28115934D01*
X16457852Y-28114553D01*
X16457851Y-28114553D01*
X16446997Y-28112863D01*
X16437502Y-28111385D01*
X16420787Y-28107602D01*
X16401053Y-28101700D01*
X16401047Y-28101699D01*
X16392453Y-28099129D01*
X16383482Y-28099074D01*
X16383481Y-28099074D01*
X16373422Y-28099013D01*
X16358013Y-28098919D01*
X16357230Y-28098886D01*
X16356133Y-28098715D01*
X16325142Y-28098715D01*
X16324372Y-28098713D01*
X16250734Y-28098263D01*
X16250733Y-28098263D01*
X16246798Y-28098239D01*
X16245454Y-28098623D01*
X16244109Y-28098715D01*
X13545142Y-28098715D01*
X13544372Y-28098713D01*
X13543556Y-28098708D01*
X13466798Y-28098239D01*
X13444437Y-28104630D01*
X13438366Y-28106365D01*
X13421604Y-28109943D01*
X13392332Y-28114135D01*
X13384164Y-28117849D01*
X13384163Y-28117849D01*
X13368957Y-28124763D01*
X13351433Y-28131211D01*
X13326748Y-28138266D01*
X13319154Y-28143058D01*
X13319151Y-28143059D01*
X13301739Y-28154045D01*
X13286656Y-28162184D01*
X13259737Y-28174423D01*
X13241351Y-28190266D01*
X13240284Y-28191185D01*
X13225280Y-28202288D01*
X13203561Y-28215991D01*
X13197622Y-28222716D01*
X13197618Y-28222719D01*
X13183987Y-28238153D01*
X13171795Y-28250197D01*
X13156192Y-28263642D01*
X13156190Y-28263645D01*
X13149392Y-28269502D01*
X13144512Y-28277031D01*
X13144511Y-28277032D01*
X13135425Y-28291050D01*
X13124134Y-28305924D01*
X13113088Y-28318432D01*
X13107141Y-28325166D01*
X13100831Y-28338606D01*
X13094577Y-28351926D01*
X13086256Y-28366906D01*
X13075048Y-28384198D01*
X13075046Y-28384203D01*
X13070167Y-28391730D01*
X13067597Y-28400323D01*
X13067595Y-28400328D01*
X13062808Y-28416335D01*
X13056147Y-28433779D01*
X13049379Y-28448195D01*
X13045238Y-28457015D01*
X13043857Y-28465882D01*
X13043857Y-28465883D01*
X13040689Y-28486230D01*
X13036906Y-28502947D01*
X13031004Y-28522681D01*
X13031003Y-28522687D01*
X13028433Y-28531281D01*
X13028378Y-28540252D01*
X13028378Y-28540253D01*
X13028223Y-28565712D01*
X13028190Y-28566504D01*
X13028019Y-28567601D01*
X13028019Y-28598592D01*
X13028017Y-28599362D01*
X13027543Y-28676936D01*
X13027927Y-28678280D01*
X13028019Y-28679625D01*
X13028019Y-31188949D01*
X13026585Y-31207904D01*
X13022809Y-31232719D01*
X13024004Y-31241617D01*
X13024004Y-31241618D01*
X13024556Y-31245731D01*
X13025258Y-31272771D01*
X13016814Y-31376021D01*
X13014013Y-31410266D01*
X13010461Y-31431373D01*
X12978879Y-31554166D01*
X12970328Y-31587411D01*
X12963252Y-31607619D01*
X12897278Y-31754606D01*
X12886886Y-31773320D01*
X12796967Y-31907026D01*
X12783555Y-31923708D01*
X12672312Y-32040242D01*
X12656265Y-32054418D01*
X12570199Y-32118295D01*
X12526890Y-32150438D01*
X12508679Y-32161689D01*
X12364904Y-32234421D01*
X12345049Y-32242426D01*
X12191048Y-32289760D01*
X12170121Y-32294289D01*
X12040213Y-32311016D01*
X12023602Y-32311153D01*
X12023613Y-32311497D01*
X12014634Y-32311773D01*
X12005717Y-32310775D01*
X11993254Y-32312953D01*
X11987845Y-32313898D01*
X11966198Y-32315778D01*
X7199883Y-32317307D01*
X5789735Y-32317759D01*
X5789019Y-32317757D01*
X5711798Y-32317285D01*
X5703176Y-32319749D01*
X5703169Y-32319750D01*
X5683269Y-32325438D01*
X5666548Y-32329010D01*
X5637174Y-32333227D01*
X5624741Y-32338885D01*
X5613894Y-32343821D01*
X5596334Y-32350284D01*
X5580379Y-32354844D01*
X5580372Y-32354847D01*
X5571748Y-32357312D01*
X5564160Y-32362100D01*
X5564159Y-32362100D01*
X5551004Y-32370400D01*
X5482719Y-32389834D01*
X5414767Y-32369265D01*
X5372517Y-32322991D01*
X5331540Y-32245923D01*
X5324751Y-32235706D01*
X5207603Y-32092067D01*
X5198959Y-32083363D01*
X5056144Y-31965216D01*
X5045973Y-31958356D01*
X4882924Y-31870196D01*
X4871619Y-31865444D01*
X4756308Y-31829750D01*
X4742205Y-31829544D01*
X4739000Y-31836299D01*
X4739000Y-34658924D01*
X4742973Y-34672455D01*
X4750768Y-34673575D01*
X4858521Y-34641862D01*
X4869889Y-34637269D01*
X5034154Y-34551393D01*
X5044416Y-34544678D01*
X5068066Y-34525663D01*
X5133689Y-34498566D01*
X5203543Y-34511249D01*
X5255452Y-34559685D01*
X5273019Y-34623859D01*
X5273019Y-34920090D01*
X5270484Y-34945239D01*
X5268674Y-34954125D01*
X5269423Y-34963071D01*
X5268897Y-34972029D01*
X5268711Y-34972018D01*
X5267714Y-34993438D01*
X5259910Y-35037180D01*
X5255633Y-35061148D01*
X5245765Y-35092311D01*
X5209552Y-35169888D01*
X5191998Y-35197467D01*
X5169847Y-35223931D01*
X5137047Y-35263116D01*
X5112989Y-35285250D01*
X5042993Y-35334556D01*
X5014053Y-35349755D01*
X4933738Y-35379393D01*
X4901859Y-35386637D01*
X4837519Y-35392659D01*
X4819612Y-35393056D01*
X4815479Y-35392854D01*
X4806668Y-35391148D01*
X4797730Y-35391984D01*
X4763209Y-35395213D01*
X4751475Y-35395761D01*
X-4414307Y-35395761D01*
X-4439457Y-35393225D01*
X-4448333Y-35391417D01*
X-4457278Y-35392166D01*
X-4466243Y-35391639D01*
X-4466232Y-35391452D01*
X-4487656Y-35390455D01*
X-4521499Y-35384415D01*
X-4555341Y-35378376D01*
X-4586505Y-35368507D01*
X-4664070Y-35332296D01*
X-4691649Y-35314741D01*
X-4757292Y-35259790D01*
X-4779416Y-35235741D01*
X-4828718Y-35165746D01*
X-4843914Y-35136808D01*
X-4873544Y-35056497D01*
X-4880785Y-35024621D01*
X-4885220Y-34977219D01*
X-4886855Y-34959737D01*
X-4887251Y-34941828D01*
X-4887075Y-34938253D01*
X-4885369Y-34929440D01*
X-4888475Y-34896209D01*
X-4889375Y-34886576D01*
X-4889922Y-34874609D01*
X-4889586Y-34699682D01*
X-4889522Y-34666338D01*
X-4869389Y-34598257D01*
X-4815644Y-34551867D01*
X-4745351Y-34541898D01*
X-4703593Y-34555745D01*
X-4562924Y-34631804D01*
X-4551619Y-34636556D01*
X-4436308Y-34672250D01*
X-4422205Y-34672456D01*
X-4419000Y-34665701D01*
X-4419000Y-34658924D01*
X-3911000Y-34658924D01*
X-3907027Y-34672455D01*
X-3899232Y-34673575D01*
X-3791479Y-34641862D01*
X-3780111Y-34637269D01*
X-3615846Y-34551393D01*
X-3605585Y-34544679D01*
X-3461127Y-34428532D01*
X-3452368Y-34419954D01*
X-3333222Y-34277961D01*
X-3326292Y-34267841D01*
X-3236998Y-34105415D01*
X-3232166Y-34094142D01*
X-3176120Y-33917462D01*
X-3173570Y-33905468D01*
X-3157393Y-33761239D01*
X-3157000Y-33754215D01*
X-3157000Y-33747657D01*
X3477000Y-33747657D01*
X3477301Y-33753805D01*
X3490812Y-33891603D01*
X3493195Y-33903638D01*
X3546767Y-34081076D01*
X3551441Y-34092416D01*
X3638460Y-34256077D01*
X3645249Y-34266294D01*
X3762397Y-34409933D01*
X3771041Y-34418637D01*
X3913856Y-34536784D01*
X3924027Y-34543644D01*
X4087076Y-34631804D01*
X4098381Y-34636556D01*
X4213692Y-34672250D01*
X4227795Y-34672456D01*
X4231000Y-34665701D01*
X4231000Y-33523115D01*
X4226525Y-33507876D01*
X4225135Y-33506671D01*
X4217452Y-33505000D01*
X3495115Y-33505000D01*
X3479876Y-33509475D01*
X3478671Y-33510865D01*
X3477000Y-33518548D01*
X3477000Y-33747657D01*
X-3157000Y-33747657D01*
X-3157000Y-33523115D01*
X-3161475Y-33507876D01*
X-3162865Y-33506671D01*
X-3170548Y-33505000D01*
X-3892885Y-33505000D01*
X-3908124Y-33509475D01*
X-3909329Y-33510865D01*
X-3911000Y-33518548D01*
X-3911000Y-34658924D01*
X-4419000Y-34658924D01*
X-4419000Y-32978885D01*
X-3911000Y-32978885D01*
X-3906525Y-32994124D01*
X-3905135Y-32995329D01*
X-3897452Y-32997000D01*
X-3175115Y-32997000D01*
X-3159876Y-32992525D01*
X-3158671Y-32991135D01*
X-3157000Y-32983452D01*
X-3157000Y-32978885D01*
X3477000Y-32978885D01*
X3481475Y-32994124D01*
X3482865Y-32995329D01*
X3490548Y-32997000D01*
X4212885Y-32997000D01*
X4228124Y-32992525D01*
X4229329Y-32991135D01*
X4231000Y-32983452D01*
X4231000Y-31843076D01*
X4227027Y-31829545D01*
X4219232Y-31828425D01*
X4111479Y-31860138D01*
X4100111Y-31864731D01*
X3935846Y-31950607D01*
X3925585Y-31957321D01*
X3781127Y-32073468D01*
X3772368Y-32082046D01*
X3653222Y-32224039D01*
X3646292Y-32234159D01*
X3556998Y-32396585D01*
X3552166Y-32407858D01*
X3496120Y-32584538D01*
X3493570Y-32596532D01*
X3477393Y-32740761D01*
X3477000Y-32747785D01*
X3477000Y-32978885D01*
X-3157000Y-32978885D01*
X-3157000Y-32754343D01*
X-3157301Y-32748195D01*
X-3170812Y-32610397D01*
X-3173195Y-32598362D01*
X-3226767Y-32420924D01*
X-3231441Y-32409584D01*
X-3318460Y-32245923D01*
X-3325249Y-32235706D01*
X-3442397Y-32092067D01*
X-3451041Y-32083363D01*
X-3593856Y-31965216D01*
X-3604027Y-31958356D01*
X-3767076Y-31870196D01*
X-3778381Y-31865444D01*
X-3893692Y-31829750D01*
X-3907795Y-31829544D01*
X-3911000Y-31836299D01*
X-3911000Y-32978885D01*
X-4419000Y-32978885D01*
X-4419000Y-31843076D01*
X-4422973Y-31829545D01*
X-4430768Y-31828425D01*
X-4538521Y-31860138D01*
X-4549889Y-31864731D01*
X-4714154Y-31950607D01*
X-4724415Y-31957321D01*
X-4868873Y-32073468D01*
X-4877632Y-32082046D01*
X-4996778Y-32224039D01*
X-5003702Y-32234152D01*
X-5038866Y-32298115D01*
X-5089211Y-32348173D01*
X-5158628Y-32363067D01*
X-5185616Y-32358061D01*
X-5203098Y-32352796D01*
X-5220365Y-32346178D01*
X-5243996Y-32335067D01*
X-5252864Y-32333681D01*
X-5252867Y-32333680D01*
X-5272785Y-32330567D01*
X-5289655Y-32326728D01*
X-5303277Y-32322626D01*
X-5308978Y-32320909D01*
X-5308979Y-32320909D01*
X-5317569Y-32318322D01*
X-5352124Y-32318045D01*
X-5353202Y-32317998D01*
X-5354572Y-32317784D01*
X-5368048Y-32317776D01*
X-5386401Y-32317765D01*
X-5387337Y-32317761D01*
X-5416969Y-32317523D01*
X-5463222Y-32317152D01*
X-5464840Y-32317611D01*
X-5466455Y-32317719D01*
X-8150000Y-32316164D01*
X-11954711Y-32313960D01*
X-11973897Y-32312478D01*
X-11998086Y-32308734D01*
X-12010374Y-32310352D01*
X-12037998Y-32310934D01*
X-12140213Y-32301829D01*
X-12175876Y-32298652D01*
X-12198105Y-32294639D01*
X-12250225Y-32280306D01*
X-12353207Y-32251987D01*
X-12374361Y-32244069D01*
X-12519353Y-32174406D01*
X-12538755Y-32162838D01*
X-12636349Y-32092067D01*
X-12668978Y-32068405D01*
X-12686001Y-32053560D01*
X-12691730Y-32047578D01*
X-12778181Y-31957321D01*
X-12797270Y-31937391D01*
X-12811370Y-31919742D01*
X-12900102Y-31785580D01*
X-12910824Y-31765697D01*
X-12974179Y-31617834D01*
X-12981179Y-31596356D01*
X-13010559Y-31468155D01*
X-13012247Y-31451855D01*
X-13012718Y-31451913D01*
X-13013822Y-31443004D01*
X-13013652Y-31434030D01*
X-13014967Y-31429194D01*
X-13015316Y-31423751D01*
X-13015328Y-31420971D01*
X-13023546Y-29647657D01*
X-5173000Y-29647657D01*
X-5172699Y-29653805D01*
X-5159188Y-29791603D01*
X-5156805Y-29803638D01*
X-5103233Y-29981076D01*
X-5098559Y-29992416D01*
X-5011540Y-30156077D01*
X-5004751Y-30166294D01*
X-4887603Y-30309933D01*
X-4878959Y-30318637D01*
X-4736144Y-30436784D01*
X-4725973Y-30443644D01*
X-4562924Y-30531804D01*
X-4551619Y-30536556D01*
X-4436308Y-30572250D01*
X-4422205Y-30572456D01*
X-4419000Y-30565701D01*
X-4419000Y-29323115D01*
X-4423475Y-29307876D01*
X-4424865Y-29306671D01*
X-4432548Y-29305000D01*
X-5154885Y-29305000D01*
X-5170124Y-29309475D01*
X-5171329Y-29310865D01*
X-5173000Y-29318548D01*
X-5173000Y-29647657D01*
X-13023546Y-29647657D01*
X-13029953Y-28264998D01*
X-13029952Y-28263669D01*
X-13029945Y-28262607D01*
X-13029504Y-28190448D01*
X-13038037Y-28160593D01*
X-13041529Y-28144416D01*
X-13044759Y-28122580D01*
X-13044759Y-28122579D01*
X-13046073Y-28113699D01*
X-13051595Y-28101700D01*
X-13056190Y-28091718D01*
X-13062880Y-28073664D01*
X-13067062Y-28059032D01*
X-13067065Y-28059024D01*
X-13069531Y-28050398D01*
X-13086099Y-28024139D01*
X-13093994Y-28009587D01*
X-13103220Y-27989544D01*
X-13106975Y-27981385D01*
X-13122855Y-27963127D01*
X-13134342Y-27947679D01*
X-13147256Y-27927211D01*
X-13170526Y-27906659D01*
X-13182186Y-27894910D01*
X-13196673Y-27878254D01*
X-13202564Y-27871481D01*
X-13222933Y-27858412D01*
X-13238296Y-27846807D01*
X-13249703Y-27836733D01*
X-13256431Y-27830791D01*
X-13264554Y-27826977D01*
X-13264556Y-27826976D01*
X-13284533Y-27817597D01*
X-13299025Y-27809591D01*
X-13303065Y-27806999D01*
X-13325158Y-27792824D01*
X-13333770Y-27790292D01*
X-13333772Y-27790291D01*
X-13348371Y-27785999D01*
X-13366378Y-27779171D01*
X-13378525Y-27773468D01*
X-13388280Y-27768888D01*
X-13414309Y-27764835D01*
X-13418960Y-27764111D01*
X-13435116Y-27760494D01*
X-13456286Y-27754270D01*
X-13464901Y-27751737D01*
X-13498750Y-27751687D01*
X-13498747Y-27749657D01*
X-13498866Y-27749678D01*
X-13498866Y-27751669D01*
X-13510970Y-27751669D01*
X-13610559Y-27751522D01*
X-13610954Y-27751637D01*
X-13611409Y-27751669D01*
X-16299857Y-27751669D01*
X-16300627Y-27751667D01*
X-16301443Y-27751662D01*
X-16378201Y-27751193D01*
X-16400562Y-27757584D01*
X-16406633Y-27759319D01*
X-16423395Y-27762897D01*
X-16452667Y-27767089D01*
X-16460835Y-27770803D01*
X-16460836Y-27770803D01*
X-16476042Y-27777717D01*
X-16493566Y-27784165D01*
X-16518251Y-27791220D01*
X-16525845Y-27796012D01*
X-16525848Y-27796013D01*
X-16543260Y-27806999D01*
X-16558343Y-27815138D01*
X-16585262Y-27827377D01*
X-16592064Y-27833238D01*
X-16604715Y-27844139D01*
X-16619719Y-27855242D01*
X-16641438Y-27868945D01*
X-16647377Y-27875670D01*
X-16647381Y-27875673D01*
X-16661012Y-27891107D01*
X-16673204Y-27903151D01*
X-16688807Y-27916596D01*
X-16688809Y-27916599D01*
X-16695607Y-27922456D01*
X-16700487Y-27929985D01*
X-16700488Y-27929986D01*
X-16709574Y-27944004D01*
X-16720865Y-27958878D01*
X-16731911Y-27971386D01*
X-16737858Y-27978120D01*
X-16750422Y-28004880D01*
X-16758743Y-28019860D01*
X-16769951Y-28037152D01*
X-16769953Y-28037157D01*
X-16774832Y-28044684D01*
X-16777402Y-28053277D01*
X-16777404Y-28053282D01*
X-16782191Y-28069289D01*
X-16788852Y-28086733D01*
X-16794477Y-28098715D01*
X-16799761Y-28109969D01*
X-16801142Y-28118836D01*
X-16801142Y-28118837D01*
X-16804310Y-28139184D01*
X-16808093Y-28155901D01*
X-16813995Y-28175635D01*
X-16813996Y-28175641D01*
X-16816566Y-28184235D01*
X-16816621Y-28193206D01*
X-16816621Y-28193207D01*
X-16816776Y-28218666D01*
X-16816809Y-28219458D01*
X-16816980Y-28220555D01*
X-16816980Y-28251546D01*
X-16816982Y-28252316D01*
X-16817456Y-28329890D01*
X-16817072Y-28331234D01*
X-16816980Y-28332579D01*
X-16816980Y-33171422D01*
X-16817675Y-33184636D01*
X-16820788Y-33214160D01*
X-16821854Y-33224264D01*
X-16820252Y-33233097D01*
X-16819669Y-33236314D01*
X-16817755Y-33264002D01*
X-16820732Y-33336018D01*
X-16823106Y-33393429D01*
X-16826111Y-33416059D01*
X-16831171Y-33438397D01*
X-16859657Y-33564150D01*
X-16866697Y-33585866D01*
X-16926413Y-33725471D01*
X-16937257Y-33745562D01*
X-17021178Y-33872091D01*
X-17035468Y-33889895D01*
X-17140850Y-33999212D01*
X-17158119Y-34014145D01*
X-17281487Y-34102644D01*
X-17301167Y-34114217D01*
X-17438494Y-34179009D01*
X-17459935Y-34186838D01*
X-17606695Y-34225787D01*
X-17629194Y-34229619D01*
X-17751419Y-34239168D01*
X-17767817Y-34238435D01*
X-17767829Y-34238929D01*
X-17776800Y-34238705D01*
X-17785656Y-34237210D01*
X-17821322Y-34241412D01*
X-17836062Y-34242278D01*
X-26841872Y-34241990D01*
X-42096704Y-34241502D01*
X-42121503Y-34239037D01*
X-42122478Y-34238841D01*
X-42122484Y-34238841D01*
X-42131281Y-34237074D01*
X-42144364Y-34238206D01*
X-42171398Y-34237632D01*
X-42262901Y-34225786D01*
X-42289696Y-34222317D01*
X-42310610Y-34217777D01*
X-42446754Y-34175841D01*
X-42466598Y-34167826D01*
X-42593668Y-34103460D01*
X-42611870Y-34092203D01*
X-42726222Y-34007253D01*
X-42742256Y-33993077D01*
X-42840575Y-33890007D01*
X-42853978Y-33873323D01*
X-42933444Y-33755088D01*
X-42943827Y-33736383D01*
X-43002134Y-33606407D01*
X-43009202Y-33586211D01*
X-43044670Y-33448245D01*
X-43048219Y-33427140D01*
X-43050975Y-33393429D01*
X-43057349Y-33315461D01*
X-43056705Y-33298601D01*
X-43057016Y-33298596D01*
X-43056875Y-33289625D01*
X-43055463Y-33280755D01*
X-43058496Y-33256916D01*
X-43059627Y-33248027D01*
X-43060635Y-33232143D01*
X-43062607Y-20447215D01*
X-36176710Y-20447215D01*
X-36157846Y-20626690D01*
X-36155806Y-20632968D01*
X-36155806Y-20632969D01*
X-36133552Y-20701461D01*
X-36102080Y-20798322D01*
X-36098777Y-20804044D01*
X-36098776Y-20804045D01*
X-36086656Y-20825037D01*
X-36011848Y-20954608D01*
X-36007430Y-20959515D01*
X-36007429Y-20959516D01*
X-35922300Y-21054061D01*
X-35891094Y-21088719D01*
X-35885752Y-21092600D01*
X-35885750Y-21092602D01*
X-35750438Y-21190912D01*
X-35745096Y-21194793D01*
X-35739068Y-21197477D01*
X-35739066Y-21197478D01*
X-35587524Y-21264949D01*
X-35580233Y-21268195D01*
X-35499016Y-21285458D01*
X-35410170Y-21304343D01*
X-35410166Y-21304343D01*
X-35403713Y-21305715D01*
X-35223249Y-21305715D01*
X-35216796Y-21304343D01*
X-35216792Y-21304343D01*
X-35127946Y-21285458D01*
X-35046729Y-21268195D01*
X-35039438Y-21264949D01*
X-34887896Y-21197478D01*
X-34887894Y-21197477D01*
X-34881866Y-21194793D01*
X-34864980Y-21182525D01*
X-34792382Y-21129779D01*
X-34725514Y-21105920D01*
X-34718321Y-21105715D01*
X-26735537Y-21105715D01*
X-26723681Y-21106274D01*
X-26723678Y-21106274D01*
X-26715944Y-21108003D01*
X-26645112Y-21105777D01*
X-26641154Y-21105715D01*
X-26612049Y-21105715D01*
X-26607649Y-21105159D01*
X-26595817Y-21104227D01*
X-26549650Y-21102777D01*
X-26529060Y-21096795D01*
X-26509699Y-21092785D01*
X-26502711Y-21091903D01*
X-26496277Y-21091090D01*
X-26496276Y-21091090D01*
X-26488417Y-21090097D01*
X-26481052Y-21087181D01*
X-26481048Y-21087180D01*
X-26445460Y-21073089D01*
X-26434250Y-21069250D01*
X-26389881Y-21056360D01*
X-26371416Y-21045440D01*
X-26353676Y-21036749D01*
X-26333725Y-21028850D01*
X-26296352Y-21001697D01*
X-26286433Y-20995182D01*
X-26253504Y-20975708D01*
X-26253500Y-20975705D01*
X-26246674Y-20971668D01*
X-26231510Y-20956504D01*
X-26216476Y-20943663D01*
X-26205538Y-20935716D01*
X-26199124Y-20931056D01*
X-26169678Y-20895462D01*
X-26161689Y-20886683D01*
X-23501830Y-18226824D01*
X-23438932Y-18192672D01*
X-23403998Y-18185246D01*
X-23276729Y-18158195D01*
X-23219864Y-18132877D01*
X-23117896Y-18087478D01*
X-23117894Y-18087477D01*
X-23111866Y-18084793D01*
X-23088027Y-18067473D01*
X-22971212Y-17982602D01*
X-22971210Y-17982600D01*
X-22965868Y-17978719D01*
X-22845114Y-17844608D01*
X-22785572Y-17741478D01*
X-22758186Y-17694045D01*
X-22758185Y-17694044D01*
X-22754882Y-17688322D01*
X-22723182Y-17590757D01*
X-22701156Y-17522969D01*
X-22701156Y-17522968D01*
X-22699116Y-17516690D01*
X-22696160Y-17488571D01*
X-22680942Y-17343780D01*
X-22680252Y-17337215D01*
X-22688516Y-17258592D01*
X-22698426Y-17164304D01*
X-22698426Y-17164303D01*
X-22699116Y-17157740D01*
X-22706194Y-17135954D01*
X-22750821Y-16998606D01*
X-22754882Y-16986108D01*
X-22766548Y-16965901D01*
X-22801945Y-16904592D01*
X-22845114Y-16829822D01*
X-22859319Y-16814045D01*
X-22961446Y-16700622D01*
X-22961447Y-16700621D01*
X-22965868Y-16695711D01*
X-22973945Y-16689842D01*
X-23106524Y-16593518D01*
X-23106525Y-16593517D01*
X-23111866Y-16589637D01*
X-23117894Y-16586953D01*
X-23117896Y-16586952D01*
X-23270698Y-16518920D01*
X-23270700Y-16518920D01*
X-23276729Y-16516235D01*
X-23364989Y-16497475D01*
X-23446792Y-16480087D01*
X-23446796Y-16480087D01*
X-23453249Y-16478715D01*
X-23633713Y-16478715D01*
X-23640166Y-16480087D01*
X-23640170Y-16480087D01*
X-23721973Y-16497475D01*
X-23810233Y-16516235D01*
X-23816262Y-16518919D01*
X-23816264Y-16518920D01*
X-23969065Y-16586952D01*
X-23969067Y-16586953D01*
X-23975095Y-16589637D01*
X-23980436Y-16593517D01*
X-23980437Y-16593518D01*
X-24115750Y-16691828D01*
X-24115752Y-16691830D01*
X-24121094Y-16695711D01*
X-24125515Y-16700621D01*
X-24125516Y-16700622D01*
X-24227642Y-16814045D01*
X-24241848Y-16829822D01*
X-24285017Y-16904592D01*
X-24320413Y-16965901D01*
X-24332080Y-16986108D01*
X-24336141Y-16998606D01*
X-24380767Y-17135954D01*
X-24387846Y-17157740D01*
X-24388536Y-17164303D01*
X-24388536Y-17164304D01*
X-24394056Y-17216822D01*
X-24421070Y-17282479D01*
X-24430271Y-17292746D01*
X-26889336Y-19751810D01*
X-26951648Y-19785836D01*
X-26978431Y-19788715D01*
X-34718321Y-19788715D01*
X-34786442Y-19768713D01*
X-34792382Y-19764651D01*
X-34876524Y-19703518D01*
X-34876525Y-19703517D01*
X-34881866Y-19699637D01*
X-34887894Y-19696953D01*
X-34887896Y-19696952D01*
X-35040698Y-19628920D01*
X-35040700Y-19628920D01*
X-35046729Y-19626235D01*
X-35134989Y-19607475D01*
X-35216792Y-19590087D01*
X-35216796Y-19590087D01*
X-35223249Y-19588715D01*
X-35403713Y-19588715D01*
X-35410166Y-19590087D01*
X-35410170Y-19590087D01*
X-35491973Y-19607475D01*
X-35580233Y-19626235D01*
X-35586262Y-19628919D01*
X-35586264Y-19628920D01*
X-35739065Y-19696952D01*
X-35739067Y-19696953D01*
X-35745095Y-19699637D01*
X-35750436Y-19703517D01*
X-35750437Y-19703518D01*
X-35885750Y-19801828D01*
X-35885752Y-19801830D01*
X-35891094Y-19805711D01*
X-35895515Y-19810621D01*
X-35895516Y-19810622D01*
X-36001231Y-19928031D01*
X-36011848Y-19939822D01*
X-36039258Y-19987298D01*
X-36088607Y-20072773D01*
X-36102080Y-20096108D01*
X-36104122Y-20102393D01*
X-36150688Y-20245711D01*
X-36157846Y-20267740D01*
X-36176710Y-20447215D01*
X-43062607Y-20447215D01*
X-43063308Y-15904928D01*
X-43064976Y-5095059D01*
X-43064097Y-5080186D01*
X-43063582Y-5075855D01*
X-43059901Y-5044849D01*
X-43061879Y-5033064D01*
X-43063419Y-5005114D01*
X-43063104Y-4999527D01*
X-43055802Y-4869978D01*
X-43052347Y-4846940D01*
X-43050574Y-4839745D01*
X-43017392Y-4705020D01*
X-43014715Y-4694151D01*
X-43007075Y-4672139D01*
X-42941952Y-4528887D01*
X-42930389Y-4508659D01*
X-42840008Y-4379855D01*
X-42824923Y-4362106D01*
X-42712359Y-4252134D01*
X-42694272Y-4237474D01*
X-42563383Y-4150109D01*
X-42542900Y-4139026D01*
X-42445483Y-4097451D01*
X-42398167Y-4077258D01*
X-42375984Y-4070133D01*
X-42371622Y-4069166D01*
X-42278544Y-4048529D01*
X-42222359Y-4036072D01*
X-42199243Y-4033154D01*
X-42151095Y-4031564D01*
X-42070913Y-4028917D01*
X-42054622Y-4030397D01*
X-42054583Y-4029854D01*
X-42045631Y-4030498D01*
X-42036859Y-4032405D01*
X-41985932Y-4028812D01*
X-41977066Y-4028500D01*
X-34188902Y-4028554D01*
X-17885618Y-4028668D01*
X-17867109Y-4030035D01*
X-17850024Y-4032573D01*
X-17850019Y-4032573D01*
X-17841145Y-4033891D01*
X-17828549Y-4032154D01*
X-17801191Y-4031382D01*
X-17669488Y-4042028D01*
X-17647740Y-4045723D01*
X-17497902Y-4084946D01*
X-17477126Y-4092383D01*
X-17336436Y-4157144D01*
X-17317279Y-4168090D01*
X-17190043Y-4256407D01*
X-17173086Y-4270529D01*
X-17063217Y-4379683D01*
X-17048983Y-4396549D01*
X-16959840Y-4523205D01*
X-16948768Y-4542293D01*
X-16883089Y-4682558D01*
X-16875518Y-4703283D01*
X-16835318Y-4852864D01*
X-16831482Y-4874581D01*
X-16821273Y-4991385D01*
X-16820561Y-4999527D01*
X-16821113Y-5015781D01*
X-16820668Y-5015787D01*
X-16820782Y-5024765D01*
X-16822168Y-5033633D01*
X-16821009Y-5042531D01*
X-16821009Y-5042534D01*
X-16818035Y-5065364D01*
X-16816980Y-5081638D01*
X-16816980Y-9681546D01*
X-16816982Y-9682316D01*
X-16817456Y-9759890D01*
X-16814989Y-9768521D01*
X-16809330Y-9788322D01*
X-16805752Y-9805084D01*
X-16801560Y-9834356D01*
X-16797846Y-9842524D01*
X-16797846Y-9842525D01*
X-16790932Y-9857731D01*
X-16784484Y-9875255D01*
X-16777429Y-9899940D01*
X-16772637Y-9907534D01*
X-16772636Y-9907537D01*
X-16761650Y-9924949D01*
X-16753511Y-9940032D01*
X-16741272Y-9966951D01*
X-16735411Y-9973753D01*
X-16724510Y-9986404D01*
X-16713407Y-10001408D01*
X-16699704Y-10023127D01*
X-16692979Y-10029066D01*
X-16692976Y-10029070D01*
X-16677542Y-10042701D01*
X-16665498Y-10054893D01*
X-16652053Y-10070496D01*
X-16652050Y-10070498D01*
X-16646193Y-10077296D01*
X-16638664Y-10082176D01*
X-16638663Y-10082177D01*
X-16624645Y-10091263D01*
X-16609771Y-10102554D01*
X-16597263Y-10113600D01*
X-16590529Y-10119547D01*
X-16563769Y-10132111D01*
X-16548789Y-10140432D01*
X-16531497Y-10151640D01*
X-16531492Y-10151642D01*
X-16523965Y-10156521D01*
X-16515372Y-10159091D01*
X-16515367Y-10159093D01*
X-16499360Y-10163880D01*
X-16481916Y-10170541D01*
X-16466804Y-10177636D01*
X-16466802Y-10177637D01*
X-16458680Y-10181450D01*
X-16449813Y-10182831D01*
X-16449812Y-10182831D01*
X-16440170Y-10184332D01*
X-16429463Y-10185999D01*
X-16412748Y-10189782D01*
X-16393014Y-10195684D01*
X-16393008Y-10195685D01*
X-16384414Y-10198255D01*
X-16375443Y-10198310D01*
X-16375442Y-10198310D01*
X-16365383Y-10198371D01*
X-16349974Y-10198465D01*
X-16349191Y-10198498D01*
X-16348094Y-10198669D01*
X-16317103Y-10198669D01*
X-16316333Y-10198671D01*
X-16242695Y-10199121D01*
X-16242694Y-10199121D01*
X-16238759Y-10199145D01*
X-16237415Y-10198761D01*
X-16236070Y-10198669D01*
X-13648993Y-10198669D01*
X-13580872Y-10218671D01*
X-13534379Y-10272327D01*
X-13522993Y-10324859D01*
X-13523327Y-10545356D01*
X-13523601Y-10725860D01*
X-13543706Y-10793950D01*
X-13597433Y-10840362D01*
X-13649601Y-10851669D01*
X-16249857Y-10851669D01*
X-16250627Y-10851667D01*
X-16251443Y-10851662D01*
X-16328201Y-10851193D01*
X-16350562Y-10857584D01*
X-16356633Y-10859319D01*
X-16373395Y-10862897D01*
X-16402667Y-10867089D01*
X-16410835Y-10870803D01*
X-16410836Y-10870803D01*
X-16426042Y-10877717D01*
X-16443566Y-10884165D01*
X-16468251Y-10891220D01*
X-16475845Y-10896012D01*
X-16475848Y-10896013D01*
X-16493260Y-10906999D01*
X-16508343Y-10915138D01*
X-16535262Y-10927377D01*
X-16542064Y-10933238D01*
X-16554715Y-10944139D01*
X-16569719Y-10955242D01*
X-16591438Y-10968945D01*
X-16597377Y-10975670D01*
X-16597381Y-10975673D01*
X-16611012Y-10991107D01*
X-16623204Y-11003151D01*
X-16638807Y-11016596D01*
X-16638809Y-11016599D01*
X-16645607Y-11022456D01*
X-16650487Y-11029985D01*
X-16650488Y-11029986D01*
X-16659574Y-11044004D01*
X-16670865Y-11058878D01*
X-16676913Y-11065727D01*
X-16687858Y-11078120D01*
X-16697621Y-11098915D01*
X-16700422Y-11104880D01*
X-16708743Y-11119860D01*
X-16719951Y-11137152D01*
X-16719953Y-11137157D01*
X-16724832Y-11144684D01*
X-16727402Y-11153277D01*
X-16727404Y-11153282D01*
X-16732191Y-11169289D01*
X-16738852Y-11186733D01*
X-16745564Y-11201029D01*
X-16749761Y-11209969D01*
X-16754149Y-11238153D01*
X-16754310Y-11239184D01*
X-16758093Y-11255901D01*
X-16763995Y-11275635D01*
X-16763996Y-11275641D01*
X-16766566Y-11284235D01*
X-16766621Y-11293206D01*
X-16766621Y-11293207D01*
X-16766776Y-11318666D01*
X-16766809Y-11319458D01*
X-16766980Y-11320555D01*
X-16766980Y-11351546D01*
X-16766982Y-11352316D01*
X-16767310Y-11406077D01*
X-16767456Y-11429890D01*
X-16767072Y-11431234D01*
X-16766980Y-11432579D01*
X-16766980Y-15311546D01*
X-16766982Y-15312316D01*
X-16767456Y-15389890D01*
X-16764989Y-15398521D01*
X-16759330Y-15418322D01*
X-16755752Y-15435084D01*
X-16751560Y-15464356D01*
X-16747846Y-15472524D01*
X-16747846Y-15472525D01*
X-16740932Y-15487731D01*
X-16734484Y-15505255D01*
X-16727429Y-15529940D01*
X-16722637Y-15537534D01*
X-16722636Y-15537537D01*
X-16711650Y-15554949D01*
X-16703511Y-15570032D01*
X-16691272Y-15596951D01*
X-16685411Y-15603753D01*
X-16674510Y-15616404D01*
X-16663407Y-15631408D01*
X-16649704Y-15653127D01*
X-16642979Y-15659066D01*
X-16642976Y-15659070D01*
X-16627542Y-15672701D01*
X-16615498Y-15684893D01*
X-16602053Y-15700496D01*
X-16602050Y-15700498D01*
X-16596193Y-15707296D01*
X-16588664Y-15712176D01*
X-16588663Y-15712177D01*
X-16574645Y-15721263D01*
X-16559771Y-15732554D01*
X-16547263Y-15743600D01*
X-16540529Y-15749547D01*
X-16513769Y-15762111D01*
X-16498789Y-15770432D01*
X-16481497Y-15781640D01*
X-16481492Y-15781642D01*
X-16473965Y-15786521D01*
X-16465372Y-15789091D01*
X-16465367Y-15789093D01*
X-16449360Y-15793880D01*
X-16431916Y-15800541D01*
X-16416804Y-15807636D01*
X-16416802Y-15807637D01*
X-16408680Y-15811450D01*
X-16399813Y-15812831D01*
X-16399812Y-15812831D01*
X-16397127Y-15813249D01*
X-16379463Y-15815999D01*
X-16362748Y-15819782D01*
X-16343014Y-15825684D01*
X-16343008Y-15825685D01*
X-16334414Y-15828255D01*
X-16325443Y-15828310D01*
X-16325442Y-15828310D01*
X-16315383Y-15828371D01*
X-16299974Y-15828465D01*
X-16299191Y-15828498D01*
X-16298094Y-15828669D01*
X-16267103Y-15828669D01*
X-16266333Y-15828671D01*
X-16192695Y-15829121D01*
X-16192694Y-15829121D01*
X-16188759Y-15829145D01*
X-16187415Y-15828761D01*
X-16186070Y-15828669D01*
X-13527103Y-15828669D01*
X-13526332Y-15828671D01*
X-13448759Y-15829145D01*
X-13420328Y-15821019D01*
X-13403565Y-15817441D01*
X-13402727Y-15817321D01*
X-13374293Y-15813249D01*
X-13350916Y-15802620D01*
X-13333393Y-15796173D01*
X-13332459Y-15795906D01*
X-13308709Y-15789118D01*
X-13301115Y-15784326D01*
X-13301112Y-15784325D01*
X-13283700Y-15773339D01*
X-13268615Y-15765199D01*
X-13241698Y-15752961D01*
X-13222245Y-15736199D01*
X-13207241Y-15725096D01*
X-13185522Y-15711393D01*
X-13179583Y-15704668D01*
X-13179579Y-15704665D01*
X-13165948Y-15689231D01*
X-13153756Y-15677187D01*
X-13138153Y-15663742D01*
X-13138151Y-15663739D01*
X-13131353Y-15657882D01*
X-13117386Y-15636334D01*
X-13106095Y-15621460D01*
X-13095049Y-15608952D01*
X-13095048Y-15608951D01*
X-13089102Y-15602218D01*
X-13076537Y-15575456D01*
X-13068217Y-15560478D01*
X-13057009Y-15543186D01*
X-13057007Y-15543181D01*
X-13052128Y-15535654D01*
X-13049558Y-15527061D01*
X-13049556Y-15527056D01*
X-13044769Y-15511049D01*
X-13038108Y-15493605D01*
X-13031013Y-15478493D01*
X-13031012Y-15478491D01*
X-13027199Y-15470369D01*
X-13022650Y-15441152D01*
X-13018867Y-15424437D01*
X-13012965Y-15404703D01*
X-13012964Y-15404697D01*
X-13010394Y-15396103D01*
X-13010184Y-15361663D01*
X-13010151Y-15360880D01*
X-13009980Y-15359783D01*
X-13009980Y-15328792D01*
X-13009978Y-15328022D01*
X-13009528Y-15254384D01*
X-13009528Y-15254383D01*
X-13009504Y-15250448D01*
X-13009888Y-15249104D01*
X-13009980Y-15247759D01*
X-13009980Y-13235100D01*
X-8275481Y-13235100D01*
X-8271006Y-13250339D01*
X-8269616Y-13251544D01*
X-8261933Y-13253215D01*
X-7239596Y-13253215D01*
X-7224357Y-13248740D01*
X-7223152Y-13247350D01*
X-7221481Y-13239667D01*
X-7221481Y-12267331D01*
X-7225956Y-12252092D01*
X-7227346Y-12250887D01*
X-7235029Y-12249216D01*
X-7812150Y-12249216D01*
X-7818971Y-12249586D01*
X-7869833Y-12255110D01*
X-7885085Y-12258736D01*
X-8005535Y-12303891D01*
X-8021130Y-12312429D01*
X-8123205Y-12388930D01*
X-8135766Y-12401491D01*
X-8212267Y-12503566D01*
X-8220805Y-12519161D01*
X-8265959Y-12639609D01*
X-8269586Y-12654864D01*
X-8275112Y-12705729D01*
X-8275481Y-12712543D01*
X-8275481Y-13235100D01*
X-13009980Y-13235100D01*
X-13009980Y-12489900D01*
X-12989978Y-12421779D01*
X-12936322Y-12375286D01*
X-12883966Y-12363900D01*
X-9616588Y-12364261D01*
X-9598471Y-12364263D01*
X-9598475Y-6468761D01*
X-9578473Y-6400640D01*
X-9524817Y-6354147D01*
X-9472475Y-6342761D01*
X-4528787Y-6342761D01*
X-4460666Y-6362763D01*
X-4414173Y-6416419D01*
X-4404069Y-6486693D01*
X-4422876Y-6537017D01*
X-4507177Y-6667825D01*
X-4565378Y-6827731D01*
X-4586706Y-6996558D01*
X-4585562Y-7008222D01*
X-4583962Y-7024548D01*
X-4597222Y-7094295D01*
X-4643339Y-7144160D01*
X-4737416Y-7202036D01*
X-4737418Y-7202038D01*
X-4743415Y-7205727D01*
X-4748448Y-7210656D01*
X-4848602Y-7308735D01*
X-4864995Y-7324788D01*
X-4868806Y-7330702D01*
X-4868808Y-7330704D01*
X-4900295Y-7379562D01*
X-4957177Y-7467825D01*
X-4967031Y-7494900D01*
X-5011055Y-7615855D01*
X-5015378Y-7627731D01*
X-5036706Y-7796558D01*
X-5020100Y-7965914D01*
X-4966387Y-8127382D01*
X-4880204Y-8269686D01*
X-4861981Y-8334956D01*
X-4861981Y-12615844D01*
X-4881983Y-12683965D01*
X-4935639Y-12730458D01*
X-4947376Y-12735122D01*
X-5056264Y-12772190D01*
X-5127196Y-12775208D01*
X-5170930Y-12754848D01*
X-5186524Y-12743518D01*
X-5186525Y-12743517D01*
X-5191866Y-12739637D01*
X-5197894Y-12736953D01*
X-5197896Y-12736952D01*
X-5350698Y-12668920D01*
X-5350700Y-12668920D01*
X-5356729Y-12666235D01*
X-5444989Y-12647475D01*
X-5526792Y-12630087D01*
X-5526796Y-12630087D01*
X-5533249Y-12628715D01*
X-5585760Y-12628715D01*
X-5653881Y-12608713D01*
X-5700374Y-12555057D01*
X-5703742Y-12546943D01*
X-5714158Y-12519158D01*
X-5722691Y-12503571D01*
X-5799196Y-12401491D01*
X-5811757Y-12388930D01*
X-5913832Y-12312429D01*
X-5929427Y-12303891D01*
X-6049875Y-12258737D01*
X-6065130Y-12255110D01*
X-6115995Y-12249584D01*
X-6122809Y-12249215D01*
X-6695366Y-12249215D01*
X-6710605Y-12253690D01*
X-6711810Y-12255080D01*
X-6713481Y-12262763D01*
X-6713481Y-14747099D01*
X-6709006Y-14762338D01*
X-6707616Y-14763543D01*
X-6699933Y-14765214D01*
X-6122812Y-14765214D01*
X-6115993Y-14764845D01*
X-6094950Y-14762559D01*
X-6025067Y-14775088D01*
X-5973052Y-14823410D01*
X-5955419Y-14892182D01*
X-5972225Y-14950822D01*
X-5988205Y-14978500D01*
X-6039588Y-15027493D01*
X-6097324Y-15041500D01*
X-9490591Y-15041500D01*
X-9558712Y-15021498D01*
X-9605205Y-14967842D01*
X-9616529Y-14919458D01*
X-9616931Y-14906666D01*
X-9617180Y-14898741D01*
X-9623162Y-14878151D01*
X-9627172Y-14858788D01*
X-9628867Y-14845368D01*
X-9628867Y-14845367D01*
X-9629860Y-14837508D01*
X-9632776Y-14830143D01*
X-9632777Y-14830139D01*
X-9646866Y-14794554D01*
X-9650711Y-14783325D01*
X-9655669Y-14766260D01*
X-9663597Y-14738971D01*
X-9674512Y-14720515D01*
X-9683211Y-14702759D01*
X-9688190Y-14690183D01*
X-9688191Y-14690182D01*
X-9691107Y-14682816D01*
X-9695764Y-14676406D01*
X-9699250Y-14670065D01*
X-9714145Y-14622536D01*
X-9723463Y-14533885D01*
X-9723463Y-14533884D01*
X-9724153Y-14527321D01*
X-9779919Y-14355689D01*
X-9810506Y-14302710D01*
X-9810983Y-14301884D01*
X-8275480Y-14301884D01*
X-8275110Y-14308705D01*
X-8269586Y-14359567D01*
X-8265960Y-14374819D01*
X-8220805Y-14495269D01*
X-8212267Y-14510864D01*
X-8135766Y-14612939D01*
X-8123205Y-14625500D01*
X-8021130Y-14702001D01*
X-8005535Y-14710539D01*
X-7885087Y-14755693D01*
X-7869832Y-14759320D01*
X-7818967Y-14764846D01*
X-7812153Y-14765215D01*
X-7239596Y-14765215D01*
X-7224357Y-14760740D01*
X-7223152Y-14759350D01*
X-7221481Y-14751667D01*
X-7221481Y-13779330D01*
X-7225956Y-13764091D01*
X-7227346Y-13762886D01*
X-7235029Y-13761215D01*
X-8257365Y-13761215D01*
X-8272604Y-13765690D01*
X-8273809Y-13767080D01*
X-8275480Y-13774763D01*
X-8275480Y-14301884D01*
X-9810983Y-14301884D01*
X-9866850Y-14205121D01*
X-9870151Y-14199403D01*
X-9990905Y-14065292D01*
X-10105068Y-13982347D01*
X-10131561Y-13963099D01*
X-10131562Y-13963098D01*
X-10136903Y-13959218D01*
X-10142931Y-13956534D01*
X-10142933Y-13956533D01*
X-10295735Y-13888501D01*
X-10295737Y-13888501D01*
X-10301766Y-13885816D01*
X-10390026Y-13867056D01*
X-10471829Y-13849668D01*
X-10471833Y-13849668D01*
X-10478286Y-13848296D01*
X-10658750Y-13848296D01*
X-10665203Y-13849668D01*
X-10665207Y-13849668D01*
X-10747010Y-13867056D01*
X-10835270Y-13885816D01*
X-10841299Y-13888500D01*
X-10841301Y-13888501D01*
X-10994102Y-13956533D01*
X-10994104Y-13956534D01*
X-11000132Y-13959218D01*
X-11005473Y-13963098D01*
X-11005474Y-13963099D01*
X-11140787Y-14061409D01*
X-11140789Y-14061411D01*
X-11146131Y-14065292D01*
X-11266885Y-14199403D01*
X-11270186Y-14205121D01*
X-11326529Y-14302710D01*
X-11357117Y-14355689D01*
X-11412883Y-14527321D01*
X-11431747Y-14706796D01*
X-11431057Y-14713361D01*
X-11422924Y-14790735D01*
X-11412883Y-14886271D01*
X-11357117Y-15057903D01*
X-11266885Y-15214189D01*
X-11262467Y-15219096D01*
X-11262466Y-15219097D01*
X-11164095Y-15328349D01*
X-11146131Y-15348300D01*
X-11140789Y-15352181D01*
X-11140787Y-15352183D01*
X-11005478Y-15450491D01*
X-11005475Y-15450492D01*
X-11000133Y-15454374D01*
X-10994211Y-15457011D01*
X-10945249Y-15508359D01*
X-10931242Y-15566097D01*
X-10931242Y-15617944D01*
X-10931801Y-15629800D01*
X-10933530Y-15637537D01*
X-10933281Y-15645459D01*
X-10931304Y-15708369D01*
X-10931242Y-15712327D01*
X-10931242Y-15741432D01*
X-10930686Y-15745832D01*
X-10929754Y-15757664D01*
X-10928304Y-15803831D01*
X-10926092Y-15811444D01*
X-10926092Y-15811445D01*
X-10922323Y-15824416D01*
X-10918309Y-15843806D01*
X-10917971Y-15846486D01*
X-10916981Y-15862252D01*
X-10916981Y-17769311D01*
X-10936983Y-17837432D01*
X-10953886Y-17858406D01*
X-12317290Y-19221810D01*
X-12379602Y-19255836D01*
X-12406385Y-19258715D01*
X-12533713Y-19258715D01*
X-12540166Y-19260087D01*
X-12540170Y-19260087D01*
X-12621973Y-19277475D01*
X-12710233Y-19296235D01*
X-12716262Y-19298919D01*
X-12716264Y-19298920D01*
X-12832731Y-19350775D01*
X-12903098Y-19360209D01*
X-12967395Y-19330103D01*
X-13005208Y-19270014D01*
X-13009980Y-19235668D01*
X-13009980Y-17078729D01*
X-13009978Y-17077958D01*
X-13009877Y-17061546D01*
X-13009504Y-17000448D01*
X-13017630Y-16972016D01*
X-13021208Y-16955254D01*
X-13022915Y-16943333D01*
X-13025400Y-16925982D01*
X-13036029Y-16902605D01*
X-13042476Y-16885082D01*
X-13044132Y-16879289D01*
X-13049531Y-16860398D01*
X-13055344Y-16851185D01*
X-13065310Y-16835389D01*
X-13073450Y-16820304D01*
X-13076296Y-16814045D01*
X-13085688Y-16793387D01*
X-13102450Y-16773934D01*
X-13113553Y-16758930D01*
X-13127256Y-16737211D01*
X-13133981Y-16731272D01*
X-13133984Y-16731268D01*
X-13149418Y-16717637D01*
X-13161462Y-16705445D01*
X-13174907Y-16689842D01*
X-13174910Y-16689840D01*
X-13180767Y-16683042D01*
X-13194471Y-16674159D01*
X-13202315Y-16669075D01*
X-13217189Y-16657784D01*
X-13229697Y-16646738D01*
X-13229698Y-16646737D01*
X-13236431Y-16640791D01*
X-13263193Y-16628226D01*
X-13278171Y-16619906D01*
X-13295463Y-16608698D01*
X-13295468Y-16608696D01*
X-13302995Y-16603817D01*
X-13311588Y-16601247D01*
X-13311593Y-16601245D01*
X-13327600Y-16596458D01*
X-13345044Y-16589797D01*
X-13360156Y-16582702D01*
X-13360158Y-16582701D01*
X-13368280Y-16578888D01*
X-13377147Y-16577507D01*
X-13377148Y-16577507D01*
X-13388002Y-16575817D01*
X-13397497Y-16574339D01*
X-13414212Y-16570556D01*
X-13433946Y-16564654D01*
X-13433952Y-16564653D01*
X-13442546Y-16562083D01*
X-13451517Y-16562028D01*
X-13451518Y-16562028D01*
X-13461577Y-16561967D01*
X-13476986Y-16561873D01*
X-13477769Y-16561840D01*
X-13478866Y-16561669D01*
X-13509857Y-16561669D01*
X-13510627Y-16561667D01*
X-13584265Y-16561217D01*
X-13584266Y-16561217D01*
X-13588201Y-16561193D01*
X-13589545Y-16561577D01*
X-13590890Y-16561669D01*
X-16249857Y-16561669D01*
X-16250627Y-16561667D01*
X-16251443Y-16561662D01*
X-16328201Y-16561193D01*
X-16348561Y-16567012D01*
X-16356633Y-16569319D01*
X-16373395Y-16572897D01*
X-16402667Y-16577089D01*
X-16410835Y-16580803D01*
X-16410836Y-16580803D01*
X-16426042Y-16587717D01*
X-16443566Y-16594165D01*
X-16468251Y-16601220D01*
X-16475845Y-16606012D01*
X-16475848Y-16606013D01*
X-16493260Y-16616999D01*
X-16508343Y-16625138D01*
X-16535262Y-16637377D01*
X-16542064Y-16643238D01*
X-16554715Y-16654139D01*
X-16569719Y-16665242D01*
X-16591438Y-16678945D01*
X-16597377Y-16685670D01*
X-16597381Y-16685673D01*
X-16611012Y-16701107D01*
X-16623204Y-16713151D01*
X-16638807Y-16726596D01*
X-16638809Y-16726599D01*
X-16645607Y-16732456D01*
X-16650487Y-16739985D01*
X-16650488Y-16739986D01*
X-16659574Y-16754004D01*
X-16670865Y-16768878D01*
X-16677096Y-16775934D01*
X-16687858Y-16788120D01*
X-16699420Y-16812746D01*
X-16700422Y-16814880D01*
X-16708743Y-16829860D01*
X-16719951Y-16847152D01*
X-16719953Y-16847157D01*
X-16724832Y-16854684D01*
X-16727402Y-16863277D01*
X-16727404Y-16863282D01*
X-16732191Y-16879289D01*
X-16738852Y-16896733D01*
X-16744610Y-16908997D01*
X-16749761Y-16919969D01*
X-16751142Y-16928836D01*
X-16751142Y-16928837D01*
X-16754310Y-16949184D01*
X-16758093Y-16965901D01*
X-16763995Y-16985635D01*
X-16763996Y-16985641D01*
X-16766566Y-16994235D01*
X-16766765Y-17026906D01*
X-16766776Y-17028666D01*
X-16766809Y-17029458D01*
X-16766980Y-17030555D01*
X-16766980Y-17061546D01*
X-16766982Y-17062316D01*
X-16767456Y-17139890D01*
X-16767072Y-17141234D01*
X-16766980Y-17142579D01*
X-16766980Y-21021546D01*
X-16766982Y-21022316D01*
X-16767456Y-21099890D01*
X-16764989Y-21108521D01*
X-16759330Y-21128322D01*
X-16755752Y-21145084D01*
X-16751560Y-21174356D01*
X-16747846Y-21182524D01*
X-16747846Y-21182525D01*
X-16740932Y-21197731D01*
X-16734484Y-21215255D01*
X-16727429Y-21239940D01*
X-16722637Y-21247534D01*
X-16722636Y-21247537D01*
X-16711650Y-21264949D01*
X-16703511Y-21280032D01*
X-16691272Y-21306951D01*
X-16685411Y-21313753D01*
X-16674510Y-21326404D01*
X-16663407Y-21341408D01*
X-16649704Y-21363127D01*
X-16642979Y-21369066D01*
X-16642976Y-21369070D01*
X-16627542Y-21382701D01*
X-16615498Y-21394893D01*
X-16602053Y-21410496D01*
X-16602050Y-21410498D01*
X-16596193Y-21417296D01*
X-16588664Y-21422176D01*
X-16588663Y-21422177D01*
X-16574645Y-21431263D01*
X-16559771Y-21442554D01*
X-16547263Y-21453600D01*
X-16540529Y-21459547D01*
X-16513769Y-21472111D01*
X-16498789Y-21480432D01*
X-16481497Y-21491640D01*
X-16481492Y-21491642D01*
X-16473965Y-21496521D01*
X-16465372Y-21499091D01*
X-16465367Y-21499093D01*
X-16449360Y-21503880D01*
X-16431916Y-21510541D01*
X-16416804Y-21517636D01*
X-16416802Y-21517637D01*
X-16408680Y-21521450D01*
X-16399813Y-21522831D01*
X-16399812Y-21522831D01*
X-16395836Y-21523450D01*
X-16379463Y-21525999D01*
X-16362748Y-21529782D01*
X-16343014Y-21535684D01*
X-16343008Y-21535685D01*
X-16334414Y-21538255D01*
X-16325443Y-21538310D01*
X-16325442Y-21538310D01*
X-16315383Y-21538371D01*
X-16299974Y-21538465D01*
X-16299191Y-21538498D01*
X-16298094Y-21538669D01*
X-16267103Y-21538669D01*
X-16266333Y-21538671D01*
X-16192695Y-21539121D01*
X-16192694Y-21539121D01*
X-16188759Y-21539145D01*
X-16187415Y-21538761D01*
X-16186070Y-21538669D01*
X-13527103Y-21538669D01*
X-13526332Y-21538671D01*
X-13448759Y-21539145D01*
X-13420328Y-21531019D01*
X-13403565Y-21527441D01*
X-13402727Y-21527321D01*
X-13374293Y-21523249D01*
X-13361305Y-21517344D01*
X-13350918Y-21512621D01*
X-13333393Y-21506173D01*
X-13308709Y-21499118D01*
X-13301115Y-21494326D01*
X-13301112Y-21494325D01*
X-13283700Y-21483339D01*
X-13268615Y-21475199D01*
X-13241698Y-21462961D01*
X-13222245Y-21446199D01*
X-13207241Y-21435096D01*
X-13185522Y-21421393D01*
X-13179583Y-21414668D01*
X-13179579Y-21414665D01*
X-13165948Y-21399231D01*
X-13153756Y-21387187D01*
X-13138153Y-21373742D01*
X-13138151Y-21373739D01*
X-13131353Y-21367882D01*
X-13118595Y-21348200D01*
X-13117386Y-21346334D01*
X-13106095Y-21331460D01*
X-13095049Y-21318952D01*
X-13095048Y-21318951D01*
X-13089102Y-21312218D01*
X-13076537Y-21285456D01*
X-13068218Y-21270479D01*
X-13054215Y-21248874D01*
X-13000380Y-21202589D01*
X-12930067Y-21192757D01*
X-12865601Y-21222499D01*
X-12827449Y-21282373D01*
X-12822481Y-21317404D01*
X-12822481Y-22444427D01*
X-12842483Y-22512548D01*
X-12896139Y-22559041D01*
X-12966413Y-22569145D01*
X-13030993Y-22539651D01*
X-13055043Y-22511662D01*
X-13065311Y-22495388D01*
X-13073450Y-22480304D01*
X-13085688Y-22453387D01*
X-13093408Y-22444427D01*
X-13102450Y-22433934D01*
X-13113553Y-22418930D01*
X-13127256Y-22397211D01*
X-13133981Y-22391272D01*
X-13133984Y-22391268D01*
X-13149418Y-22377637D01*
X-13161462Y-22365445D01*
X-13174907Y-22349842D01*
X-13174910Y-22349840D01*
X-13180767Y-22343042D01*
X-13194471Y-22334159D01*
X-13202315Y-22329075D01*
X-13217189Y-22317784D01*
X-13229697Y-22306738D01*
X-13229698Y-22306737D01*
X-13236431Y-22300791D01*
X-13263193Y-22288226D01*
X-13278171Y-22279906D01*
X-13295463Y-22268698D01*
X-13295468Y-22268696D01*
X-13302995Y-22263817D01*
X-13311588Y-22261247D01*
X-13311593Y-22261245D01*
X-13327600Y-22256458D01*
X-13345044Y-22249797D01*
X-13360156Y-22242702D01*
X-13360158Y-22242701D01*
X-13368280Y-22238888D01*
X-13377147Y-22237507D01*
X-13377148Y-22237507D01*
X-13388002Y-22235817D01*
X-13397497Y-22234339D01*
X-13414212Y-22230556D01*
X-13433946Y-22224654D01*
X-13433952Y-22224653D01*
X-13442546Y-22222083D01*
X-13451517Y-22222028D01*
X-13451518Y-22222028D01*
X-13461577Y-22221967D01*
X-13476986Y-22221873D01*
X-13477769Y-22221840D01*
X-13478866Y-22221669D01*
X-13509857Y-22221669D01*
X-13510627Y-22221667D01*
X-13584265Y-22221217D01*
X-13584266Y-22221217D01*
X-13588201Y-22221193D01*
X-13589545Y-22221577D01*
X-13590890Y-22221669D01*
X-16249857Y-22221669D01*
X-16250627Y-22221667D01*
X-16251443Y-22221662D01*
X-16328201Y-22221193D01*
X-16350562Y-22227584D01*
X-16356633Y-22229319D01*
X-16373395Y-22232897D01*
X-16402667Y-22237089D01*
X-16410835Y-22240803D01*
X-16410836Y-22240803D01*
X-16426042Y-22247717D01*
X-16443566Y-22254165D01*
X-16468251Y-22261220D01*
X-16475845Y-22266012D01*
X-16475848Y-22266013D01*
X-16493260Y-22276999D01*
X-16508343Y-22285138D01*
X-16535262Y-22297377D01*
X-16542064Y-22303238D01*
X-16554715Y-22314139D01*
X-16569719Y-22325242D01*
X-16591438Y-22338945D01*
X-16597377Y-22345670D01*
X-16597381Y-22345673D01*
X-16611012Y-22361107D01*
X-16623204Y-22373151D01*
X-16638807Y-22386596D01*
X-16638809Y-22386599D01*
X-16645607Y-22392456D01*
X-16650487Y-22399985D01*
X-16650488Y-22399986D01*
X-16659574Y-22414004D01*
X-16670865Y-22428878D01*
X-16681704Y-22441152D01*
X-16687858Y-22448120D01*
X-16697621Y-22468915D01*
X-16700422Y-22474880D01*
X-16708743Y-22489860D01*
X-16719951Y-22507152D01*
X-16719953Y-22507157D01*
X-16724832Y-22514684D01*
X-16727402Y-22523277D01*
X-16727404Y-22523282D01*
X-16732191Y-22539289D01*
X-16738852Y-22556733D01*
X-16744385Y-22568518D01*
X-16749761Y-22579969D01*
X-16754149Y-22608153D01*
X-16754310Y-22609184D01*
X-16758093Y-22625901D01*
X-16763995Y-22645635D01*
X-16763996Y-22645641D01*
X-16766566Y-22654235D01*
X-16766621Y-22663206D01*
X-16766621Y-22663207D01*
X-16766776Y-22688666D01*
X-16766809Y-22689458D01*
X-16766980Y-22690555D01*
X-16766980Y-22721546D01*
X-16766982Y-22722316D01*
X-16767360Y-22784255D01*
X-16767456Y-22799890D01*
X-16767072Y-22801234D01*
X-16766980Y-22802579D01*
X-16766980Y-26681546D01*
X-16766982Y-26682316D01*
X-16767456Y-26759890D01*
X-16764989Y-26768521D01*
X-16759330Y-26788322D01*
X-16755752Y-26805084D01*
X-16751560Y-26834356D01*
X-16747846Y-26842524D01*
X-16747846Y-26842525D01*
X-16740932Y-26857731D01*
X-16734484Y-26875255D01*
X-16727429Y-26899940D01*
X-16722637Y-26907534D01*
X-16722636Y-26907537D01*
X-16711650Y-26924949D01*
X-16703511Y-26940032D01*
X-16691272Y-26966951D01*
X-16685411Y-26973753D01*
X-16674510Y-26986404D01*
X-16663407Y-27001408D01*
X-16649704Y-27023127D01*
X-16642979Y-27029066D01*
X-16642976Y-27029070D01*
X-16627542Y-27042701D01*
X-16615498Y-27054893D01*
X-16602053Y-27070496D01*
X-16602050Y-27070498D01*
X-16596193Y-27077296D01*
X-16588664Y-27082176D01*
X-16588663Y-27082177D01*
X-16574645Y-27091263D01*
X-16559771Y-27102554D01*
X-16547263Y-27113600D01*
X-16540529Y-27119547D01*
X-16515526Y-27131286D01*
X-16513769Y-27132111D01*
X-16498789Y-27140432D01*
X-16481497Y-27151640D01*
X-16481492Y-27151642D01*
X-16473965Y-27156521D01*
X-16465372Y-27159091D01*
X-16465367Y-27159093D01*
X-16449360Y-27163880D01*
X-16431916Y-27170541D01*
X-16416804Y-27177636D01*
X-16416802Y-27177637D01*
X-16408680Y-27181450D01*
X-16399813Y-27182831D01*
X-16399812Y-27182831D01*
X-16397127Y-27183249D01*
X-16379463Y-27185999D01*
X-16362748Y-27189782D01*
X-16343014Y-27195684D01*
X-16343008Y-27195685D01*
X-16334414Y-27198255D01*
X-16325443Y-27198310D01*
X-16325442Y-27198310D01*
X-16315383Y-27198371D01*
X-16299974Y-27198465D01*
X-16299191Y-27198498D01*
X-16298094Y-27198669D01*
X-16267103Y-27198669D01*
X-16266333Y-27198671D01*
X-16192695Y-27199121D01*
X-16192694Y-27199121D01*
X-16188759Y-27199145D01*
X-16187415Y-27198761D01*
X-16186070Y-27198669D01*
X-13527103Y-27198669D01*
X-13526332Y-27198671D01*
X-13448759Y-27199145D01*
X-13420328Y-27191019D01*
X-13403565Y-27187441D01*
X-13402727Y-27187321D01*
X-13374293Y-27183249D01*
X-13350916Y-27172620D01*
X-13333393Y-27166173D01*
X-13308709Y-27159118D01*
X-13301115Y-27154326D01*
X-13301112Y-27154325D01*
X-13283700Y-27143339D01*
X-13268615Y-27135199D01*
X-13241698Y-27122961D01*
X-13222245Y-27106199D01*
X-13207241Y-27095096D01*
X-13185522Y-27081393D01*
X-13179583Y-27074668D01*
X-13179579Y-27074665D01*
X-13165948Y-27059231D01*
X-13153756Y-27047187D01*
X-13138153Y-27033742D01*
X-13138151Y-27033739D01*
X-13131353Y-27027882D01*
X-13117386Y-27006334D01*
X-13106095Y-26991460D01*
X-13095049Y-26978952D01*
X-13095048Y-26978951D01*
X-13089102Y-26972218D01*
X-13076537Y-26945456D01*
X-13068217Y-26930478D01*
X-13057009Y-26913186D01*
X-13057007Y-26913181D01*
X-13052128Y-26905654D01*
X-13049558Y-26897061D01*
X-13049556Y-26897056D01*
X-13044769Y-26881049D01*
X-13038108Y-26863605D01*
X-13031013Y-26848493D01*
X-13031012Y-26848491D01*
X-13027199Y-26840369D01*
X-13022650Y-26811152D01*
X-13018867Y-26794437D01*
X-13012965Y-26774703D01*
X-13012964Y-26774697D01*
X-13010394Y-26766103D01*
X-13010184Y-26731663D01*
X-13010151Y-26730880D01*
X-13009980Y-26729783D01*
X-13009980Y-26698792D01*
X-13009978Y-26698022D01*
X-13009528Y-26624384D01*
X-13009528Y-26624383D01*
X-13009504Y-26620448D01*
X-13009888Y-26619104D01*
X-13009980Y-26617759D01*
X-13009980Y-25830049D01*
X-12989978Y-25761928D01*
X-12936322Y-25715435D01*
X-12866048Y-25705331D01*
X-12801468Y-25734825D01*
X-12793343Y-25742522D01*
X-12772167Y-25764450D01*
X-12735526Y-25802393D01*
X-12593135Y-25895571D01*
X-12586531Y-25898027D01*
X-12586529Y-25898028D01*
X-12550137Y-25911562D01*
X-12433640Y-25954887D01*
X-12264966Y-25977393D01*
X-12257955Y-25976755D01*
X-12257951Y-25976755D01*
X-12102519Y-25962609D01*
X-12095498Y-25961970D01*
X-12088796Y-25959792D01*
X-12088794Y-25959792D01*
X-11940358Y-25911562D01*
X-11940355Y-25911561D01*
X-11933659Y-25909385D01*
X-11787491Y-25822251D01*
X-11782397Y-25817400D01*
X-11782393Y-25817397D01*
X-11699544Y-25738500D01*
X-11664260Y-25704900D01*
X-11570090Y-25563163D01*
X-11509662Y-25404086D01*
X-11485980Y-25235574D01*
X-11485762Y-25219993D01*
X-11485724Y-25217278D01*
X-11464770Y-25149444D01*
X-11410470Y-25103706D01*
X-11340061Y-25094587D01*
X-11292088Y-25115191D01*
X-11291407Y-25114011D01*
X-11284259Y-25118138D01*
X-11277705Y-25123167D01*
X-11138195Y-25180954D01*
X-10988481Y-25200664D01*
X-10959076Y-25196793D01*
X-10942631Y-25195715D01*
X-10617432Y-25195715D01*
X-10600985Y-25196793D01*
X-10571582Y-25200664D01*
X-10563394Y-25199586D01*
X-10547518Y-25197496D01*
X-10464427Y-25186557D01*
X-10394278Y-25197496D01*
X-10341180Y-25244625D01*
X-10321981Y-25311479D01*
X-10321981Y-26958411D01*
X-10323059Y-26974857D01*
X-10326930Y-27004261D01*
X-10325852Y-27012449D01*
X-10321981Y-27041853D01*
X-10311752Y-27119547D01*
X-10307220Y-27153975D01*
X-10249433Y-27293485D01*
X-10222010Y-27329223D01*
X-10162535Y-27406733D01*
X-10162532Y-27406736D01*
X-10157506Y-27413286D01*
X-10150951Y-27418316D01*
X-10133971Y-27431346D01*
X-10121580Y-27442213D01*
X-9016429Y-28547364D01*
X-9005562Y-28559755D01*
X-8987506Y-28583286D01*
X-8930902Y-28626720D01*
X-8867705Y-28675213D01*
X-8728195Y-28733000D01*
X-8720007Y-28734078D01*
X-8653338Y-28742855D01*
X-8578481Y-28752710D01*
X-8549076Y-28748839D01*
X-8532631Y-28747761D01*
X-5269027Y-28747761D01*
X-5200906Y-28767763D01*
X-5186515Y-28778536D01*
X-5167135Y-28795329D01*
X-5159452Y-28797000D01*
X-4037000Y-28797000D01*
X-3968879Y-28817002D01*
X-3922386Y-28870658D01*
X-3911000Y-28923000D01*
X-3911000Y-30558924D01*
X-3907027Y-30572455D01*
X-3899232Y-30573575D01*
X-3791479Y-30541862D01*
X-3780111Y-30537269D01*
X-3615846Y-30451393D01*
X-3605585Y-30444679D01*
X-3461127Y-30328532D01*
X-3452367Y-30319954D01*
X-3390711Y-30246475D01*
X-3331601Y-30207148D01*
X-3260613Y-30206022D01*
X-3217660Y-30227370D01*
X-3169743Y-30264006D01*
X-3169739Y-30264009D01*
X-3164322Y-30268150D01*
X-3074718Y-30309933D01*
X-3006369Y-30341805D01*
X-3006366Y-30341806D01*
X-3000192Y-30344685D01*
X-2993544Y-30346171D01*
X-2993541Y-30346172D01*
X-2887579Y-30369857D01*
X-2823457Y-30384190D01*
X-2817912Y-30384500D01*
X-2684756Y-30384500D01*
X-2549963Y-30369857D01*
X-2401680Y-30319954D01*
X-2384796Y-30314272D01*
X-2384794Y-30314271D01*
X-2378325Y-30312094D01*
X-2223095Y-30218823D01*
X-2218138Y-30214135D01*
X-2218135Y-30214133D01*
X-2096473Y-30099082D01*
X-2096471Y-30099080D01*
X-2091515Y-30094393D01*
X-2087683Y-30088755D01*
X-2087680Y-30088751D01*
X-1993558Y-29950255D01*
X-1989723Y-29944612D01*
X-1922470Y-29776466D01*
X-1921356Y-29769738D01*
X-1921355Y-29769734D01*
X-1894007Y-29604539D01*
X-1894007Y-29604536D01*
X-1892892Y-29597802D01*
X-1893249Y-29590980D01*
X-1902013Y-29423766D01*
X-1902370Y-29416953D01*
X-1905010Y-29407366D01*
X-1912729Y-29379343D01*
X-843225Y-29379343D01*
X-826619Y-29548699D01*
X-772906Y-29710167D01*
X-769259Y-29716189D01*
X-769258Y-29716191D01*
X-755503Y-29738902D01*
X-684754Y-29855723D01*
X-566545Y-29978132D01*
X-424154Y-30071310D01*
X-417550Y-30073766D01*
X-417548Y-30073767D01*
X-381156Y-30087301D01*
X-264659Y-30130626D01*
X-95985Y-30153132D01*
X-88974Y-30152494D01*
X-88970Y-30152494D01*
X66462Y-30138348D01*
X73483Y-30137709D01*
X80185Y-30135531D01*
X80187Y-30135531D01*
X228623Y-30087301D01*
X228626Y-30087300D01*
X235322Y-30085124D01*
X350823Y-30016271D01*
X415341Y-29998500D01*
X427019Y-29998500D01*
X496012Y-30019068D01*
X575846Y-30071310D01*
X582450Y-30073766D01*
X582452Y-30073767D01*
X618844Y-30087301D01*
X735341Y-30130626D01*
X904015Y-30153132D01*
X911026Y-30152494D01*
X911030Y-30152494D01*
X1066462Y-30138348D01*
X1073483Y-30137709D01*
X1080185Y-30135531D01*
X1080187Y-30135531D01*
X1228623Y-30087301D01*
X1228626Y-30087300D01*
X1235322Y-30085124D01*
X1381490Y-29997990D01*
X1386584Y-29993139D01*
X1386588Y-29993136D01*
X1453833Y-29929099D01*
X1504721Y-29880639D01*
X1598891Y-29738902D01*
X1659319Y-29579825D01*
X1669947Y-29504198D01*
X2212892Y-29504198D01*
X2213249Y-29511015D01*
X2213249Y-29511019D01*
X2219406Y-29628500D01*
X2222370Y-29685047D01*
X2224181Y-29691620D01*
X2224181Y-29691623D01*
X2247551Y-29776466D01*
X2270461Y-29859641D01*
X2354922Y-30019836D01*
X2359327Y-30025049D01*
X2359330Y-30025053D01*
X2467406Y-30152943D01*
X2467410Y-30152947D01*
X2471813Y-30158157D01*
X2477237Y-30162304D01*
X2477238Y-30162305D01*
X2610257Y-30264006D01*
X2610261Y-30264009D01*
X2615678Y-30268150D01*
X2705282Y-30309933D01*
X2773631Y-30341805D01*
X2773634Y-30341806D01*
X2779808Y-30344685D01*
X2786456Y-30346171D01*
X2786459Y-30346172D01*
X2892421Y-30369857D01*
X2956543Y-30384190D01*
X2962088Y-30384500D01*
X3095244Y-30384500D01*
X3230037Y-30369857D01*
X3378320Y-30319954D01*
X3395204Y-30314272D01*
X3395206Y-30314271D01*
X3401675Y-30312094D01*
X3551392Y-30222135D01*
X3620083Y-30204196D01*
X3687570Y-30226243D01*
X3713928Y-30250504D01*
X3762393Y-30309928D01*
X3771041Y-30318637D01*
X3913856Y-30436784D01*
X3924027Y-30443644D01*
X4087076Y-30531804D01*
X4098381Y-30536556D01*
X4213692Y-30572250D01*
X4227795Y-30572456D01*
X4231000Y-30565701D01*
X4231000Y-27543076D01*
X4227027Y-27529545D01*
X4219232Y-27528425D01*
X4111479Y-27560138D01*
X4100111Y-27564731D01*
X3935846Y-27650607D01*
X3925585Y-27657321D01*
X3781127Y-27773468D01*
X3772368Y-27782046D01*
X3653222Y-27924039D01*
X3646292Y-27934159D01*
X3556998Y-28096585D01*
X3552166Y-28107858D01*
X3496120Y-28284538D01*
X3493570Y-28296532D01*
X3477393Y-28440761D01*
X3477000Y-28447785D01*
X3477000Y-28635480D01*
X3456998Y-28703601D01*
X3403342Y-28750094D01*
X3333068Y-28760198D01*
X3320236Y-28757119D01*
X3320192Y-28757315D01*
X3148494Y-28718936D01*
X3148495Y-28718936D01*
X3143457Y-28717810D01*
X3137912Y-28717500D01*
X3004756Y-28717500D01*
X2869963Y-28732143D01*
X2764121Y-28767763D01*
X2704796Y-28787728D01*
X2704794Y-28787729D01*
X2698325Y-28789906D01*
X2543095Y-28883177D01*
X2538138Y-28887865D01*
X2538135Y-28887867D01*
X2416473Y-29002918D01*
X2411515Y-29007607D01*
X2407683Y-29013245D01*
X2407680Y-29013249D01*
X2356740Y-29088205D01*
X2309723Y-29157388D01*
X2242470Y-29325534D01*
X2241356Y-29332262D01*
X2241355Y-29332266D01*
X2214007Y-29497461D01*
X2212892Y-29504198D01*
X1669947Y-29504198D01*
X1683001Y-29411313D01*
X1683299Y-29390000D01*
X1664331Y-29220892D01*
X1608368Y-29060189D01*
X1602383Y-29050610D01*
X1535666Y-28943843D01*
X1518192Y-28915879D01*
X1398286Y-28795132D01*
X1390052Y-28789906D01*
X1329741Y-28751632D01*
X1254608Y-28703951D01*
X1094300Y-28646868D01*
X925329Y-28626720D01*
X918326Y-28627456D01*
X918325Y-28627456D01*
X763101Y-28643770D01*
X763097Y-28643771D01*
X756093Y-28644507D01*
X749422Y-28646778D01*
X601673Y-28697075D01*
X601670Y-28697076D01*
X595003Y-28699346D01*
X589005Y-28703036D01*
X589003Y-28703037D01*
X491831Y-28762818D01*
X425809Y-28781500D01*
X413411Y-28781500D01*
X345897Y-28761885D01*
X260562Y-28707729D01*
X260558Y-28707727D01*
X254608Y-28703951D01*
X94300Y-28646868D01*
X-74671Y-28626720D01*
X-81674Y-28627456D01*
X-81675Y-28627456D01*
X-236899Y-28643770D01*
X-236903Y-28643771D01*
X-243907Y-28644507D01*
X-250578Y-28646778D01*
X-398327Y-28697075D01*
X-398330Y-28697076D01*
X-404997Y-28699346D01*
X-410995Y-28703036D01*
X-410997Y-28703037D01*
X-543935Y-28784821D01*
X-543937Y-28784823D01*
X-549934Y-28788512D01*
X-561797Y-28800129D01*
X-643011Y-28879661D01*
X-671514Y-28907573D01*
X-675325Y-28913487D01*
X-675327Y-28913489D01*
X-735982Y-29007607D01*
X-763696Y-29050610D01*
X-766106Y-29057232D01*
X-804866Y-29163725D01*
X-821897Y-29210516D01*
X-843225Y-29379343D01*
X-1912729Y-29379343D01*
X-1948648Y-29248941D01*
X-1950461Y-29242359D01*
X-2034922Y-29082164D01*
X-2039327Y-29076951D01*
X-2039330Y-29076947D01*
X-2147406Y-28949057D01*
X-2147410Y-28949053D01*
X-2151813Y-28943843D01*
X-2157238Y-28939695D01*
X-2290257Y-28837994D01*
X-2290261Y-28837991D01*
X-2295678Y-28833850D01*
X-2418526Y-28776565D01*
X-2453631Y-28760195D01*
X-2453634Y-28760194D01*
X-2459808Y-28757315D01*
X-2466456Y-28755829D01*
X-2466459Y-28755828D01*
X-2631506Y-28718936D01*
X-2631505Y-28718936D01*
X-2636543Y-28717810D01*
X-2642088Y-28717500D01*
X-2775244Y-28717500D01*
X-2910037Y-28732143D01*
X-2990812Y-28759327D01*
X-3061753Y-28762097D01*
X-3122932Y-28726074D01*
X-3154923Y-28662693D01*
X-3157000Y-28639908D01*
X-3157000Y-28454343D01*
X-3157301Y-28448195D01*
X-3170812Y-28310397D01*
X-3173195Y-28298362D01*
X-3226767Y-28120924D01*
X-3231441Y-28109584D01*
X-3318460Y-27945923D01*
X-3325249Y-27935706D01*
X-3442397Y-27792067D01*
X-3451042Y-27783362D01*
X-3489641Y-27751430D01*
X-3529379Y-27692596D01*
X-3531000Y-27621618D01*
X-3498420Y-27565251D01*
X-3238762Y-27305593D01*
X-3176450Y-27271567D01*
X-3105635Y-27276632D01*
X-3048799Y-27319179D01*
X-3029834Y-27355752D01*
X-3025202Y-27370007D01*
X-3008599Y-27421107D01*
X-3005296Y-27426829D01*
X-3005295Y-27426830D01*
X-2988020Y-27456751D01*
X-2918367Y-27577393D01*
X-2913949Y-27582300D01*
X-2913948Y-27582301D01*
X-2814638Y-27692596D01*
X-2797613Y-27711504D01*
X-2792271Y-27715385D01*
X-2792269Y-27715387D01*
X-2687894Y-27791220D01*
X-2651615Y-27817578D01*
X-2645587Y-27820262D01*
X-2645585Y-27820263D01*
X-2506131Y-27882352D01*
X-2486752Y-27890980D01*
X-2412982Y-27906660D01*
X-2316689Y-27927128D01*
X-2316685Y-27927128D01*
X-2310232Y-27928500D01*
X-2129768Y-27928500D01*
X-2123315Y-27927128D01*
X-2123311Y-27927128D01*
X-2027018Y-27906660D01*
X-1953248Y-27890980D01*
X-1933869Y-27882352D01*
X-1794415Y-27820263D01*
X-1794413Y-27820262D01*
X-1788385Y-27817578D01*
X-1753956Y-27792564D01*
X-1679895Y-27768500D01*
X2043659Y-27768500D01*
X2117720Y-27792564D01*
X2138385Y-27807578D01*
X2144413Y-27810262D01*
X2144415Y-27810263D01*
X2271026Y-27866634D01*
X2303248Y-27880980D01*
X2381186Y-27897546D01*
X2473311Y-27917128D01*
X2473315Y-27917128D01*
X2479768Y-27918500D01*
X2660232Y-27918500D01*
X2666685Y-27917128D01*
X2666689Y-27917128D01*
X2758814Y-27897546D01*
X2836752Y-27880980D01*
X2868974Y-27866634D01*
X2995585Y-27810263D01*
X2995587Y-27810262D01*
X3001615Y-27807578D01*
X3024130Y-27791220D01*
X3142269Y-27705387D01*
X3142271Y-27705385D01*
X3147613Y-27701504D01*
X3155634Y-27692596D01*
X3263948Y-27572301D01*
X3263949Y-27572300D01*
X3268367Y-27567393D01*
X3338618Y-27445715D01*
X3355295Y-27416830D01*
X3355296Y-27416829D01*
X3358599Y-27411107D01*
X3392882Y-27305593D01*
X3412325Y-27245754D01*
X3412325Y-27245753D01*
X3414365Y-27239475D01*
X3416030Y-27223639D01*
X3432539Y-27066565D01*
X3433229Y-27060000D01*
X3427588Y-27006334D01*
X3415055Y-26887089D01*
X3415055Y-26887088D01*
X3414365Y-26880525D01*
X3411622Y-26872081D01*
X3360641Y-26715178D01*
X3358599Y-26708893D01*
X3352512Y-26698349D01*
X3271668Y-26558325D01*
X3268367Y-26552607D01*
X3147613Y-26418496D01*
X3142268Y-26414613D01*
X3142264Y-26414609D01*
X3130842Y-26406310D01*
X3087489Y-26350087D01*
X3083546Y-26284467D01*
X3080838Y-26284086D01*
X3083565Y-26264679D01*
X3104520Y-26115574D01*
X3104818Y-26094261D01*
X3085850Y-25925153D01*
X3075549Y-25895571D01*
X3050519Y-25823697D01*
X3029887Y-25764450D01*
X3015471Y-25741379D01*
X2992945Y-25705331D01*
X2939711Y-25620140D01*
X2871492Y-25551442D01*
X2819805Y-25499393D01*
X2821575Y-25497635D01*
X2787638Y-25448875D01*
X2785023Y-25377927D01*
X2821181Y-25316827D01*
X2867793Y-25289359D01*
X2873271Y-25288195D01*
X3038134Y-25214793D01*
X3040586Y-25213011D01*
X3108297Y-25196587D01*
X3175388Y-25219809D01*
X3191393Y-25233349D01*
X5784595Y-27826551D01*
X5818621Y-27888863D01*
X5821500Y-27915646D01*
X5821500Y-28169964D01*
X5801498Y-28238085D01*
X5789142Y-28254267D01*
X5781633Y-28262607D01*
X5744587Y-28326773D01*
X5715312Y-28377478D01*
X5663929Y-28426471D01*
X5594216Y-28439907D01*
X5528305Y-28413521D01*
X5487123Y-28355688D01*
X5480794Y-28326773D01*
X5479188Y-28310397D01*
X5476805Y-28298362D01*
X5423233Y-28120924D01*
X5418559Y-28109584D01*
X5331540Y-27945923D01*
X5324751Y-27935706D01*
X5207603Y-27792067D01*
X5198959Y-27783363D01*
X5056144Y-27665216D01*
X5045973Y-27658356D01*
X4882924Y-27570196D01*
X4871619Y-27565444D01*
X4756308Y-27529750D01*
X4742205Y-27529544D01*
X4739000Y-27536299D01*
X4739000Y-30558924D01*
X4742973Y-30572455D01*
X4750768Y-30573575D01*
X4858521Y-30541862D01*
X4869889Y-30537269D01*
X5034154Y-30451393D01*
X5044415Y-30444679D01*
X5188873Y-30328532D01*
X5197632Y-30319954D01*
X5316778Y-30177961D01*
X5323708Y-30167841D01*
X5413002Y-30005415D01*
X5417834Y-29994142D01*
X5473880Y-29817462D01*
X5476430Y-29805468D01*
X5492607Y-29661239D01*
X5493000Y-29654215D01*
X5493000Y-29247704D01*
X5513002Y-29179583D01*
X5566658Y-29133090D01*
X5636932Y-29122986D01*
X5701512Y-29152480D01*
X5728118Y-29184703D01*
X5781633Y-29277393D01*
X5902387Y-29411504D01*
X5907729Y-29415385D01*
X5907731Y-29415387D01*
X5919264Y-29423766D01*
X6048385Y-29517578D01*
X6054413Y-29520262D01*
X6054415Y-29520263D01*
X6207217Y-29588295D01*
X6213248Y-29590980D01*
X6301508Y-29609740D01*
X6383311Y-29627128D01*
X6383315Y-29627128D01*
X6389768Y-29628500D01*
X6570232Y-29628500D01*
X6576685Y-29627128D01*
X6576689Y-29627128D01*
X6658492Y-29609740D01*
X6746752Y-29590980D01*
X6752783Y-29588295D01*
X6905585Y-29520263D01*
X6905587Y-29520262D01*
X6911615Y-29517578D01*
X7040736Y-29423766D01*
X7052269Y-29415387D01*
X7052271Y-29415385D01*
X7057613Y-29411504D01*
X7178367Y-29277393D01*
X7268599Y-29121107D01*
X7324365Y-28949475D01*
X7343229Y-28770000D01*
X7337750Y-28717869D01*
X7325055Y-28597089D01*
X7325055Y-28597088D01*
X7324365Y-28590525D01*
X7316500Y-28566317D01*
X7270641Y-28425178D01*
X7268599Y-28418893D01*
X7257881Y-28400328D01*
X7215413Y-28326773D01*
X7178367Y-28262607D01*
X7170862Y-28254272D01*
X7140146Y-28190266D01*
X7138500Y-28169964D01*
X7138500Y-27672752D01*
X7139059Y-27660896D01*
X7139059Y-27660893D01*
X7140788Y-27653159D01*
X7138562Y-27582327D01*
X7138500Y-27578369D01*
X7138500Y-27549264D01*
X7137944Y-27544864D01*
X7137012Y-27533026D01*
X7136868Y-27528425D01*
X7135562Y-27486865D01*
X7129580Y-27466275D01*
X7125570Y-27446912D01*
X7125374Y-27445356D01*
X7124238Y-27436369D01*
X7123875Y-27433492D01*
X7123875Y-27433491D01*
X7122882Y-27425632D01*
X7119966Y-27418267D01*
X7119965Y-27418263D01*
X7105874Y-27382675D01*
X7102035Y-27371465D01*
X7089145Y-27327096D01*
X7078229Y-27308639D01*
X7069534Y-27290889D01*
X7061635Y-27270940D01*
X7056976Y-27264527D01*
X7034477Y-27233560D01*
X7027960Y-27223639D01*
X7004452Y-27183889D01*
X6989291Y-27168728D01*
X6976449Y-27153693D01*
X6975728Y-27152700D01*
X6963841Y-27136339D01*
X6928241Y-27106888D01*
X6919462Y-27098899D01*
X6827499Y-27006936D01*
X13017543Y-27006936D01*
X13021777Y-27021749D01*
X13025669Y-27035368D01*
X13029247Y-27052130D01*
X13033439Y-27081402D01*
X13037153Y-27089570D01*
X13037153Y-27089571D01*
X13044067Y-27104777D01*
X13050515Y-27122301D01*
X13057570Y-27146986D01*
X13062362Y-27154580D01*
X13062363Y-27154583D01*
X13073349Y-27171995D01*
X13081488Y-27187078D01*
X13093727Y-27213997D01*
X13099588Y-27220799D01*
X13110489Y-27233450D01*
X13121592Y-27248454D01*
X13135295Y-27270173D01*
X13142020Y-27276112D01*
X13142023Y-27276116D01*
X13157457Y-27289747D01*
X13169501Y-27301939D01*
X13182946Y-27317542D01*
X13182949Y-27317544D01*
X13188806Y-27324342D01*
X13196335Y-27329222D01*
X13196336Y-27329223D01*
X13210354Y-27338309D01*
X13225228Y-27349600D01*
X13237736Y-27360646D01*
X13244470Y-27366593D01*
X13266964Y-27377154D01*
X13271230Y-27379157D01*
X13286210Y-27387478D01*
X13303502Y-27398686D01*
X13303507Y-27398688D01*
X13311034Y-27403567D01*
X13319627Y-27406137D01*
X13319632Y-27406139D01*
X13335639Y-27410926D01*
X13353083Y-27417587D01*
X13368195Y-27424682D01*
X13368197Y-27424683D01*
X13376319Y-27428496D01*
X13385186Y-27429877D01*
X13385187Y-27429877D01*
X13387872Y-27430295D01*
X13405536Y-27433045D01*
X13422251Y-27436828D01*
X13441985Y-27442730D01*
X13441991Y-27442731D01*
X13450585Y-27445301D01*
X13459556Y-27445356D01*
X13459557Y-27445356D01*
X13469616Y-27445417D01*
X13485025Y-27445511D01*
X13485808Y-27445544D01*
X13486905Y-27445715D01*
X13517896Y-27445715D01*
X13518666Y-27445717D01*
X13592304Y-27446167D01*
X13592305Y-27446167D01*
X13596240Y-27446191D01*
X13597584Y-27445807D01*
X13598929Y-27445715D01*
X16257896Y-27445715D01*
X16258667Y-27445717D01*
X16336240Y-27446191D01*
X16364671Y-27438065D01*
X16381434Y-27434487D01*
X16382272Y-27434367D01*
X16410706Y-27430295D01*
X16434083Y-27419666D01*
X16451606Y-27413219D01*
X16476290Y-27406164D01*
X16483884Y-27401372D01*
X16483887Y-27401371D01*
X16501299Y-27390385D01*
X16516384Y-27382245D01*
X16543301Y-27370007D01*
X16562754Y-27353245D01*
X16577758Y-27342142D01*
X16599477Y-27328439D01*
X16605416Y-27321714D01*
X16605420Y-27321711D01*
X16619051Y-27306277D01*
X16631243Y-27294233D01*
X16646846Y-27280788D01*
X16646848Y-27280785D01*
X16653646Y-27274928D01*
X16667613Y-27253380D01*
X16678904Y-27238506D01*
X16689950Y-27225998D01*
X16689951Y-27225997D01*
X16695897Y-27219264D01*
X16708462Y-27192502D01*
X16716782Y-27177524D01*
X16727990Y-27160232D01*
X16727992Y-27160227D01*
X16732871Y-27152700D01*
X16735441Y-27144107D01*
X16735443Y-27144102D01*
X16740230Y-27128095D01*
X16746891Y-27110651D01*
X16753986Y-27095539D01*
X16753987Y-27095537D01*
X16757800Y-27087415D01*
X16762349Y-27058198D01*
X16766132Y-27041483D01*
X16772034Y-27021749D01*
X16772035Y-27021743D01*
X16774605Y-27013149D01*
X16774815Y-26978709D01*
X16774848Y-26977926D01*
X16775019Y-26976829D01*
X16775019Y-26945838D01*
X16775021Y-26945068D01*
X16775471Y-26871430D01*
X16775471Y-26871429D01*
X16775495Y-26867494D01*
X16775111Y-26866150D01*
X16775019Y-26864805D01*
X16775019Y-22985838D01*
X16775021Y-22985068D01*
X16775322Y-22935790D01*
X16775495Y-22907494D01*
X16767369Y-22879062D01*
X16763791Y-22862300D01*
X16762423Y-22852748D01*
X16759599Y-22833028D01*
X16748970Y-22809651D01*
X16742523Y-22792128D01*
X16737935Y-22776077D01*
X16735468Y-22767444D01*
X16730675Y-22759847D01*
X16719689Y-22742435D01*
X16711549Y-22727350D01*
X16709260Y-22722316D01*
X16699311Y-22700433D01*
X16682549Y-22680980D01*
X16671446Y-22665976D01*
X16657743Y-22644257D01*
X16651018Y-22638318D01*
X16651015Y-22638314D01*
X16635581Y-22624683D01*
X16623537Y-22612491D01*
X16610092Y-22596888D01*
X16610089Y-22596886D01*
X16604232Y-22590088D01*
X16590528Y-22581205D01*
X16582684Y-22576121D01*
X16567810Y-22564830D01*
X16555302Y-22553784D01*
X16555301Y-22553783D01*
X16548568Y-22547837D01*
X16521806Y-22535272D01*
X16506828Y-22526952D01*
X16489536Y-22515744D01*
X16489531Y-22515742D01*
X16482004Y-22510863D01*
X16473411Y-22508293D01*
X16473406Y-22508291D01*
X16457399Y-22503504D01*
X16439955Y-22496843D01*
X16424843Y-22489748D01*
X16424841Y-22489747D01*
X16416719Y-22485934D01*
X16407852Y-22484553D01*
X16407851Y-22484553D01*
X16395680Y-22482658D01*
X16387502Y-22481385D01*
X16370787Y-22477602D01*
X16351053Y-22471700D01*
X16351047Y-22471699D01*
X16342453Y-22469129D01*
X16333482Y-22469074D01*
X16333481Y-22469074D01*
X16323422Y-22469013D01*
X16308013Y-22468919D01*
X16307230Y-22468886D01*
X16306133Y-22468715D01*
X16275142Y-22468715D01*
X16274372Y-22468713D01*
X16200734Y-22468263D01*
X16200733Y-22468263D01*
X16196798Y-22468239D01*
X16195454Y-22468623D01*
X16194109Y-22468715D01*
X13535142Y-22468715D01*
X13534372Y-22468713D01*
X13533556Y-22468708D01*
X13456798Y-22468239D01*
X13434437Y-22474630D01*
X13428366Y-22476365D01*
X13411604Y-22479943D01*
X13382332Y-22484135D01*
X13361612Y-22493556D01*
X13358957Y-22494763D01*
X13341433Y-22501211D01*
X13316748Y-22508266D01*
X13309154Y-22513058D01*
X13309151Y-22513059D01*
X13291739Y-22524045D01*
X13276656Y-22532184D01*
X13249737Y-22544423D01*
X13242935Y-22550284D01*
X13230284Y-22561185D01*
X13215280Y-22572288D01*
X13193561Y-22585991D01*
X13187622Y-22592716D01*
X13187618Y-22592719D01*
X13173987Y-22608153D01*
X13161795Y-22620197D01*
X13146192Y-22633642D01*
X13146190Y-22633645D01*
X13139392Y-22639502D01*
X13134512Y-22647031D01*
X13134511Y-22647032D01*
X13125425Y-22661050D01*
X13114134Y-22675924D01*
X13103088Y-22688432D01*
X13097141Y-22695166D01*
X13084755Y-22721546D01*
X13084577Y-22721926D01*
X13076256Y-22736906D01*
X13065048Y-22754198D01*
X13065046Y-22754203D01*
X13060167Y-22761730D01*
X13057597Y-22770323D01*
X13057595Y-22770328D01*
X13052808Y-22786335D01*
X13046147Y-22803779D01*
X13039052Y-22818891D01*
X13035238Y-22827015D01*
X13033857Y-22835882D01*
X13033857Y-22835883D01*
X13030689Y-22856230D01*
X13026906Y-22872947D01*
X13021004Y-22892681D01*
X13021003Y-22892687D01*
X13018433Y-22901281D01*
X13018227Y-22935124D01*
X13018223Y-22935712D01*
X13018190Y-22936504D01*
X13018019Y-22937601D01*
X13018019Y-22968592D01*
X13018017Y-22969362D01*
X13017790Y-23006593D01*
X13017543Y-23046936D01*
X13017927Y-23048280D01*
X13018019Y-23049625D01*
X13018019Y-26928592D01*
X13018017Y-26929362D01*
X13017543Y-27006936D01*
X6827499Y-27006936D01*
X4535173Y-24714609D01*
X4501147Y-24652297D01*
X4506212Y-24581481D01*
X4548759Y-24524646D01*
X4615279Y-24499835D01*
X4638308Y-24500299D01*
X4775746Y-24515715D01*
X4882288Y-24515715D01*
X4885344Y-24515415D01*
X4885351Y-24515415D01*
X4943859Y-24509678D01*
X5029352Y-24501295D01*
X5035253Y-24499513D01*
X5035255Y-24499513D01*
X5132628Y-24470114D01*
X5218688Y-24444131D01*
X5393315Y-24351281D01*
X5508120Y-24257648D01*
X5515188Y-24251884D01*
X6524520Y-24251884D01*
X6524890Y-24258705D01*
X6530414Y-24309567D01*
X6534040Y-24324819D01*
X6579195Y-24445269D01*
X6587733Y-24460864D01*
X6664234Y-24562939D01*
X6676795Y-24575500D01*
X6778870Y-24652001D01*
X6794465Y-24660539D01*
X6914913Y-24705693D01*
X6930168Y-24709320D01*
X6981033Y-24714846D01*
X6987847Y-24715215D01*
X7360404Y-24715215D01*
X7375643Y-24710740D01*
X7376848Y-24709350D01*
X7378519Y-24701667D01*
X7378519Y-24697099D01*
X7886519Y-24697099D01*
X7890994Y-24712338D01*
X7892384Y-24713543D01*
X7900067Y-24715214D01*
X8277188Y-24715214D01*
X8284009Y-24714844D01*
X8334871Y-24709320D01*
X8350123Y-24705694D01*
X8470573Y-24660539D01*
X8486168Y-24652001D01*
X8588243Y-24575500D01*
X8600804Y-24562939D01*
X8677305Y-24460864D01*
X8685843Y-24445269D01*
X8730997Y-24324821D01*
X8734624Y-24309566D01*
X8740150Y-24258701D01*
X8740519Y-24251887D01*
X8740519Y-23379330D01*
X8736044Y-23364091D01*
X8734654Y-23362886D01*
X8726971Y-23361215D01*
X7904634Y-23361215D01*
X7889395Y-23365690D01*
X7888190Y-23367080D01*
X7886519Y-23374763D01*
X7886519Y-24697099D01*
X7378519Y-24697099D01*
X7378519Y-23379330D01*
X7374044Y-23364091D01*
X7372654Y-23362886D01*
X7364971Y-23361215D01*
X6542635Y-23361215D01*
X6527396Y-23365690D01*
X6526191Y-23367080D01*
X6524520Y-23374763D01*
X6524520Y-24251884D01*
X5515188Y-24251884D01*
X5541806Y-24230175D01*
X5541809Y-24230172D01*
X5546581Y-24226280D01*
X5550510Y-24221531D01*
X5668720Y-24078640D01*
X5668722Y-24078636D01*
X5672649Y-24073890D01*
X5766717Y-23899916D01*
X5825201Y-23710983D01*
X5828348Y-23681039D01*
X5845230Y-23520419D01*
X5845230Y-23520417D01*
X5845874Y-23514290D01*
X5832477Y-23367080D01*
X5828508Y-23323466D01*
X5828507Y-23323463D01*
X5827949Y-23317327D01*
X5822528Y-23298905D01*
X5776810Y-23143570D01*
X5774746Y-23136558D01*
X9913294Y-23136558D01*
X9929900Y-23305914D01*
X9932124Y-23312599D01*
X9932124Y-23312600D01*
X9948296Y-23361215D01*
X9983613Y-23467382D01*
X9987260Y-23473404D01*
X9987261Y-23473406D01*
X10067377Y-23605692D01*
X10071765Y-23612938D01*
X10189974Y-23735347D01*
X10248257Y-23773486D01*
X10305106Y-23810687D01*
X10332365Y-23828525D01*
X10338969Y-23830981D01*
X10338971Y-23830982D01*
X10385054Y-23848120D01*
X10491860Y-23887841D01*
X10660534Y-23910347D01*
X10667545Y-23909709D01*
X10667549Y-23909709D01*
X10822981Y-23895563D01*
X10830002Y-23894924D01*
X10836704Y-23892746D01*
X10836706Y-23892746D01*
X10985142Y-23844516D01*
X10985145Y-23844515D01*
X10991841Y-23842339D01*
X11107342Y-23773486D01*
X11171860Y-23755715D01*
X11174649Y-23755715D01*
X11191092Y-23756793D01*
X11222785Y-23760965D01*
X11230974Y-23759887D01*
X11262659Y-23755716D01*
X11262669Y-23755715D01*
X11262670Y-23755715D01*
X11362242Y-23742606D01*
X11373449Y-23741131D01*
X11373451Y-23741130D01*
X11381636Y-23740053D01*
X11529661Y-23678739D01*
X11539032Y-23671549D01*
X11624857Y-23605692D01*
X11624860Y-23605689D01*
X11650219Y-23586230D01*
X11656772Y-23581202D01*
X11661802Y-23574647D01*
X11676237Y-23555836D01*
X11687104Y-23543445D01*
X12341024Y-22889525D01*
X12404325Y-22855441D01*
X12410002Y-22854924D01*
X12433312Y-22847350D01*
X12565142Y-22804516D01*
X12565145Y-22804515D01*
X12571841Y-22802339D01*
X12718009Y-22715205D01*
X12723103Y-22710354D01*
X12723107Y-22710351D01*
X12803659Y-22633642D01*
X12841240Y-22597854D01*
X12855680Y-22576121D01*
X12903926Y-22503504D01*
X12935410Y-22456117D01*
X12995838Y-22297040D01*
X13019520Y-22128528D01*
X13019656Y-22118773D01*
X13019763Y-22111176D01*
X13019763Y-22111170D01*
X13019818Y-22107215D01*
X13000850Y-21938107D01*
X12992877Y-21915210D01*
X12947205Y-21784061D01*
X12944887Y-21777404D01*
X12938902Y-21767825D01*
X12898530Y-21703219D01*
X12854711Y-21633094D01*
X12818151Y-21596277D01*
X12789117Y-21567040D01*
X12734805Y-21512347D01*
X12725077Y-21506173D01*
X12655463Y-21461995D01*
X12591127Y-21421166D01*
X12430819Y-21364083D01*
X12261848Y-21343935D01*
X12254845Y-21344671D01*
X12254844Y-21344671D01*
X12099620Y-21360985D01*
X12099616Y-21360986D01*
X12092612Y-21361722D01*
X12085941Y-21363993D01*
X11938192Y-21414290D01*
X11938189Y-21414291D01*
X11931522Y-21416561D01*
X11925524Y-21420251D01*
X11925522Y-21420252D01*
X11792584Y-21502036D01*
X11792582Y-21502038D01*
X11786585Y-21505727D01*
X11665005Y-21624788D01*
X11661194Y-21630702D01*
X11661192Y-21630704D01*
X11593517Y-21735715D01*
X11572823Y-21767825D01*
X11570413Y-21774447D01*
X11528497Y-21889611D01*
X11514622Y-21927731D01*
X11510326Y-21961735D01*
X11481946Y-22026808D01*
X11474416Y-22035035D01*
X11094852Y-22414599D01*
X11032540Y-22448625D01*
X10963490Y-22444203D01*
X10878680Y-22414004D01*
X10850819Y-22404083D01*
X10681848Y-22383935D01*
X10674845Y-22384671D01*
X10674844Y-22384671D01*
X10519620Y-22400985D01*
X10519616Y-22400986D01*
X10512612Y-22401722D01*
X10505941Y-22403993D01*
X10358192Y-22454290D01*
X10358189Y-22454291D01*
X10351522Y-22456561D01*
X10345524Y-22460251D01*
X10345522Y-22460252D01*
X10212584Y-22542036D01*
X10212582Y-22542038D01*
X10206585Y-22545727D01*
X10159350Y-22591983D01*
X10125959Y-22624683D01*
X10085005Y-22664788D01*
X10081194Y-22670702D01*
X10081192Y-22670704D01*
X10005503Y-22788150D01*
X9992823Y-22807825D01*
X9934622Y-22967731D01*
X9913294Y-23136558D01*
X5774746Y-23136558D01*
X5772109Y-23127596D01*
X5762438Y-23109096D01*
X5697999Y-22985838D01*
X5680479Y-22952325D01*
X5556551Y-22798190D01*
X5550246Y-22792899D01*
X5510856Y-22759847D01*
X5405045Y-22671061D01*
X5399647Y-22668094D01*
X5399642Y-22668090D01*
X5237127Y-22578748D01*
X5237128Y-22578748D01*
X5231732Y-22575782D01*
X5225865Y-22573921D01*
X5225863Y-22573920D01*
X5049083Y-22517842D01*
X5049082Y-22517842D01*
X5043213Y-22515980D01*
X4889292Y-22498715D01*
X4782750Y-22498715D01*
X4779694Y-22499015D01*
X4779687Y-22499015D01*
X4721179Y-22504752D01*
X4635686Y-22513135D01*
X4629785Y-22514917D01*
X4629783Y-22514917D01*
X4556466Y-22537053D01*
X4446350Y-22570299D01*
X4271723Y-22663149D01*
X4199578Y-22721989D01*
X4123232Y-22784255D01*
X4123229Y-22784258D01*
X4118457Y-22788150D01*
X4114530Y-22792897D01*
X4114528Y-22792899D01*
X3996318Y-22935790D01*
X3996316Y-22935794D01*
X3992389Y-22940540D01*
X3898321Y-23114514D01*
X3839837Y-23303447D01*
X3819164Y-23500140D01*
X3823105Y-23543445D01*
X3835418Y-23678739D01*
X3837089Y-23697103D01*
X3838830Y-23703018D01*
X3838830Y-23703019D01*
X3849023Y-23737653D01*
X3849069Y-23808650D01*
X3810723Y-23868401D01*
X3746161Y-23897935D01*
X3678110Y-23888867D01*
X3651985Y-23877562D01*
X3641324Y-23872339D01*
X3607803Y-23853910D01*
X3607801Y-23853909D01*
X3600856Y-23850091D01*
X3580078Y-23844756D01*
X3561388Y-23838357D01*
X3541695Y-23829835D01*
X3496071Y-23822609D01*
X3484448Y-23820202D01*
X3456447Y-23813013D01*
X3439707Y-23808715D01*
X3418260Y-23808715D01*
X3398550Y-23807164D01*
X3385196Y-23805049D01*
X3377367Y-23803809D01*
X3331378Y-23808156D01*
X3319523Y-23808715D01*
X3201679Y-23808715D01*
X3133558Y-23788713D01*
X3127618Y-23784651D01*
X3043476Y-23723518D01*
X3043475Y-23723517D01*
X3038134Y-23719637D01*
X3032106Y-23716953D01*
X3032104Y-23716952D01*
X2879302Y-23648920D01*
X2879300Y-23648920D01*
X2873271Y-23646235D01*
X2766108Y-23623457D01*
X2703208Y-23610087D01*
X2703204Y-23610087D01*
X2696751Y-23608715D01*
X2516287Y-23608715D01*
X2509834Y-23610087D01*
X2509830Y-23610087D01*
X2446930Y-23623457D01*
X2339767Y-23646235D01*
X2333738Y-23648919D01*
X2333736Y-23648920D01*
X2180935Y-23716952D01*
X2180933Y-23716953D01*
X2174905Y-23719637D01*
X2169564Y-23723517D01*
X2169563Y-23723518D01*
X2034250Y-23821828D01*
X2034248Y-23821830D01*
X2028906Y-23825711D01*
X2024485Y-23830621D01*
X2024484Y-23830622D01*
X1953539Y-23909415D01*
X1908152Y-23959822D01*
X1872735Y-24021166D01*
X1833875Y-24088474D01*
X1817920Y-24116108D01*
X1815878Y-24122393D01*
X1767460Y-24271411D01*
X1762154Y-24287740D01*
X1761464Y-24294303D01*
X1761464Y-24294304D01*
X1746867Y-24433187D01*
X1743290Y-24467215D01*
X1743980Y-24473780D01*
X1760585Y-24631758D01*
X1762154Y-24646690D01*
X1764194Y-24652968D01*
X1764194Y-24652969D01*
X1784419Y-24715215D01*
X1817920Y-24818322D01*
X1908152Y-24974608D01*
X1912570Y-24979515D01*
X1912571Y-24979516D01*
X1962014Y-25034428D01*
X2028906Y-25108719D01*
X2034248Y-25112600D01*
X2034250Y-25112602D01*
X2048792Y-25123167D01*
X2104680Y-25163772D01*
X2148033Y-25219993D01*
X2154108Y-25290729D01*
X2120977Y-25353521D01*
X2071224Y-25384985D01*
X2016522Y-25403607D01*
X2010524Y-25407297D01*
X2010522Y-25407298D01*
X1977761Y-25427453D01*
X1871585Y-25492773D01*
X1869638Y-25494680D01*
X1805232Y-25520228D01*
X1793652Y-25520761D01*
X1374002Y-25520761D01*
X1305881Y-25500759D01*
X1284907Y-25483856D01*
X791083Y-24990032D01*
X757057Y-24927720D01*
X754963Y-24914982D01*
X748212Y-24854795D01*
X747427Y-24847796D01*
X691464Y-24687093D01*
X601288Y-24542783D01*
X555599Y-24496773D01*
X526246Y-24467215D01*
X481382Y-24422036D01*
X337704Y-24330855D01*
X177396Y-24273772D01*
X91666Y-24263550D01*
X26394Y-24235623D01*
X-13420Y-24176840D01*
X-15132Y-24105864D01*
X17490Y-24049341D01*
X4628622Y-19438209D01*
X4641013Y-19427342D01*
X4657991Y-19414314D01*
X4664544Y-19409286D01*
X4701369Y-19361296D01*
X4718965Y-19338364D01*
X4751445Y-19296036D01*
X4756471Y-19289486D01*
X4766778Y-19264603D01*
X4811098Y-19157605D01*
X4811099Y-19157602D01*
X4814258Y-19149975D01*
X4833968Y-19000261D01*
X4830097Y-18970857D01*
X4829019Y-18954411D01*
X4829019Y-16587590D01*
X4849021Y-16519469D01*
X4902677Y-16472976D01*
X4943599Y-16462109D01*
X5034229Y-16453860D01*
X5055002Y-16451970D01*
X5061704Y-16449792D01*
X5061706Y-16449792D01*
X5203693Y-16403657D01*
X5274660Y-16401629D01*
X5335458Y-16438292D01*
X5366784Y-16502004D01*
X5366282Y-16542084D01*
X5363681Y-16548364D01*
X5363681Y-16548365D01*
X5351603Y-16640108D01*
X5348019Y-16667330D01*
X5348019Y-16667335D01*
X5346509Y-16678809D01*
X5342769Y-16707215D01*
X5345936Y-16731268D01*
X5346941Y-16738905D01*
X5348019Y-16755351D01*
X5348019Y-20884061D01*
X5327930Y-20952316D01*
X5315459Y-20971668D01*
X5281612Y-21024188D01*
X5272823Y-21037825D01*
X5236240Y-21138337D01*
X5220157Y-21182525D01*
X5214622Y-21197731D01*
X5193294Y-21366558D01*
X5209900Y-21535914D01*
X5212124Y-21542599D01*
X5212124Y-21542600D01*
X5226373Y-21585433D01*
X5263613Y-21697382D01*
X5267260Y-21703404D01*
X5267261Y-21703406D01*
X5316108Y-21784061D01*
X5351765Y-21842938D01*
X5469974Y-21965347D01*
X5612365Y-22058525D01*
X5618969Y-22060981D01*
X5618971Y-22060982D01*
X5655363Y-22074516D01*
X5771860Y-22117841D01*
X5940534Y-22140347D01*
X5947545Y-22139709D01*
X5947549Y-22139709D01*
X6102981Y-22125563D01*
X6110002Y-22124924D01*
X6116704Y-22122746D01*
X6116706Y-22122746D01*
X6265142Y-22074516D01*
X6265145Y-22074515D01*
X6271841Y-22072339D01*
X6334001Y-22035284D01*
X6402756Y-22017584D01*
X6470166Y-22039866D01*
X6514828Y-22095055D01*
X6524519Y-22143513D01*
X6524519Y-22835100D01*
X6528994Y-22850339D01*
X6530384Y-22851544D01*
X6538067Y-22853215D01*
X7360404Y-22853215D01*
X7375643Y-22848740D01*
X7376848Y-22847350D01*
X7378519Y-22839667D01*
X7378519Y-22835100D01*
X7886519Y-22835100D01*
X7890994Y-22850339D01*
X7892384Y-22851544D01*
X7900067Y-22853215D01*
X8722403Y-22853215D01*
X8737642Y-22848740D01*
X8738847Y-22847350D01*
X8740518Y-22839667D01*
X8740518Y-21962546D01*
X8740148Y-21955725D01*
X8734624Y-21904863D01*
X8730998Y-21889611D01*
X8685843Y-21769161D01*
X8677305Y-21753566D01*
X8600804Y-21651491D01*
X8588243Y-21638930D01*
X8486168Y-21562429D01*
X8470573Y-21553891D01*
X8350125Y-21508737D01*
X8334870Y-21505110D01*
X8284005Y-21499584D01*
X8277191Y-21499215D01*
X7904634Y-21499215D01*
X7889395Y-21503690D01*
X7888190Y-21505080D01*
X7886519Y-21512763D01*
X7886519Y-22835100D01*
X7378519Y-22835100D01*
X7378519Y-21517331D01*
X7374044Y-21502092D01*
X7372654Y-21500887D01*
X7364971Y-21499216D01*
X6987850Y-21499216D01*
X6981029Y-21499586D01*
X6930167Y-21505110D01*
X6914912Y-21508737D01*
X6889738Y-21518174D01*
X6818931Y-21523357D01*
X6756562Y-21489436D01*
X6722433Y-21427180D01*
X6719521Y-21398428D01*
X6719763Y-21381175D01*
X6719763Y-21381169D01*
X6719818Y-21377215D01*
X6710814Y-21296936D01*
X13017543Y-21296936D01*
X13023393Y-21317404D01*
X13025669Y-21325368D01*
X13029247Y-21342130D01*
X13033439Y-21371402D01*
X13037153Y-21379570D01*
X13037153Y-21379571D01*
X13044067Y-21394777D01*
X13050515Y-21412301D01*
X13057570Y-21436986D01*
X13062362Y-21444580D01*
X13062363Y-21444583D01*
X13073349Y-21461995D01*
X13081488Y-21477078D01*
X13093727Y-21503997D01*
X13099588Y-21510799D01*
X13110489Y-21523450D01*
X13121592Y-21538454D01*
X13135295Y-21560173D01*
X13142020Y-21566112D01*
X13142023Y-21566116D01*
X13157457Y-21579747D01*
X13169501Y-21591939D01*
X13182946Y-21607542D01*
X13182949Y-21607544D01*
X13188806Y-21614342D01*
X13196335Y-21619222D01*
X13196336Y-21619223D01*
X13210354Y-21628309D01*
X13225228Y-21639600D01*
X13237736Y-21650646D01*
X13244470Y-21656593D01*
X13271230Y-21669157D01*
X13286210Y-21677478D01*
X13303502Y-21688686D01*
X13303507Y-21688688D01*
X13311034Y-21693567D01*
X13319627Y-21696137D01*
X13319632Y-21696139D01*
X13335639Y-21700926D01*
X13353083Y-21707587D01*
X13368195Y-21714682D01*
X13368197Y-21714683D01*
X13376319Y-21718496D01*
X13385186Y-21719877D01*
X13385187Y-21719877D01*
X13387872Y-21720295D01*
X13405536Y-21723045D01*
X13422251Y-21726828D01*
X13441985Y-21732730D01*
X13441991Y-21732731D01*
X13450585Y-21735301D01*
X13459556Y-21735356D01*
X13459557Y-21735356D01*
X13469616Y-21735417D01*
X13485025Y-21735511D01*
X13485808Y-21735544D01*
X13486905Y-21735715D01*
X13517896Y-21735715D01*
X13518666Y-21735717D01*
X13592304Y-21736167D01*
X13592305Y-21736167D01*
X13596240Y-21736191D01*
X13597584Y-21735807D01*
X13598929Y-21735715D01*
X16257896Y-21735715D01*
X16258667Y-21735717D01*
X16336240Y-21736191D01*
X16364671Y-21728065D01*
X16381434Y-21724487D01*
X16382272Y-21724367D01*
X16410706Y-21720295D01*
X16434083Y-21709666D01*
X16451606Y-21703219D01*
X16476290Y-21696164D01*
X16483884Y-21691372D01*
X16483887Y-21691371D01*
X16501299Y-21680385D01*
X16516384Y-21672245D01*
X16543301Y-21660007D01*
X16562754Y-21643245D01*
X16577758Y-21632142D01*
X16599477Y-21618439D01*
X16605416Y-21611714D01*
X16605420Y-21611711D01*
X16619051Y-21596277D01*
X16631243Y-21584233D01*
X16646846Y-21570788D01*
X16646848Y-21570785D01*
X16653646Y-21564928D01*
X16666100Y-21545715D01*
X16667613Y-21543380D01*
X16678904Y-21528506D01*
X16689950Y-21515998D01*
X16689951Y-21515997D01*
X16695897Y-21509264D01*
X16708462Y-21482502D01*
X16716782Y-21467524D01*
X16727990Y-21450232D01*
X16727992Y-21450227D01*
X16732871Y-21442700D01*
X16735441Y-21434107D01*
X16735443Y-21434102D01*
X16740230Y-21418095D01*
X16746891Y-21400651D01*
X16753986Y-21385539D01*
X16753987Y-21385537D01*
X16757800Y-21377415D01*
X16759285Y-21367882D01*
X16762349Y-21348200D01*
X16766132Y-21331483D01*
X16772034Y-21311749D01*
X16772035Y-21311743D01*
X16774605Y-21303149D01*
X16774815Y-21268709D01*
X16774848Y-21267926D01*
X16775019Y-21266829D01*
X16775019Y-21235838D01*
X16775021Y-21235068D01*
X16775471Y-21161430D01*
X16775471Y-21161429D01*
X16775495Y-21157494D01*
X16775111Y-21156150D01*
X16775019Y-21154805D01*
X16775019Y-20887215D01*
X23783290Y-20887215D01*
X23783980Y-20893780D01*
X23798498Y-21031902D01*
X23802154Y-21066690D01*
X23804194Y-21072968D01*
X23804194Y-21072969D01*
X23827164Y-21143665D01*
X23857920Y-21238322D01*
X23861223Y-21244044D01*
X23861224Y-21244045D01*
X23875120Y-21268113D01*
X23948152Y-21394608D01*
X23952570Y-21399515D01*
X23952571Y-21399516D01*
X24054411Y-21512621D01*
X24068906Y-21528719D01*
X24074248Y-21532600D01*
X24074250Y-21532602D01*
X24209276Y-21630704D01*
X24214904Y-21634793D01*
X24220932Y-21637477D01*
X24220934Y-21637478D01*
X24369462Y-21703607D01*
X24379767Y-21708195D01*
X24467430Y-21726828D01*
X24549830Y-21744343D01*
X24549834Y-21744343D01*
X24556287Y-21745715D01*
X24736751Y-21745715D01*
X24743204Y-21744343D01*
X24743208Y-21744343D01*
X24825608Y-21726828D01*
X24913271Y-21708195D01*
X24923576Y-21703607D01*
X25072104Y-21637478D01*
X25072106Y-21637477D01*
X25078134Y-21634793D01*
X25087059Y-21628309D01*
X25167618Y-21569779D01*
X25234486Y-21545920D01*
X25241679Y-21545715D01*
X33721359Y-21545715D01*
X33789480Y-21565717D01*
X33795420Y-21569779D01*
X33875980Y-21628309D01*
X33884904Y-21634793D01*
X33890932Y-21637477D01*
X33890934Y-21637478D01*
X34039462Y-21703607D01*
X34049767Y-21708195D01*
X34137430Y-21726828D01*
X34219830Y-21744343D01*
X34219834Y-21744343D01*
X34226287Y-21745715D01*
X34406751Y-21745715D01*
X34413204Y-21744343D01*
X34413208Y-21744343D01*
X34495608Y-21726828D01*
X34583271Y-21708195D01*
X34593576Y-21703607D01*
X34742104Y-21637478D01*
X34742106Y-21637477D01*
X34748134Y-21634793D01*
X34753762Y-21630704D01*
X34888788Y-21532602D01*
X34888790Y-21532600D01*
X34894132Y-21528719D01*
X34908627Y-21512621D01*
X35010467Y-21399516D01*
X35010468Y-21399515D01*
X35014886Y-21394608D01*
X35087918Y-21268113D01*
X35101814Y-21244045D01*
X35101815Y-21244044D01*
X35105118Y-21238322D01*
X35135874Y-21143665D01*
X35158844Y-21072969D01*
X35158844Y-21072968D01*
X35160884Y-21066690D01*
X35164541Y-21031902D01*
X35179058Y-20893780D01*
X35179748Y-20887215D01*
X35160884Y-20707740D01*
X35154203Y-20687176D01*
X35107160Y-20542393D01*
X35105118Y-20536108D01*
X35085018Y-20501293D01*
X35018187Y-20385540D01*
X35014886Y-20379822D01*
X34980375Y-20341493D01*
X34898554Y-20250622D01*
X34898553Y-20250621D01*
X34894132Y-20245711D01*
X34879919Y-20235384D01*
X34753476Y-20143518D01*
X34753475Y-20143517D01*
X34748134Y-20139637D01*
X34742106Y-20136953D01*
X34742104Y-20136952D01*
X34589302Y-20068920D01*
X34589300Y-20068920D01*
X34583271Y-20066235D01*
X34495011Y-20047475D01*
X34413208Y-20030087D01*
X34413204Y-20030087D01*
X34406751Y-20028715D01*
X34226287Y-20028715D01*
X34219834Y-20030087D01*
X34219830Y-20030087D01*
X34138027Y-20047475D01*
X34049767Y-20066235D01*
X34043738Y-20068919D01*
X34043736Y-20068920D01*
X33890935Y-20136952D01*
X33890933Y-20136953D01*
X33884905Y-20139637D01*
X33879563Y-20143518D01*
X33879558Y-20143521D01*
X33795419Y-20204651D01*
X33721359Y-20228715D01*
X25241679Y-20228715D01*
X25173558Y-20208713D01*
X25167618Y-20204651D01*
X25083476Y-20143518D01*
X25083475Y-20143517D01*
X25078134Y-20139637D01*
X25072106Y-20136953D01*
X25072104Y-20136952D01*
X24919302Y-20068920D01*
X24919300Y-20068920D01*
X24913271Y-20066235D01*
X24825011Y-20047475D01*
X24743208Y-20030087D01*
X24743204Y-20030087D01*
X24736751Y-20028715D01*
X24556287Y-20028715D01*
X24549834Y-20030087D01*
X24549830Y-20030087D01*
X24468027Y-20047475D01*
X24379767Y-20066235D01*
X24373738Y-20068919D01*
X24373736Y-20068920D01*
X24220935Y-20136952D01*
X24220933Y-20136953D01*
X24214905Y-20139637D01*
X24209564Y-20143517D01*
X24209563Y-20143518D01*
X24074250Y-20241828D01*
X24074248Y-20241830D01*
X24068906Y-20245711D01*
X24064485Y-20250621D01*
X24064484Y-20250622D01*
X23982664Y-20341493D01*
X23948152Y-20379822D01*
X23944851Y-20385540D01*
X23878021Y-20501293D01*
X23857920Y-20536108D01*
X23855878Y-20542393D01*
X23808836Y-20687176D01*
X23802154Y-20707740D01*
X23783290Y-20887215D01*
X16775019Y-20887215D01*
X16775019Y-17275838D01*
X16775021Y-17275068D01*
X16775319Y-17226317D01*
X16775495Y-17197494D01*
X16767369Y-17169062D01*
X16763791Y-17152300D01*
X16760871Y-17131913D01*
X16759599Y-17123028D01*
X16748970Y-17099651D01*
X16742523Y-17082128D01*
X16735468Y-17057444D01*
X16729200Y-17047510D01*
X16719689Y-17032435D01*
X16711549Y-17017350D01*
X16707945Y-17009423D01*
X16699311Y-16990433D01*
X16682549Y-16970980D01*
X16671446Y-16955976D01*
X16657743Y-16934257D01*
X16651018Y-16928318D01*
X16651015Y-16928314D01*
X16635581Y-16914683D01*
X16623537Y-16902491D01*
X16610092Y-16886888D01*
X16610089Y-16886886D01*
X16604232Y-16880088D01*
X16590528Y-16871205D01*
X16582684Y-16866121D01*
X16567810Y-16854830D01*
X16555302Y-16843784D01*
X16555301Y-16843783D01*
X16548568Y-16837837D01*
X16521806Y-16825272D01*
X16506828Y-16816952D01*
X16489536Y-16805744D01*
X16489531Y-16805742D01*
X16482004Y-16800863D01*
X16473411Y-16798293D01*
X16473406Y-16798291D01*
X16457399Y-16793504D01*
X16439955Y-16786843D01*
X16424843Y-16779748D01*
X16424841Y-16779747D01*
X16416719Y-16775934D01*
X16407852Y-16774553D01*
X16407851Y-16774553D01*
X16396997Y-16772863D01*
X16387502Y-16771385D01*
X16370787Y-16767602D01*
X16351053Y-16761700D01*
X16351047Y-16761699D01*
X16342453Y-16759129D01*
X16333482Y-16759074D01*
X16333481Y-16759074D01*
X16323422Y-16759013D01*
X16308013Y-16758919D01*
X16307230Y-16758886D01*
X16306133Y-16758715D01*
X16275142Y-16758715D01*
X16274372Y-16758713D01*
X16200734Y-16758263D01*
X16200733Y-16758263D01*
X16196798Y-16758239D01*
X16195454Y-16758623D01*
X16194109Y-16758715D01*
X13535142Y-16758715D01*
X13534372Y-16758713D01*
X13533556Y-16758708D01*
X13456798Y-16758239D01*
X13444129Y-16761860D01*
X13428366Y-16766365D01*
X13411604Y-16769943D01*
X13382332Y-16774135D01*
X13374164Y-16777849D01*
X13374163Y-16777849D01*
X13358957Y-16784763D01*
X13341433Y-16791211D01*
X13316748Y-16798266D01*
X13309154Y-16803058D01*
X13309151Y-16803059D01*
X13291739Y-16814045D01*
X13276656Y-16822184D01*
X13249737Y-16834423D01*
X13242935Y-16840284D01*
X13230284Y-16851185D01*
X13215280Y-16862288D01*
X13193561Y-16875991D01*
X13187622Y-16882716D01*
X13187618Y-16882719D01*
X13173987Y-16898153D01*
X13161795Y-16910197D01*
X13146192Y-16923642D01*
X13146190Y-16923645D01*
X13139392Y-16929502D01*
X13134512Y-16937031D01*
X13134511Y-16937032D01*
X13125425Y-16951050D01*
X13114134Y-16965924D01*
X13103088Y-16978432D01*
X13097141Y-16985166D01*
X13084577Y-17011926D01*
X13076256Y-17026906D01*
X13065048Y-17044198D01*
X13065046Y-17044203D01*
X13060167Y-17051730D01*
X13057597Y-17060323D01*
X13057595Y-17060328D01*
X13052808Y-17076335D01*
X13046147Y-17093779D01*
X13039052Y-17108891D01*
X13035238Y-17117015D01*
X13033857Y-17125882D01*
X13033857Y-17125883D01*
X13030689Y-17146230D01*
X13026906Y-17162947D01*
X13021004Y-17182681D01*
X13021003Y-17182687D01*
X13018433Y-17191281D01*
X13018378Y-17200252D01*
X13018378Y-17200253D01*
X13018223Y-17225712D01*
X13018190Y-17226504D01*
X13018019Y-17227601D01*
X13018019Y-17258592D01*
X13018017Y-17259362D01*
X13017543Y-17336936D01*
X13017927Y-17338280D01*
X13018019Y-17339625D01*
X13018019Y-21218592D01*
X13018017Y-21219362D01*
X13017543Y-21296936D01*
X6710814Y-21296936D01*
X6705273Y-21247537D01*
X6701635Y-21215104D01*
X6701635Y-21215102D01*
X6700850Y-21208107D01*
X6686003Y-21165471D01*
X6665318Y-21106073D01*
X6644887Y-21047404D01*
X6584164Y-20950228D01*
X6565019Y-20883460D01*
X6565019Y-17011454D01*
X6585021Y-16943333D01*
X6601924Y-16922359D01*
X6673140Y-16851143D01*
X6736901Y-16816811D01*
X6742982Y-16815563D01*
X6750002Y-16814924D01*
X6778255Y-16805744D01*
X6905142Y-16764516D01*
X6905145Y-16764515D01*
X6911841Y-16762339D01*
X7058009Y-16675205D01*
X7063103Y-16670354D01*
X7063107Y-16670351D01*
X7140702Y-16596458D01*
X7181240Y-16557854D01*
X7187545Y-16548365D01*
X7271509Y-16421988D01*
X7275410Y-16416117D01*
X7335838Y-16257040D01*
X7359520Y-16088528D01*
X7359637Y-16080179D01*
X7359763Y-16071176D01*
X7359763Y-16071170D01*
X7359818Y-16067215D01*
X7340850Y-15898107D01*
X7335722Y-15883380D01*
X7312257Y-15815999D01*
X7284887Y-15737404D01*
X7278902Y-15727825D01*
X7250761Y-15682792D01*
X7222107Y-15636936D01*
X13017543Y-15636936D01*
X13021777Y-15651749D01*
X13025669Y-15665368D01*
X13029247Y-15682130D01*
X13033439Y-15711402D01*
X13037153Y-15719570D01*
X13037153Y-15719571D01*
X13044067Y-15734777D01*
X13050515Y-15752301D01*
X13057570Y-15776986D01*
X13062362Y-15784580D01*
X13062363Y-15784583D01*
X13073349Y-15801995D01*
X13081488Y-15817078D01*
X13093727Y-15843997D01*
X13099588Y-15850799D01*
X13110489Y-15863450D01*
X13121592Y-15878454D01*
X13135295Y-15900173D01*
X13142020Y-15906112D01*
X13142023Y-15906116D01*
X13157457Y-15919747D01*
X13169501Y-15931939D01*
X13182946Y-15947542D01*
X13182949Y-15947544D01*
X13188806Y-15954342D01*
X13196335Y-15959222D01*
X13196336Y-15959223D01*
X13210354Y-15968309D01*
X13225228Y-15979600D01*
X13237736Y-15990646D01*
X13244470Y-15996593D01*
X13271230Y-16009157D01*
X13286210Y-16017478D01*
X13303502Y-16028686D01*
X13303507Y-16028688D01*
X13311034Y-16033567D01*
X13319627Y-16036137D01*
X13319632Y-16036139D01*
X13335639Y-16040926D01*
X13353083Y-16047587D01*
X13368195Y-16054682D01*
X13368197Y-16054683D01*
X13376319Y-16058496D01*
X13385186Y-16059877D01*
X13385187Y-16059877D01*
X13387872Y-16060295D01*
X13405536Y-16063045D01*
X13422251Y-16066828D01*
X13441985Y-16072730D01*
X13441991Y-16072731D01*
X13450585Y-16075301D01*
X13459556Y-16075356D01*
X13459557Y-16075356D01*
X13469616Y-16075417D01*
X13485025Y-16075511D01*
X13485808Y-16075544D01*
X13486905Y-16075715D01*
X13517896Y-16075715D01*
X13518666Y-16075717D01*
X13592304Y-16076167D01*
X13592305Y-16076167D01*
X13596240Y-16076191D01*
X13597584Y-16075807D01*
X13598929Y-16075715D01*
X16257896Y-16075715D01*
X16258667Y-16075717D01*
X16336240Y-16076191D01*
X16364671Y-16068065D01*
X16381434Y-16064487D01*
X16382272Y-16064367D01*
X16410706Y-16060295D01*
X16434083Y-16049666D01*
X16451606Y-16043219D01*
X16476290Y-16036164D01*
X16483884Y-16031372D01*
X16483887Y-16031371D01*
X16501299Y-16020385D01*
X16516384Y-16012245D01*
X16543301Y-16000007D01*
X16562754Y-15983245D01*
X16577758Y-15972142D01*
X16599477Y-15958439D01*
X16605416Y-15951714D01*
X16605420Y-15951711D01*
X16619051Y-15936277D01*
X16631243Y-15924233D01*
X16646846Y-15910788D01*
X16646848Y-15910785D01*
X16653646Y-15904928D01*
X16667613Y-15883380D01*
X16678904Y-15868506D01*
X16689950Y-15855998D01*
X16689951Y-15855997D01*
X16695897Y-15849264D01*
X16708462Y-15822502D01*
X16716782Y-15807524D01*
X16727990Y-15790232D01*
X16727992Y-15790227D01*
X16732871Y-15782700D01*
X16735441Y-15774107D01*
X16735443Y-15774102D01*
X16740230Y-15758095D01*
X16746891Y-15740651D01*
X16753986Y-15725539D01*
X16753987Y-15725537D01*
X16757800Y-15717415D01*
X16762349Y-15688198D01*
X16766132Y-15671483D01*
X16772034Y-15651749D01*
X16772035Y-15651743D01*
X16774605Y-15643149D01*
X16774815Y-15608709D01*
X16774848Y-15607926D01*
X16775019Y-15606829D01*
X16775019Y-15575838D01*
X16775021Y-15575068D01*
X16775471Y-15501430D01*
X16775471Y-15501429D01*
X16775495Y-15497494D01*
X16775111Y-15496150D01*
X16775019Y-15494805D01*
X16775019Y-11656558D01*
X35883294Y-11656558D01*
X35899900Y-11825914D01*
X35953613Y-11987382D01*
X36041765Y-12132938D01*
X36159974Y-12255347D01*
X36302365Y-12348525D01*
X36308969Y-12350981D01*
X36308971Y-12350982D01*
X36455250Y-12405383D01*
X36455252Y-12405384D01*
X36461860Y-12407841D01*
X36468845Y-12408773D01*
X36468849Y-12408774D01*
X36489229Y-12411493D01*
X36494289Y-12412168D01*
X36559167Y-12441003D01*
X36566721Y-12447966D01*
X39291114Y-15172359D01*
X39325140Y-15234671D01*
X39328019Y-15261454D01*
X39328019Y-18988544D01*
X39307930Y-19056799D01*
X39242823Y-19157825D01*
X39184622Y-19317731D01*
X39163294Y-19486558D01*
X39179900Y-19655914D01*
X39182124Y-19662599D01*
X39182124Y-19662600D01*
X39187536Y-19678870D01*
X39233613Y-19817382D01*
X39237260Y-19823404D01*
X39237261Y-19823406D01*
X39302501Y-19931129D01*
X39321765Y-19962938D01*
X39439974Y-20085347D01*
X39582365Y-20178525D01*
X39588969Y-20180981D01*
X39588971Y-20180982D01*
X39642126Y-20200750D01*
X39741860Y-20237841D01*
X39910534Y-20260347D01*
X39917545Y-20259709D01*
X39917549Y-20259709D01*
X40072981Y-20245563D01*
X40080002Y-20244924D01*
X40086704Y-20242746D01*
X40086706Y-20242746D01*
X40235142Y-20194516D01*
X40235145Y-20194515D01*
X40241841Y-20192339D01*
X40388009Y-20105205D01*
X40511240Y-19987854D01*
X40539354Y-19945540D01*
X40601509Y-19851988D01*
X40605410Y-19846117D01*
X40665838Y-19687040D01*
X40689520Y-19518528D01*
X40689818Y-19497215D01*
X40670850Y-19328107D01*
X40656282Y-19286272D01*
X40617205Y-19174061D01*
X40614887Y-19167404D01*
X40564164Y-19086232D01*
X40545019Y-19019463D01*
X40545019Y-15005359D01*
X40546097Y-14988913D01*
X40549192Y-14965403D01*
X40550270Y-14957215D01*
X40529357Y-14798364D01*
X40468043Y-14650339D01*
X40394997Y-14555144D01*
X40394993Y-14555140D01*
X40388203Y-14546291D01*
X40375535Y-14529781D01*
X40375532Y-14529778D01*
X40370506Y-14523228D01*
X40363951Y-14518198D01*
X40345140Y-14503763D01*
X40332749Y-14492896D01*
X37428734Y-11588881D01*
X37394708Y-11526569D01*
X37392614Y-11513833D01*
X37391635Y-11505105D01*
X37390850Y-11498107D01*
X37334887Y-11337404D01*
X37328902Y-11327825D01*
X37295428Y-11274257D01*
X37244711Y-11193094D01*
X37195025Y-11143059D01*
X37157111Y-11104880D01*
X37124805Y-11072347D01*
X37108558Y-11062036D01*
X37058055Y-11029986D01*
X36981127Y-10981166D01*
X36820819Y-10924083D01*
X36651848Y-10903935D01*
X36644845Y-10904671D01*
X36644844Y-10904671D01*
X36489620Y-10920985D01*
X36489616Y-10920986D01*
X36482612Y-10921722D01*
X36475941Y-10923993D01*
X36328192Y-10974290D01*
X36328189Y-10974291D01*
X36321522Y-10976561D01*
X36315524Y-10980251D01*
X36315522Y-10980252D01*
X36182584Y-11062036D01*
X36182582Y-11062038D01*
X36176585Y-11065727D01*
X36142476Y-11099129D01*
X36061209Y-11178713D01*
X36055005Y-11184788D01*
X36051194Y-11190702D01*
X36051192Y-11190704D01*
X35968336Y-11319271D01*
X35962823Y-11327825D01*
X35904622Y-11487731D01*
X35883294Y-11656558D01*
X16775019Y-11656558D01*
X16775019Y-11615838D01*
X16775021Y-11615068D01*
X16775319Y-11566317D01*
X16775495Y-11537494D01*
X16767369Y-11509062D01*
X16763791Y-11492300D01*
X16760871Y-11471913D01*
X16759599Y-11463028D01*
X16748970Y-11439651D01*
X16742523Y-11422128D01*
X16737935Y-11406077D01*
X16735468Y-11397444D01*
X16730675Y-11389847D01*
X16719689Y-11372435D01*
X16711549Y-11357350D01*
X16709260Y-11352316D01*
X16699311Y-11330433D01*
X16682549Y-11310980D01*
X16671446Y-11295976D01*
X16657743Y-11274257D01*
X16651018Y-11268318D01*
X16651015Y-11268314D01*
X16635581Y-11254683D01*
X16623537Y-11242491D01*
X16610092Y-11226888D01*
X16610089Y-11226886D01*
X16604232Y-11220088D01*
X16590528Y-11211205D01*
X16582684Y-11206121D01*
X16567810Y-11194830D01*
X16555302Y-11183784D01*
X16555301Y-11183783D01*
X16548568Y-11177837D01*
X16521806Y-11165272D01*
X16506828Y-11156952D01*
X16489536Y-11145744D01*
X16489531Y-11145742D01*
X16482004Y-11140863D01*
X16473411Y-11138293D01*
X16473406Y-11138291D01*
X16457399Y-11133504D01*
X16439955Y-11126843D01*
X16424843Y-11119748D01*
X16424841Y-11119747D01*
X16416719Y-11115934D01*
X16407852Y-11114553D01*
X16407851Y-11114553D01*
X16395680Y-11112658D01*
X16387502Y-11111385D01*
X16370787Y-11107602D01*
X16351053Y-11101700D01*
X16351047Y-11101699D01*
X16342453Y-11099129D01*
X16333482Y-11099074D01*
X16333481Y-11099074D01*
X16323422Y-11099013D01*
X16308013Y-11098919D01*
X16307230Y-11098886D01*
X16306133Y-11098715D01*
X16275142Y-11098715D01*
X16274372Y-11098713D01*
X16200734Y-11098263D01*
X16200733Y-11098263D01*
X16196798Y-11098239D01*
X16195454Y-11098623D01*
X16194109Y-11098715D01*
X13535142Y-11098715D01*
X13534372Y-11098713D01*
X13533556Y-11098708D01*
X13456798Y-11098239D01*
X13434437Y-11104630D01*
X13428366Y-11106365D01*
X13411604Y-11109943D01*
X13382332Y-11114135D01*
X13374164Y-11117849D01*
X13374163Y-11117849D01*
X13358957Y-11124763D01*
X13341433Y-11131211D01*
X13316748Y-11138266D01*
X13309154Y-11143058D01*
X13309151Y-11143059D01*
X13291739Y-11154045D01*
X13276656Y-11162184D01*
X13249737Y-11174423D01*
X13242935Y-11180284D01*
X13230284Y-11191185D01*
X13215280Y-11202288D01*
X13193561Y-11215991D01*
X13187622Y-11222716D01*
X13187618Y-11222719D01*
X13173987Y-11238153D01*
X13161795Y-11250197D01*
X13146192Y-11263642D01*
X13146190Y-11263645D01*
X13139392Y-11269502D01*
X13134512Y-11277031D01*
X13134511Y-11277032D01*
X13125425Y-11291050D01*
X13114134Y-11305924D01*
X13103088Y-11318432D01*
X13097141Y-11325166D01*
X13090831Y-11338606D01*
X13084577Y-11351926D01*
X13076256Y-11366906D01*
X13065048Y-11384198D01*
X13065046Y-11384203D01*
X13060167Y-11391730D01*
X13057597Y-11400323D01*
X13057595Y-11400328D01*
X13052808Y-11416335D01*
X13046147Y-11433779D01*
X13039052Y-11448891D01*
X13035238Y-11457015D01*
X13033857Y-11465882D01*
X13033857Y-11465883D01*
X13030689Y-11486230D01*
X13026906Y-11502947D01*
X13021004Y-11522681D01*
X13021003Y-11522687D01*
X13018433Y-11531281D01*
X13018378Y-11540252D01*
X13018378Y-11540253D01*
X13018223Y-11565712D01*
X13018190Y-11566504D01*
X13018019Y-11567601D01*
X13018019Y-11598592D01*
X13018017Y-11599362D01*
X13017668Y-11656558D01*
X13017543Y-11676936D01*
X13017927Y-11678280D01*
X13018019Y-11679625D01*
X13018019Y-15558592D01*
X13018017Y-15559362D01*
X13017543Y-15636936D01*
X7222107Y-15636936D01*
X7194711Y-15593094D01*
X7074805Y-15472347D01*
X7062214Y-15464356D01*
X7019925Y-15437519D01*
X6931127Y-15381166D01*
X6770819Y-15324083D01*
X6655754Y-15310363D01*
X6590481Y-15282436D01*
X6550668Y-15223653D01*
X6548956Y-15152677D01*
X6583781Y-15094004D01*
X6606133Y-15072718D01*
X6606136Y-15072715D01*
X6611240Y-15067854D01*
X6617852Y-15057903D01*
X6682141Y-14961140D01*
X6705410Y-14926117D01*
X6707911Y-14919532D01*
X6707914Y-14919527D01*
X6744642Y-14822839D01*
X6787531Y-14766260D01*
X6854199Y-14741851D01*
X6906661Y-14749600D01*
X6922917Y-14755694D01*
X6938168Y-14759320D01*
X6989033Y-14764846D01*
X6995847Y-14765215D01*
X7368404Y-14765215D01*
X7383643Y-14760740D01*
X7384848Y-14759350D01*
X7386519Y-14751667D01*
X7386519Y-14747099D01*
X7894519Y-14747099D01*
X7898994Y-14762338D01*
X7900384Y-14763543D01*
X7908067Y-14765214D01*
X8285188Y-14765214D01*
X8292009Y-14764844D01*
X8342871Y-14759320D01*
X8358123Y-14755694D01*
X8478573Y-14710539D01*
X8494168Y-14702001D01*
X8596243Y-14625500D01*
X8608804Y-14612939D01*
X8685305Y-14510864D01*
X8693843Y-14495269D01*
X8738997Y-14374821D01*
X8742624Y-14359566D01*
X8748150Y-14308701D01*
X8748519Y-14301887D01*
X8748519Y-13779330D01*
X8744044Y-13764091D01*
X8742654Y-13762886D01*
X8734971Y-13761215D01*
X7912634Y-13761215D01*
X7897395Y-13765690D01*
X7896190Y-13767080D01*
X7894519Y-13774763D01*
X7894519Y-14747099D01*
X7386519Y-14747099D01*
X7386519Y-13235100D01*
X7894519Y-13235100D01*
X7898994Y-13250339D01*
X7900384Y-13251544D01*
X7908067Y-13253215D01*
X8730403Y-13253215D01*
X8745642Y-13248740D01*
X8746847Y-13247350D01*
X8748518Y-13239667D01*
X8748518Y-12712546D01*
X8748148Y-12705725D01*
X8742624Y-12654863D01*
X8738998Y-12639611D01*
X8693843Y-12519161D01*
X8685305Y-12503566D01*
X8608804Y-12401491D01*
X8596243Y-12388930D01*
X8494168Y-12312429D01*
X8478573Y-12303891D01*
X8358125Y-12258737D01*
X8342870Y-12255110D01*
X8292005Y-12249584D01*
X8285191Y-12249215D01*
X7912634Y-12249215D01*
X7897395Y-12253690D01*
X7896190Y-12255080D01*
X7894519Y-12262763D01*
X7894519Y-13235100D01*
X7386519Y-13235100D01*
X7386519Y-12267331D01*
X7382044Y-12252092D01*
X7362630Y-12235269D01*
X7335924Y-12220687D01*
X7301899Y-12158375D01*
X7299019Y-12131591D01*
X7299019Y-11659081D01*
X7292264Y-11596899D01*
X7241134Y-11460510D01*
X7153780Y-11343954D01*
X7037224Y-11256600D01*
X6900835Y-11205470D01*
X6838653Y-11198715D01*
X6042385Y-11198715D01*
X6038988Y-11199084D01*
X5988053Y-11204617D01*
X5988051Y-11204617D01*
X5980203Y-11205470D01*
X5972810Y-11208242D01*
X5972808Y-11208242D01*
X5934748Y-11222510D01*
X5863941Y-11227693D01*
X5846290Y-11222510D01*
X5808230Y-11208242D01*
X5808228Y-11208242D01*
X5800835Y-11205470D01*
X5792987Y-11204617D01*
X5792985Y-11204617D01*
X5742050Y-11199084D01*
X5738653Y-11198715D01*
X5147255Y-11198715D01*
X5079134Y-11178713D01*
X5032641Y-11125057D01*
X5022537Y-11054783D01*
X5026258Y-11037562D01*
X5053834Y-10942644D01*
X5055629Y-10936466D01*
X5056345Y-10927377D01*
X5058307Y-10902444D01*
X5058307Y-10902438D01*
X5058500Y-10899989D01*
X5058499Y-10500012D01*
X5055629Y-10463534D01*
X5015537Y-10325536D01*
X5012481Y-10315017D01*
X5012480Y-10315015D01*
X5010269Y-10307404D01*
X5006233Y-10300579D01*
X5006231Y-10300575D01*
X4978769Y-10254139D01*
X4961309Y-10185323D01*
X4978769Y-10125861D01*
X5006231Y-10079425D01*
X5006233Y-10079421D01*
X5010269Y-10072596D01*
X5017303Y-10048387D01*
X5053834Y-9922644D01*
X5055629Y-9916466D01*
X5058500Y-9879989D01*
X5058499Y-9480012D01*
X5055629Y-9443534D01*
X5010269Y-9287404D01*
X4927506Y-9147459D01*
X4812541Y-9032494D01*
X4778496Y-9012360D01*
X4679419Y-8953766D01*
X4679418Y-8953766D01*
X4672596Y-8949731D01*
X4664985Y-8947520D01*
X4664983Y-8947519D01*
X4522644Y-8906166D01*
X4522645Y-8906166D01*
X4516466Y-8904371D01*
X4510059Y-8903867D01*
X4510055Y-8903866D01*
X4482444Y-8901693D01*
X4482438Y-8901693D01*
X4479989Y-8901500D01*
X4456724Y-8901500D01*
X4030604Y-8901501D01*
X3962483Y-8881499D01*
X3915990Y-8827844D01*
X3911613Y-8816939D01*
X3890685Y-8756843D01*
X3888368Y-8750189D01*
X3798192Y-8605879D01*
X3678286Y-8485132D01*
X3642254Y-8462265D01*
X3623406Y-8450304D01*
X3534608Y-8393951D01*
X3374300Y-8336868D01*
X3307061Y-8328850D01*
X3266100Y-8323966D01*
X3200827Y-8296039D01*
X3161014Y-8237255D01*
X3155019Y-8198852D01*
X3155019Y-7545569D01*
X3176071Y-7475842D01*
X3179264Y-7471036D01*
X3260410Y-7348902D01*
X3320838Y-7189825D01*
X3321855Y-7182592D01*
X3326197Y-7151690D01*
X3344520Y-7021313D01*
X3344703Y-7008222D01*
X3344763Y-7003961D01*
X3344763Y-7003955D01*
X3344818Y-7000000D01*
X3325850Y-6830892D01*
X3269887Y-6670189D01*
X3263902Y-6660610D01*
X3217013Y-6585574D01*
X3179711Y-6525879D01*
X3059805Y-6405132D01*
X3048706Y-6398088D01*
X2993042Y-6362763D01*
X2916127Y-6313951D01*
X2755819Y-6256868D01*
X2586848Y-6236720D01*
X2579845Y-6237456D01*
X2579844Y-6237456D01*
X2424620Y-6253770D01*
X2424616Y-6253771D01*
X2417612Y-6254507D01*
X2410941Y-6256778D01*
X2263192Y-6307075D01*
X2263189Y-6307076D01*
X2256522Y-6309346D01*
X2250524Y-6313036D01*
X2250522Y-6313037D01*
X2117584Y-6394821D01*
X2117582Y-6394823D01*
X2111585Y-6398512D01*
X1990005Y-6517573D01*
X1986194Y-6523487D01*
X1986192Y-6523489D01*
X1946181Y-6585574D01*
X1897823Y-6660610D01*
X1839622Y-6820516D01*
X1818294Y-6989343D01*
X1834900Y-7158699D01*
X1888613Y-7320167D01*
X1892260Y-7326189D01*
X1892261Y-7326191D01*
X1933312Y-7393973D01*
X1976765Y-7465723D01*
X1981660Y-7470792D01*
X1981848Y-7471036D01*
X2007564Y-7537212D01*
X2008019Y-7547914D01*
X2008019Y-8206939D01*
X1988017Y-8275060D01*
X1934361Y-8321553D01*
X1864087Y-8331657D01*
X1830770Y-8322046D01*
X1672783Y-8251705D01*
X1672781Y-8251705D01*
X1666752Y-8249020D01*
X1578492Y-8230260D01*
X1496689Y-8212872D01*
X1496685Y-8212872D01*
X1490232Y-8211500D01*
X1309768Y-8211500D01*
X1303315Y-8212872D01*
X1303311Y-8212872D01*
X1221508Y-8230260D01*
X1133248Y-8249020D01*
X1127219Y-8251704D01*
X1127217Y-8251705D01*
X974416Y-8319737D01*
X974414Y-8319738D01*
X968386Y-8322422D01*
X963045Y-8326302D01*
X963044Y-8326303D01*
X827731Y-8424613D01*
X827729Y-8424615D01*
X822387Y-8428496D01*
X701633Y-8562607D01*
X611401Y-8718893D01*
X555635Y-8890525D01*
X554945Y-8897090D01*
X552949Y-8916081D01*
X525936Y-8981738D01*
X516732Y-8992009D01*
X500260Y-9008480D01*
X437946Y-9042503D01*
X367131Y-9037436D01*
X347028Y-9027835D01*
X289425Y-8993769D01*
X289421Y-8993767D01*
X282596Y-8989731D01*
X274985Y-8987520D01*
X274983Y-8987519D01*
X132644Y-8946166D01*
X132645Y-8946166D01*
X126466Y-8944371D01*
X120059Y-8943867D01*
X120055Y-8943866D01*
X92444Y-8941693D01*
X92438Y-8941693D01*
X89989Y-8941500D01*
X-159848Y-8941500D01*
X-409988Y-8941501D01*
X-446466Y-8944371D01*
X-543270Y-8972495D01*
X-594983Y-8987519D01*
X-594985Y-8987520D01*
X-602596Y-8989731D01*
X-609419Y-8993766D01*
X-609421Y-8993767D01*
X-640860Y-9012360D01*
X-709677Y-9029820D01*
X-769140Y-9012360D01*
X-800579Y-8993767D01*
X-800581Y-8993766D01*
X-807404Y-8989731D01*
X-815015Y-8987520D01*
X-815017Y-8987519D01*
X-874538Y-8970227D01*
X-909271Y-8960136D01*
X-969106Y-8921923D01*
X-998784Y-8857427D01*
X-988881Y-8787124D01*
X-963213Y-8750044D01*
X433584Y-7353247D01*
X495896Y-7319221D01*
X511257Y-7316861D01*
X565002Y-7311970D01*
X571704Y-7309792D01*
X571706Y-7309792D01*
X720142Y-7261562D01*
X720145Y-7261561D01*
X726841Y-7259385D01*
X873009Y-7172251D01*
X878103Y-7167400D01*
X878107Y-7167397D01*
X955816Y-7093395D01*
X996240Y-7054900D01*
X1013127Y-7029484D01*
X1086509Y-6919034D01*
X1090410Y-6913163D01*
X1150838Y-6754086D01*
X1174520Y-6585574D01*
X1174818Y-6564261D01*
X1155850Y-6395153D01*
X1139375Y-6347842D01*
X1111381Y-6267456D01*
X1099887Y-6234450D01*
X1094510Y-6225844D01*
X1069937Y-6186520D01*
X1009711Y-6090140D01*
X988412Y-6068691D01*
X906284Y-5985988D01*
X889805Y-5969393D01*
X873558Y-5959082D01*
X782386Y-5901223D01*
X746127Y-5878212D01*
X585819Y-5821129D01*
X416848Y-5800981D01*
X409845Y-5801717D01*
X409844Y-5801717D01*
X254620Y-5818031D01*
X254616Y-5818032D01*
X247612Y-5818768D01*
X240941Y-5821039D01*
X93192Y-5871336D01*
X93189Y-5871337D01*
X86522Y-5873607D01*
X80524Y-5877297D01*
X80522Y-5877298D01*
X-52416Y-5959082D01*
X-52418Y-5959084D01*
X-58415Y-5962773D01*
X-179995Y-6081834D01*
X-183806Y-6087748D01*
X-183808Y-6087750D01*
X-265266Y-6214147D01*
X-272177Y-6224871D01*
X-330378Y-6384777D01*
X-340925Y-6468264D01*
X-369305Y-6533337D01*
X-376835Y-6541564D01*
X-2109886Y-8274615D01*
X-2172198Y-8308641D01*
X-2243013Y-8303576D01*
X-2299849Y-8261029D01*
X-2324660Y-8194509D01*
X-2324981Y-8185520D01*
X-2324981Y-7859755D01*
X-2304979Y-7791634D01*
X-2251323Y-7745141D01*
X-2237918Y-7739922D01*
X-2119856Y-7701561D01*
X-2113159Y-7699385D01*
X-1966991Y-7612251D01*
X-1961897Y-7607400D01*
X-1961893Y-7607397D01*
X-1850507Y-7501325D01*
X-1843760Y-7494900D01*
X-1749590Y-7353163D01*
X-1689162Y-7194086D01*
X-1665480Y-7025574D01*
X-1665349Y-7016199D01*
X-1665237Y-7008222D01*
X-1665237Y-7008216D01*
X-1665182Y-7004261D01*
X-1684150Y-6835153D01*
X-1686734Y-6827731D01*
X-1737795Y-6681107D01*
X-1740113Y-6674450D01*
X-1830289Y-6530140D01*
X-1836893Y-6523489D01*
X-1888217Y-6471806D01*
X-1950195Y-6409393D01*
X-1959573Y-6403441D01*
X-2037249Y-6354147D01*
X-2093873Y-6318212D01*
X-2254181Y-6261129D01*
X-2423152Y-6240981D01*
X-2430155Y-6241717D01*
X-2430156Y-6241717D01*
X-2585380Y-6258031D01*
X-2585384Y-6258032D01*
X-2592388Y-6258768D01*
X-2599059Y-6261039D01*
X-2749430Y-6312229D01*
X-2820362Y-6315247D01*
X-2832297Y-6311651D01*
X-2974181Y-6261129D01*
X-3143152Y-6240981D01*
X-3150155Y-6241717D01*
X-3150156Y-6241717D01*
X-3305380Y-6258031D01*
X-3305384Y-6258032D01*
X-3312388Y-6258768D01*
X-3416566Y-6294233D01*
X-3450665Y-6305841D01*
X-3521597Y-6308859D01*
X-3533537Y-6305262D01*
X-3539395Y-6303176D01*
X-3649181Y-6264083D01*
X-3818152Y-6243935D01*
X-3825155Y-6244671D01*
X-3825156Y-6244671D01*
X-3877494Y-6250172D01*
X-3947332Y-6237400D01*
X-3999179Y-6188898D01*
X-4016573Y-6120065D01*
X-3999468Y-6066032D01*
X-4000777Y-6065427D01*
X-3997012Y-6057279D01*
X-3992129Y-6049746D01*
X-3989558Y-6041148D01*
X-3989555Y-6041142D01*
X-3984756Y-6025092D01*
X-3978100Y-6007658D01*
X-3976571Y-6004401D01*
X-3967175Y-5984380D01*
X-3962639Y-5955217D01*
X-3958854Y-5938481D01*
X-3952966Y-5918791D01*
X-3950395Y-5910195D01*
X-3950303Y-5895212D01*
X-3950194Y-5877298D01*
X-3950185Y-5875738D01*
X-3950150Y-5874918D01*
X-3949975Y-5873792D01*
X-3949980Y-5842727D01*
X-3949978Y-5841964D01*
X-3949530Y-5768576D01*
X-3949505Y-5764540D01*
X-3949899Y-5763161D01*
X-3949993Y-5761781D01*
X-3950736Y-1226334D01*
X-3950196Y-1214657D01*
X-3949812Y-1210521D01*
X-3947722Y-1201788D01*
X-3948216Y-1191844D01*
X-3946186Y-1162231D01*
X-3925315Y-1051634D01*
X-3917618Y-1026084D01*
X-3906527Y-999756D01*
X-3866140Y-903882D01*
X-3853240Y-880535D01*
X-3777183Y-771914D01*
X-3759650Y-751801D01*
X-3662423Y-661633D01*
X-3641050Y-645665D01*
X-3527017Y-577995D01*
X-3502758Y-566884D01*
X-3439486Y-545677D01*
X-3377031Y-524743D01*
X-3350990Y-518993D01*
X-3245658Y-507229D01*
X-3229976Y-507532D01*
X-3229969Y-506578D01*
X-3220996Y-506641D01*
X-3212118Y-507977D01*
X-3182065Y-503890D01*
X-3165146Y-502741D01*
X3311244Y-499798D01*
X3322944Y-500338D01*
G37*
%TD.AperFunction*%
%TA.AperFunction,Conductor*%
G36*
X-9033360Y-22167763D02*
G01*
X-8986867Y-22221419D01*
X-8975481Y-22273761D01*
X-8975481Y-22835100D01*
X-8971006Y-22850339D01*
X-8969616Y-22851544D01*
X-8961933Y-22853215D01*
X-6777597Y-22853215D01*
X-6762358Y-22848740D01*
X-6761153Y-22847350D01*
X-6759482Y-22839667D01*
X-6759482Y-22273761D01*
X-6739480Y-22205640D01*
X-6685824Y-22159147D01*
X-6633482Y-22147761D01*
X-3447307Y-22147761D01*
X-3378314Y-22168329D01*
X-3280185Y-22232543D01*
X-3234136Y-22286580D01*
X-3223779Y-22325677D01*
X-3219241Y-22371951D01*
X-3219207Y-22372301D01*
X-3232466Y-22442049D01*
X-3281328Y-22493556D01*
X-3332311Y-22509997D01*
X-3358179Y-22512533D01*
X-3358183Y-22512534D01*
X-3364314Y-22513135D01*
X-3370215Y-22514917D01*
X-3370217Y-22514917D01*
X-3443534Y-22537053D01*
X-3553650Y-22570299D01*
X-3728277Y-22663149D01*
X-3800422Y-22721989D01*
X-3876768Y-22784255D01*
X-3876771Y-22784258D01*
X-3881543Y-22788150D01*
X-3885470Y-22792897D01*
X-3885472Y-22792899D01*
X-4003682Y-22935790D01*
X-4003684Y-22935794D01*
X-4007611Y-22940540D01*
X-4101679Y-23114514D01*
X-4160163Y-23303447D01*
X-4180836Y-23500140D01*
X-4176895Y-23543445D01*
X-4164582Y-23678739D01*
X-4162911Y-23697103D01*
X-4161173Y-23703009D01*
X-4161172Y-23703013D01*
X-4149953Y-23741131D01*
X-4107071Y-23886834D01*
X-4104218Y-23892292D01*
X-4104216Y-23892296D01*
X-4056761Y-23983068D01*
X-4015441Y-24062105D01*
X-3891513Y-24216240D01*
X-3886789Y-24220204D01*
X-3842165Y-24257648D01*
X-3740007Y-24343369D01*
X-3736656Y-24345211D01*
X-3692263Y-24399575D01*
X-3684217Y-24470114D01*
X-3719262Y-24537641D01*
X-5459886Y-26278265D01*
X-5522198Y-26312291D01*
X-5593013Y-26307226D01*
X-5649849Y-26264679D01*
X-5674660Y-26198159D01*
X-5674981Y-26189170D01*
X-5674981Y-24969830D01*
X-5653929Y-24900103D01*
X-5652136Y-24897404D01*
X-5569590Y-24773163D01*
X-5509162Y-24614086D01*
X-5485480Y-24445574D01*
X-5485182Y-24424261D01*
X-5504150Y-24255153D01*
X-5512270Y-24231834D01*
X-5557795Y-24101107D01*
X-5560113Y-24094450D01*
X-5650289Y-23950140D01*
X-5770195Y-23829393D01*
X-5780884Y-23822609D01*
X-5858290Y-23773486D01*
X-5913873Y-23738212D01*
X-6074181Y-23681129D01*
X-6243152Y-23660981D01*
X-6250155Y-23661717D01*
X-6250156Y-23661717D01*
X-6405380Y-23678031D01*
X-6405384Y-23678032D01*
X-6412388Y-23678768D01*
X-6573478Y-23733607D01*
X-6579476Y-23737297D01*
X-6579833Y-23737465D01*
X-6649987Y-23748371D01*
X-6714900Y-23719618D01*
X-6753964Y-23660334D01*
X-6759481Y-23623457D01*
X-6759481Y-23379330D01*
X-6763956Y-23364091D01*
X-6765346Y-23362886D01*
X-6773029Y-23361215D01*
X-8957365Y-23361215D01*
X-8972604Y-23365690D01*
X-8973809Y-23367080D01*
X-8975480Y-23374763D01*
X-8975480Y-23603428D01*
X-8995482Y-23671549D01*
X-9049138Y-23718042D01*
X-9119412Y-23728146D01*
X-9183992Y-23698652D01*
X-9190886Y-23692212D01*
X-9236543Y-23646235D01*
X-9270195Y-23612347D01*
X-9280681Y-23605692D01*
X-9359242Y-23555836D01*
X-9413873Y-23521166D01*
X-9490133Y-23494011D01*
X-9567546Y-23466445D01*
X-9567551Y-23466444D01*
X-9574181Y-23464083D01*
X-9607066Y-23460162D01*
X-9623901Y-23458154D01*
X-9689174Y-23430226D01*
X-9728986Y-23371443D01*
X-9734981Y-23333040D01*
X-9734981Y-22509273D01*
X-9714979Y-22441152D01*
X-9698076Y-22420177D01*
X-9462563Y-22184665D01*
X-9400251Y-22150640D01*
X-9373468Y-22147761D01*
X-9101481Y-22147761D01*
X-9033360Y-22167763D01*
G37*
%TD.AperFunction*%
%TA.AperFunction,Conductor*%
G36*
X-5061930Y-16788839D02*
G01*
X-5032527Y-16792710D01*
X-5024339Y-16791632D01*
X-5024337Y-16791632D01*
X-5009570Y-16789688D01*
X-4939421Y-16800628D01*
X-4899490Y-16830299D01*
X-4867515Y-16865811D01*
X-4867505Y-16865820D01*
X-4863094Y-16870719D01*
X-4857755Y-16874598D01*
X-4741715Y-16958906D01*
X-4717096Y-16976793D01*
X-4711068Y-16979477D01*
X-4711066Y-16979478D01*
X-4558264Y-17047510D01*
X-4552233Y-17050195D01*
X-4429252Y-17076335D01*
X-4390030Y-17084672D01*
X-4327132Y-17118824D01*
X-4047136Y-17398820D01*
X-4039146Y-17407600D01*
X-4034897Y-17414295D01*
X-4029119Y-17419721D01*
X-4029118Y-17419722D01*
X-3983224Y-17462819D01*
X-3980382Y-17465574D01*
X-3959814Y-17486142D01*
X-3956311Y-17488859D01*
X-3947286Y-17496567D01*
X-3913614Y-17528187D01*
X-3906663Y-17532008D01*
X-3906662Y-17532009D01*
X-3894823Y-17538518D01*
X-3878299Y-17549372D01*
X-3868210Y-17557197D01*
X-3861349Y-17562519D01*
X-3854077Y-17565666D01*
X-3854075Y-17565667D01*
X-3818946Y-17580869D01*
X-3808285Y-17586091D01*
X-3767818Y-17608339D01*
X-3747040Y-17613674D01*
X-3728350Y-17620073D01*
X-3708657Y-17628595D01*
X-3664885Y-17635528D01*
X-3663033Y-17635821D01*
X-3651410Y-17638228D01*
X-3623409Y-17645417D01*
X-3606669Y-17649715D01*
X-3585222Y-17649715D01*
X-3565512Y-17651266D01*
X-3544329Y-17654621D01*
X-3498340Y-17650274D01*
X-3486485Y-17649715D01*
X-308641Y-17649715D01*
X-240520Y-17669717D01*
X-234580Y-17673779D01*
X-181549Y-17712308D01*
X-145096Y-17738793D01*
X-139068Y-17741477D01*
X-139066Y-17741478D01*
X13736Y-17809510D01*
X19767Y-17812195D01*
X108027Y-17830955D01*
X189830Y-17848343D01*
X189834Y-17848343D01*
X196287Y-17849715D01*
X376751Y-17849715D01*
X383204Y-17848343D01*
X383208Y-17848343D01*
X465011Y-17830955D01*
X553271Y-17812195D01*
X559302Y-17809510D01*
X712104Y-17741478D01*
X712106Y-17741477D01*
X718134Y-17738793D01*
X723476Y-17734912D01*
X858788Y-17636602D01*
X858790Y-17636600D01*
X864132Y-17632719D01*
X868553Y-17627809D01*
X873456Y-17623394D01*
X874311Y-17624344D01*
X928832Y-17590757D01*
X999815Y-17592110D01*
X1058799Y-17631626D01*
X1087056Y-17696757D01*
X1088019Y-17712308D01*
X1088019Y-19678170D01*
X1068017Y-19746291D01*
X1051114Y-19767265D01*
X-1492823Y-22311202D01*
X-1555135Y-22345228D01*
X-1625950Y-22340163D01*
X-1682786Y-22297616D01*
X-1707133Y-22236151D01*
X-1707484Y-22233017D01*
X-1725669Y-22070892D01*
X-1781632Y-21910189D01*
X-1786636Y-21902180D01*
X-1871808Y-21765879D01*
X-1870623Y-21765138D01*
X-1894364Y-21706480D01*
X-1894981Y-21694028D01*
X-1894981Y-21160111D01*
X-1893903Y-21143665D01*
X-1891110Y-21122449D01*
X-1890032Y-21114261D01*
X-1909742Y-20964547D01*
X-1913073Y-20956504D01*
X-1921883Y-20935236D01*
X-1967529Y-20825037D01*
X-1984622Y-20802761D01*
X-2001971Y-20780151D01*
X-2054427Y-20711789D01*
X-2054430Y-20711786D01*
X-2059456Y-20705236D01*
X-2070055Y-20697103D01*
X-2082991Y-20687176D01*
X-2095382Y-20676309D01*
X-2120013Y-20651678D01*
X-2154039Y-20589366D01*
X-2156133Y-20576628D01*
X-2163365Y-20512150D01*
X-2163365Y-20512148D01*
X-2164150Y-20505153D01*
X-2220113Y-20344450D01*
X-2226098Y-20334871D01*
X-2263946Y-20274304D01*
X-2310289Y-20200140D01*
X-2318035Y-20192339D01*
X-2409384Y-20100350D01*
X-2430195Y-20079393D01*
X-2446442Y-20069082D01*
X-2555530Y-19999853D01*
X-2573873Y-19988212D01*
X-2734181Y-19931129D01*
X-2903152Y-19910981D01*
X-2910155Y-19911717D01*
X-2910156Y-19911717D01*
X-3065380Y-19928031D01*
X-3065384Y-19928032D01*
X-3072388Y-19928768D01*
X-3079059Y-19931039D01*
X-3226808Y-19981336D01*
X-3226811Y-19981337D01*
X-3233478Y-19983607D01*
X-3239476Y-19987297D01*
X-3239478Y-19987298D01*
X-3372416Y-20069082D01*
X-3372418Y-20069084D01*
X-3378415Y-20072773D01*
X-3402244Y-20096108D01*
X-3488913Y-20180982D01*
X-3499995Y-20191834D01*
X-3503806Y-20197748D01*
X-3503808Y-20197750D01*
X-3543738Y-20259709D01*
X-3592177Y-20334871D01*
X-3650378Y-20494777D01*
X-3660925Y-20578264D01*
X-3689305Y-20643337D01*
X-3696835Y-20651564D01*
X-3779127Y-20733856D01*
X-3841439Y-20767882D01*
X-3868222Y-20770761D01*
X-6080951Y-20770761D01*
X-6149072Y-20750759D01*
X-6195565Y-20697103D01*
X-6200365Y-20682897D01*
X-6200668Y-20683002D01*
X-6258336Y-20517405D01*
X-6262202Y-20509335D01*
X-6271249Y-20501293D01*
X-6280298Y-20505288D01*
X-6508866Y-20733856D01*
X-6571178Y-20767882D01*
X-6597961Y-20770761D01*
X-7399001Y-20770761D01*
X-7467122Y-20750759D01*
X-7483857Y-20737273D01*
X-7499613Y-20728669D01*
X-7501446Y-20728800D01*
X-7508061Y-20733051D01*
X-7508866Y-20733856D01*
X-7511843Y-20735482D01*
X-7519454Y-20740373D01*
X-7519804Y-20739829D01*
X-7571178Y-20767882D01*
X-7597961Y-20770761D01*
X-8399001Y-20770761D01*
X-8467122Y-20750759D01*
X-8483857Y-20737273D01*
X-8499613Y-20728669D01*
X-8501446Y-20728800D01*
X-8508061Y-20733051D01*
X-8508866Y-20733856D01*
X-8511843Y-20735482D01*
X-8519454Y-20740373D01*
X-8519804Y-20739829D01*
X-8571178Y-20767882D01*
X-8597961Y-20770761D01*
X-9399001Y-20770761D01*
X-9467122Y-20750759D01*
X-9488096Y-20733856D01*
X-9714636Y-20507316D01*
X-9727016Y-20500556D01*
X-9732497Y-20504659D01*
X-9733712Y-20507106D01*
X-9791277Y-20665264D01*
X-9796226Y-20685720D01*
X-9798325Y-20685212D01*
X-9822548Y-20740751D01*
X-9881609Y-20780151D01*
X-9894959Y-20783091D01*
X-9900010Y-20784444D01*
X-9908196Y-20785522D01*
X-9915825Y-20788682D01*
X-10040078Y-20840149D01*
X-10040080Y-20840150D01*
X-10047706Y-20843309D01*
X-10054256Y-20848335D01*
X-10125618Y-20903094D01*
X-10149142Y-20921145D01*
X-10167506Y-20935236D01*
X-10184143Y-20956918D01*
X-10185562Y-20958767D01*
X-10196429Y-20971158D01*
X-11116584Y-21891313D01*
X-11128975Y-21902180D01*
X-11152506Y-21920236D01*
X-11175588Y-21950317D01*
X-11244433Y-22040037D01*
X-11302220Y-22179547D01*
X-11303298Y-22187735D01*
X-11310032Y-22238888D01*
X-11321930Y-22329261D01*
X-11320852Y-22337450D01*
X-11318059Y-22358666D01*
X-11316981Y-22375111D01*
X-11316981Y-22954565D01*
X-11336983Y-23022686D01*
X-11390639Y-23069179D01*
X-11429812Y-23079875D01*
X-11433219Y-23080233D01*
X-11440379Y-23080985D01*
X-11440382Y-23080986D01*
X-11447388Y-23081722D01*
X-11454059Y-23083993D01*
X-11508876Y-23102654D01*
X-11579808Y-23105672D01*
X-11641112Y-23069862D01*
X-11673324Y-23006593D01*
X-11675481Y-22983376D01*
X-11675481Y-21168477D01*
X-11655479Y-21100356D01*
X-11638576Y-21079382D01*
X-10924587Y-20365393D01*
X-9134073Y-20365393D01*
X-9133942Y-20367226D01*
X-9129691Y-20373841D01*
X-9011293Y-20492239D01*
X-8997349Y-20499853D01*
X-8995516Y-20499722D01*
X-8988901Y-20495471D01*
X-8870503Y-20377073D01*
X-8864125Y-20365393D01*
X-8134073Y-20365393D01*
X-8133942Y-20367226D01*
X-8129691Y-20373841D01*
X-8011293Y-20492239D01*
X-7997349Y-20499853D01*
X-7995516Y-20499722D01*
X-7988901Y-20495471D01*
X-7870503Y-20377073D01*
X-7864125Y-20365393D01*
X-7134073Y-20365393D01*
X-7133942Y-20367226D01*
X-7129691Y-20373841D01*
X-7011293Y-20492239D01*
X-6997349Y-20499853D01*
X-6995516Y-20499722D01*
X-6988901Y-20495471D01*
X-6870503Y-20377073D01*
X-6862889Y-20363129D01*
X-6863020Y-20361296D01*
X-6867271Y-20354681D01*
X-6985669Y-20236283D01*
X-6999613Y-20228669D01*
X-7001446Y-20228800D01*
X-7008061Y-20233051D01*
X-7126459Y-20351449D01*
X-7134073Y-20365393D01*
X-7864125Y-20365393D01*
X-7862889Y-20363129D01*
X-7863020Y-20361296D01*
X-7867271Y-20354681D01*
X-7985669Y-20236283D01*
X-7999613Y-20228669D01*
X-8001446Y-20228800D01*
X-8008061Y-20233051D01*
X-8126459Y-20351449D01*
X-8134073Y-20365393D01*
X-8864125Y-20365393D01*
X-8862889Y-20363129D01*
X-8863020Y-20361296D01*
X-8867271Y-20354681D01*
X-8985669Y-20236283D01*
X-8999613Y-20228669D01*
X-9001446Y-20228800D01*
X-9008061Y-20233051D01*
X-9126459Y-20351449D01*
X-9134073Y-20365393D01*
X-10924587Y-20365393D01*
X-10419045Y-19859851D01*
X-9815857Y-19859851D01*
X-9799434Y-20027355D01*
X-9796523Y-20041048D01*
X-9743397Y-20200750D01*
X-9737525Y-20213459D01*
X-9735354Y-20217044D01*
X-9724947Y-20226559D01*
X-9716326Y-20222896D01*
X-9370503Y-19877073D01*
X-9364125Y-19865393D01*
X-8634073Y-19865393D01*
X-8633942Y-19867226D01*
X-8629691Y-19873841D01*
X-8511293Y-19992239D01*
X-8497349Y-19999853D01*
X-8495516Y-19999722D01*
X-8488901Y-19995471D01*
X-8370503Y-19877073D01*
X-8364125Y-19865393D01*
X-7634073Y-19865393D01*
X-7633942Y-19867226D01*
X-7629691Y-19873841D01*
X-7511293Y-19992239D01*
X-7497349Y-19999853D01*
X-7495516Y-19999722D01*
X-7488901Y-19995471D01*
X-7370503Y-19877073D01*
X-7364125Y-19865393D01*
X-6634073Y-19865393D01*
X-6633942Y-19867226D01*
X-6629691Y-19873841D01*
X-6282105Y-20221427D01*
X-6269725Y-20228187D01*
X-6265909Y-20225330D01*
X-6208543Y-20074314D01*
X-6205059Y-20060745D01*
X-6181208Y-19891029D01*
X-6180601Y-19883143D01*
X-6180392Y-19868223D01*
X-6180779Y-19860322D01*
X-6199883Y-19689998D01*
X-6202984Y-19676352D01*
X-6258336Y-19517405D01*
X-6262202Y-19509335D01*
X-6271249Y-19501293D01*
X-6280298Y-19505288D01*
X-6626459Y-19851449D01*
X-6634073Y-19865393D01*
X-7364125Y-19865393D01*
X-7362889Y-19863129D01*
X-7363020Y-19861296D01*
X-7367271Y-19854681D01*
X-7485669Y-19736283D01*
X-7499613Y-19728669D01*
X-7501446Y-19728800D01*
X-7508061Y-19733051D01*
X-7626459Y-19851449D01*
X-7634073Y-19865393D01*
X-8364125Y-19865393D01*
X-8362889Y-19863129D01*
X-8363020Y-19861296D01*
X-8367271Y-19854681D01*
X-8485669Y-19736283D01*
X-8499613Y-19728669D01*
X-8501446Y-19728800D01*
X-8508061Y-19733051D01*
X-8626459Y-19851449D01*
X-8634073Y-19865393D01*
X-9364125Y-19865393D01*
X-9362889Y-19863129D01*
X-9363020Y-19861296D01*
X-9367271Y-19854681D01*
X-9714636Y-19507316D01*
X-9728581Y-19499701D01*
X-9735247Y-19500178D01*
X-9737774Y-19518265D01*
X-9791275Y-19665259D01*
X-9794568Y-19678870D01*
X-9815661Y-19845844D01*
X-9815857Y-19859851D01*
X-10419045Y-19859851D01*
X-9945270Y-19386076D01*
X-9907393Y-19365393D01*
X-9134073Y-19365393D01*
X-9133942Y-19367226D01*
X-9129691Y-19373841D01*
X-9011293Y-19492239D01*
X-8997349Y-19499853D01*
X-8995516Y-19499722D01*
X-8988901Y-19495471D01*
X-8870503Y-19377073D01*
X-8864125Y-19365393D01*
X-8134073Y-19365393D01*
X-8133942Y-19367226D01*
X-8129691Y-19373841D01*
X-8011293Y-19492239D01*
X-7997349Y-19499853D01*
X-7995516Y-19499722D01*
X-7988901Y-19495471D01*
X-7870503Y-19377073D01*
X-7864125Y-19365393D01*
X-7134073Y-19365393D01*
X-7133942Y-19367226D01*
X-7129691Y-19373841D01*
X-7011293Y-19492239D01*
X-6997349Y-19499853D01*
X-6995516Y-19499722D01*
X-6988901Y-19495471D01*
X-6870503Y-19377073D01*
X-6862889Y-19363129D01*
X-6863020Y-19361296D01*
X-6867271Y-19354681D01*
X-6985669Y-19236283D01*
X-6999613Y-19228669D01*
X-7001446Y-19228800D01*
X-7008061Y-19233051D01*
X-7126459Y-19351449D01*
X-7134073Y-19365393D01*
X-7864125Y-19365393D01*
X-7862889Y-19363129D01*
X-7863020Y-19361296D01*
X-7867271Y-19354681D01*
X-7985669Y-19236283D01*
X-7999613Y-19228669D01*
X-8001446Y-19228800D01*
X-8008061Y-19233051D01*
X-8126459Y-19351449D01*
X-8134073Y-19365393D01*
X-8864125Y-19365393D01*
X-8862889Y-19363129D01*
X-8863020Y-19361296D01*
X-8867271Y-19354681D01*
X-8985669Y-19236283D01*
X-8999613Y-19228669D01*
X-9001446Y-19228800D01*
X-9008061Y-19233051D01*
X-9126459Y-19351449D01*
X-9134073Y-19365393D01*
X-9907393Y-19365393D01*
X-9882958Y-19352050D01*
X-9876868Y-19352486D01*
X-9857239Y-19299858D01*
X-9845466Y-19286272D01*
X-9823797Y-19264603D01*
X-9761485Y-19230577D01*
X-9732899Y-19229937D01*
X-9716326Y-19222896D01*
X-9358823Y-18865393D01*
X-8634073Y-18865393D01*
X-8633942Y-18867226D01*
X-8629691Y-18873841D01*
X-8511293Y-18992239D01*
X-8497349Y-18999853D01*
X-8495516Y-18999722D01*
X-8488901Y-18995471D01*
X-8370503Y-18877073D01*
X-8364125Y-18865393D01*
X-7634073Y-18865393D01*
X-7633942Y-18867226D01*
X-7629691Y-18873841D01*
X-7511293Y-18992239D01*
X-7497349Y-18999853D01*
X-7495516Y-18999722D01*
X-7488901Y-18995471D01*
X-7370503Y-18877073D01*
X-7364125Y-18865393D01*
X-6634073Y-18865393D01*
X-6633942Y-18867226D01*
X-6629691Y-18873841D01*
X-6282105Y-19221427D01*
X-6269725Y-19228187D01*
X-6265909Y-19225330D01*
X-6208543Y-19074314D01*
X-6205059Y-19060745D01*
X-6181208Y-18891029D01*
X-6180601Y-18883143D01*
X-6180392Y-18868223D01*
X-6180779Y-18860322D01*
X-6199883Y-18689998D01*
X-6202984Y-18676352D01*
X-6258336Y-18517405D01*
X-6262202Y-18509335D01*
X-6271249Y-18501293D01*
X-6280298Y-18505288D01*
X-6626459Y-18851449D01*
X-6634073Y-18865393D01*
X-7364125Y-18865393D01*
X-7362889Y-18863129D01*
X-7363020Y-18861296D01*
X-7367271Y-18854681D01*
X-7485669Y-18736283D01*
X-7499613Y-18728669D01*
X-7501446Y-18728800D01*
X-7508061Y-18733051D01*
X-7626459Y-18851449D01*
X-7634073Y-18865393D01*
X-8364125Y-18865393D01*
X-8362889Y-18863129D01*
X-8363020Y-18861296D01*
X-8367271Y-18854681D01*
X-8485669Y-18736283D01*
X-8499613Y-18728669D01*
X-8501446Y-18728800D01*
X-8508061Y-18733051D01*
X-8626459Y-18851449D01*
X-8634073Y-18865393D01*
X-9358823Y-18865393D01*
X-8641947Y-18148517D01*
X-8634997Y-18135791D01*
X-8361809Y-18135791D01*
X-8357277Y-18146255D01*
X-8011293Y-18492239D01*
X-7997349Y-18499853D01*
X-7995516Y-18499722D01*
X-7988901Y-18495471D01*
X-7641947Y-18148517D01*
X-7635891Y-18137426D01*
X-7361101Y-18137426D01*
X-7357277Y-18146255D01*
X-7011293Y-18492239D01*
X-6997349Y-18499853D01*
X-6995516Y-18499722D01*
X-6988901Y-18495471D01*
X-6641947Y-18148517D01*
X-6635187Y-18136137D01*
X-6639998Y-18129710D01*
X-6646469Y-18126554D01*
X-6805023Y-18070095D01*
X-6818647Y-18066899D01*
X-6985776Y-18046971D01*
X-6999773Y-18046873D01*
X-7167159Y-18064466D01*
X-7180833Y-18067472D01*
X-7340166Y-18121714D01*
X-7351922Y-18127245D01*
X-7361101Y-18137426D01*
X-7635891Y-18137426D01*
X-7635187Y-18136137D01*
X-7639998Y-18129710D01*
X-7646469Y-18126554D01*
X-7805023Y-18070095D01*
X-7818647Y-18066899D01*
X-7985776Y-18046971D01*
X-7999773Y-18046873D01*
X-8167159Y-18064466D01*
X-8180836Y-18067473D01*
X-8344211Y-18123090D01*
X-8359836Y-18123755D01*
X-8361809Y-18135791D01*
X-8634997Y-18135791D01*
X-8633406Y-18132877D01*
X-8619104Y-18067128D01*
X-8597611Y-18038417D01*
X-8573232Y-18014038D01*
X-8510920Y-17980012D01*
X-8503978Y-17980509D01*
X-8501551Y-17956389D01*
X-8473911Y-17914717D01*
X-7383860Y-16824666D01*
X-7321548Y-16790640D01*
X-7294765Y-16787761D01*
X-5078377Y-16787761D01*
X-5061930Y-16788839D01*
G37*
%TD.AperFunction*%
%TA.AperFunction,Conductor*%
G36*
X3546449Y-13815633D02*
G01*
X3612291Y-13827436D01*
X3664308Y-13875755D01*
X3682019Y-13940172D01*
X3682019Y-18710520D01*
X3662017Y-18778641D01*
X3645114Y-18799615D01*
X3370114Y-19074615D01*
X3307802Y-19108641D01*
X3236987Y-19103576D01*
X3180151Y-19061029D01*
X3155340Y-18994509D01*
X3155019Y-18985520D01*
X3155019Y-13941214D01*
X3175021Y-13873093D01*
X3228677Y-13826600D01*
X3281019Y-13815214D01*
X3536188Y-13815214D01*
X3546396Y-13814661D01*
X3546449Y-13815633D01*
G37*
%TD.AperFunction*%
%TA.AperFunction,Conductor*%
G36*
X5479352Y-13835717D02*
G01*
X5525845Y-13889373D01*
X5535949Y-13959647D01*
X5506455Y-14024227D01*
X5499389Y-14031738D01*
X5435005Y-14094788D01*
X5431194Y-14100702D01*
X5431192Y-14100704D01*
X5346640Y-14231902D01*
X5342823Y-14237825D01*
X5319506Y-14301887D01*
X5292961Y-14374821D01*
X5284622Y-14397731D01*
X5274075Y-14481218D01*
X5245695Y-14546291D01*
X5238165Y-14554518D01*
X5044114Y-14748569D01*
X4981802Y-14782595D01*
X4910987Y-14777530D01*
X4854151Y-14734983D01*
X4829340Y-14668463D01*
X4829019Y-14659474D01*
X4829019Y-13941715D01*
X4849021Y-13873594D01*
X4902677Y-13827101D01*
X4955019Y-13815715D01*
X5411231Y-13815715D01*
X5479352Y-13835717D01*
G37*
%TD.AperFunction*%
%TD*%
M02*
