%TF.GenerationSoftware,KiCad,Pcbnew,(6.0.11)*%
%TF.CreationDate,2023-01-29T19:30:00+08:00*%
%TF.ProjectId,UINIO-Cubic-Prism,55494e49-4f2d-4437-9562-69632d507269,Version 3.0.0*%
%TF.SameCoordinates,PX8dfe190PY501e410*%
%TF.FileFunction,Soldermask,Top*%
%TF.FilePolarity,Negative*%
%FSLAX46Y46*%
G04 Gerber Fmt 4.6, Leading zero omitted, Abs format (unit mm)*
G04 Created by KiCad (PCBNEW (6.0.11)) date 2023-01-29 19:30:00*
%MOMM*%
%LPD*%
G01*
G04 APERTURE LIST*
G04 Aperture macros list*
%AMRoundRect*
0 Rectangle with rounded corners*
0 $1 Rounding radius*
0 $2 $3 $4 $5 $6 $7 $8 $9 X,Y pos of 4 corners*
0 Add a 4 corners polygon primitive as box body*
4,1,4,$2,$3,$4,$5,$6,$7,$8,$9,$2,$3,0*
0 Add four circle primitives for the rounded corners*
1,1,$1+$1,$2,$3*
1,1,$1+$1,$4,$5*
1,1,$1+$1,$6,$7*
1,1,$1+$1,$8,$9*
0 Add four rect primitives between the rounded corners*
20,1,$1+$1,$2,$3,$4,$5,0*
20,1,$1+$1,$4,$5,$6,$7,0*
20,1,$1+$1,$6,$7,$8,$9,0*
20,1,$1+$1,$8,$9,$2,$3,0*%
G04 Aperture macros list end*
%ADD10R,1.070000X0.532000*%
%ADD11R,1.000000X0.600000*%
%ADD12RoundRect,0.087500X0.087500X-2.412500X0.087500X2.412500X-0.087500X2.412500X-0.087500X-2.412500X0*%
%ADD13RoundRect,0.135000X0.185000X-0.135000X0.185000X0.135000X-0.185000X0.135000X-0.185000X-0.135000X0*%
%ADD14R,1.200000X0.850000*%
%ADD15RoundRect,0.140000X0.140000X0.170000X-0.140000X0.170000X-0.140000X-0.170000X0.140000X-0.170000X0*%
%ADD16R,5.400000X5.400000*%
%ADD17R,0.280000X0.800000*%
%ADD18R,0.800000X0.280000*%
%ADD19C,0.610000*%
%ADD20O,0.280000X0.800000*%
%ADD21O,0.800000X0.280000*%
%ADD22R,2.700000X2.700000*%
%ADD23RoundRect,0.140000X-0.140000X-0.170000X0.140000X-0.170000X0.140000X0.170000X-0.140000X0.170000X0*%
%ADD24RoundRect,0.140000X-0.170000X0.140000X-0.170000X-0.140000X0.170000X-0.140000X0.170000X0.140000X0*%
%ADD25RoundRect,0.140000X0.170000X-0.140000X0.170000X0.140000X-0.170000X0.140000X-0.170000X-0.140000X0*%
%ADD26R,2.300000X0.800000*%
%ADD27RoundRect,0.135000X0.135000X0.185000X-0.135000X0.185000X-0.135000X-0.185000X0.135000X-0.185000X0*%
%ADD28R,0.550000X0.250000*%
%ADD29R,0.300000X1.500000*%
%ADD30R,2.000000X1.500000*%
%ADD31R,0.980000X2.470000*%
%ADD32R,3.600000X2.470000*%
%ADD33RoundRect,0.135000X-0.185000X0.135000X-0.185000X-0.135000X0.185000X-0.135000X0.185000X0.135000X0*%
%ADD34R,0.280000X0.905000*%
%ADD35R,0.905000X0.280000*%
%ADD36R,3.350000X3.350000*%
%ADD37C,0.650000*%
%ADD38O,1.000000X2.100000*%
%ADD39O,1.000000X1.900000*%
%ADD40R,0.600000X1.150000*%
%ADD41R,0.300000X1.150000*%
%ADD42C,1.000000*%
G04 APERTURE END LIST*
D10*
%TO.C,VT2*%
X9376019Y-13134261D03*
X9376019Y-11234261D03*
X7106019Y-12184261D03*
%TD*%
D11*
%TO.C,U7*%
X-6528481Y-30074261D03*
X-6528481Y-29124261D03*
X-6528481Y-28174261D03*
X-9128481Y-28174261D03*
X-9128481Y-30074261D03*
%TD*%
D12*
%TO.C,U6*%
X23251519Y-26102215D03*
X23951519Y-26102215D03*
X24651519Y-26102215D03*
X25351519Y-26102215D03*
X26051519Y-26102215D03*
X26751519Y-26102215D03*
X27451519Y-26102215D03*
X28151519Y-26102215D03*
X28851519Y-26102215D03*
X29551519Y-26102215D03*
X30251519Y-26102215D03*
X30951519Y-26102215D03*
%TD*%
D13*
%TO.C,R6*%
X10661019Y-9344261D03*
X10661019Y-8324261D03*
%TD*%
D11*
%TO.C,U10*%
X35214519Y-28387215D03*
X35214519Y-29337215D03*
X35214519Y-30287215D03*
X37814519Y-30287215D03*
X37814519Y-28387215D03*
%TD*%
D14*
%TO.C,U11*%
X2476519Y-4767215D03*
X2476519Y-1567215D03*
X-2323481Y-1567215D03*
X-2323481Y-4767215D03*
%TD*%
D15*
%TO.C,C6*%
X1836519Y-16177215D03*
X876519Y-16177215D03*
%TD*%
D16*
%TO.C,U5*%
X-7998481Y-19864261D03*
D17*
X-10748481Y-16364261D03*
X-10248481Y-16364261D03*
X-9748481Y-16364261D03*
X-9248481Y-16364261D03*
X-8748481Y-16364261D03*
X-8248481Y-16364261D03*
X-7748481Y-16364261D03*
X-7248481Y-16364261D03*
X-6748481Y-16364261D03*
X-6248481Y-16364261D03*
X-5748481Y-16364261D03*
X-5248481Y-16364261D03*
D18*
X-4498481Y-17114261D03*
X-4498481Y-17614261D03*
X-4498481Y-18114261D03*
X-4498481Y-18614261D03*
X-4498481Y-19114261D03*
X-4498481Y-19614261D03*
X-4498481Y-20114261D03*
X-4498481Y-20614261D03*
X-4498481Y-21114261D03*
X-4498481Y-21614261D03*
X-4498481Y-22114261D03*
X-4498481Y-22614261D03*
D17*
X-5248481Y-23364261D03*
X-5748481Y-23364261D03*
X-6248481Y-23364261D03*
X-6748481Y-23364261D03*
X-7248481Y-23364261D03*
X-7748481Y-23364261D03*
X-8248481Y-23364261D03*
X-8748481Y-23364261D03*
X-9248481Y-23364261D03*
X-9748481Y-23364261D03*
X-10248481Y-23364261D03*
X-10748481Y-23364261D03*
D18*
X-11498481Y-22614261D03*
X-11498481Y-22114261D03*
X-11498481Y-21614261D03*
X-11498481Y-21114261D03*
X-11498481Y-20614261D03*
X-11498481Y-20114261D03*
X-11498481Y-19614261D03*
X-11498481Y-19114261D03*
X-11498481Y-18614261D03*
X-11498481Y-18114261D03*
X-11498481Y-17614261D03*
X-11498481Y-17114261D03*
D19*
X-8998481Y-18864261D03*
X-7998481Y-19864261D03*
X-6998481Y-18864261D03*
X-7998481Y-18864261D03*
X-8998481Y-19864261D03*
X-6998481Y-19864261D03*
X-6998481Y-20864261D03*
X-7998481Y-20864261D03*
X-8998481Y-20864261D03*
%TD*%
D20*
%TO.C,U8*%
X-1158481Y-21897261D03*
X-658481Y-21897261D03*
X-158481Y-21897261D03*
X341519Y-21897261D03*
X841519Y-21897261D03*
X1341519Y-21897261D03*
D21*
X2091519Y-21147261D03*
X2091519Y-20647261D03*
X2091519Y-20147261D03*
X2091519Y-19647261D03*
X2091519Y-19147261D03*
X2091519Y-18647261D03*
D20*
X1341519Y-17897261D03*
X841519Y-17897261D03*
X341519Y-17897261D03*
X-158481Y-17897261D03*
X-658481Y-17897261D03*
X-1150481Y-17897261D03*
D21*
X-1908481Y-18647261D03*
X-1908481Y-19147261D03*
X-1908481Y-19647261D03*
X-1908481Y-20147261D03*
X-1908481Y-20647261D03*
X-1908481Y-21147261D03*
D22*
X103519Y-19897261D03*
%TD*%
D23*
%TO.C,C9*%
X-11538481Y-28174261D03*
X-10578481Y-28174261D03*
%TD*%
D24*
%TO.C,C4*%
X-9653481Y-14097215D03*
X-9653481Y-15057215D03*
%TD*%
%TO.C,C1*%
X7371519Y-28784261D03*
X7371519Y-29744261D03*
%TD*%
%TO.C,C2*%
X-8623481Y-14097215D03*
X-8623481Y-15057215D03*
%TD*%
D25*
%TO.C,C5*%
X39936519Y-29347215D03*
X39936519Y-28387215D03*
%TD*%
D15*
%TO.C,C11*%
X-348481Y-16197215D03*
X-1308481Y-16197215D03*
%TD*%
D13*
%TO.C,R10*%
X39956519Y-23677215D03*
X39956519Y-22657215D03*
%TD*%
D26*
%TO.C,U4*%
X-11250000Y-12620000D03*
X-11250000Y-7620000D03*
%TD*%
D27*
%TO.C,R8*%
X10017519Y-27236261D03*
X8997519Y-27236261D03*
%TD*%
D28*
%TO.C,U2*%
X8911519Y-28747215D03*
X8911519Y-29247215D03*
X8911519Y-29747215D03*
X11661519Y-29747215D03*
X11661519Y-29247215D03*
X11661519Y-28747215D03*
%TD*%
D24*
%TO.C,C12*%
X-19803481Y-29247215D03*
X-19803481Y-30207215D03*
%TD*%
D10*
%TO.C,Q2*%
X-21278481Y-15047215D03*
X-21278481Y-13147215D03*
X-23548481Y-14097215D03*
%TD*%
%TO.C,VT1*%
X9376019Y-9764261D03*
X9376019Y-7864261D03*
X7106019Y-8814261D03*
%TD*%
D25*
%TO.C,C7*%
X3376519Y-18995215D03*
X3376519Y-18035215D03*
%TD*%
D27*
%TO.C,R7*%
X11645019Y-23944261D03*
X10625019Y-23944261D03*
%TD*%
D12*
%TO.C,U14*%
X-36708481Y-26072215D03*
X-36008481Y-26072215D03*
X-35308481Y-26072215D03*
X-34608481Y-26072215D03*
X-33908481Y-26072215D03*
X-33208481Y-26072215D03*
X-32508481Y-26072215D03*
X-31808481Y-26072215D03*
X-31108481Y-26072215D03*
X-30408481Y-26072215D03*
X-29708481Y-26072215D03*
X-29008481Y-26072215D03*
%TD*%
D10*
%TO.C,Q1*%
X37649519Y-23683215D03*
X37649519Y-21783215D03*
X35379519Y-22733215D03*
%TD*%
D24*
%TO.C,C13*%
X-22083481Y-29247215D03*
X-22083481Y-30207215D03*
%TD*%
D29*
%TO.C,U9*%
X-1598481Y-7674261D03*
X-1098481Y-7674261D03*
X-598481Y-7674261D03*
X-98481Y-7674261D03*
X401519Y-7674261D03*
X901519Y-7674261D03*
X1401519Y-7674261D03*
X1901519Y-7674261D03*
D30*
X3601519Y-10274261D03*
X-3298481Y-10274261D03*
%TD*%
D13*
%TO.C,R12*%
X-19433481Y-14617215D03*
X-19433481Y-13597215D03*
%TD*%
D25*
%TO.C,C8*%
X3386519Y-21789215D03*
X3386519Y-20829215D03*
%TD*%
D23*
%TO.C,C10*%
X-11558481Y-30074261D03*
X-10598481Y-30074261D03*
%TD*%
D31*
%TO.C,U13*%
X-24403481Y-26352215D03*
X-22103481Y-26352215D03*
X-19803481Y-26352215D03*
D32*
X-22103481Y-20682215D03*
%TD*%
D33*
%TO.C,R9*%
X5370000Y-19360000D03*
X5370000Y-20380000D03*
%TD*%
D34*
%TO.C,U1*%
X7857019Y-22257261D03*
X8357019Y-22257261D03*
X8857019Y-22257261D03*
X9357019Y-22257261D03*
X9857019Y-22257261D03*
X10357019Y-22257261D03*
X10857019Y-22257261D03*
D35*
X11734019Y-21380261D03*
X11734019Y-20880261D03*
X11734019Y-20380261D03*
X11734019Y-19880261D03*
X11734019Y-19380261D03*
X11734019Y-18880261D03*
X11734019Y-18380261D03*
D34*
X10857019Y-17503261D03*
X10357019Y-17503261D03*
X9857019Y-17503261D03*
X9357019Y-17503261D03*
X8857019Y-17503261D03*
X8357019Y-17503261D03*
X7857019Y-17503261D03*
D35*
X6980019Y-18380261D03*
X6980019Y-18880261D03*
X6980019Y-19380261D03*
X6980019Y-19880261D03*
X6980019Y-20380261D03*
X6980019Y-20880261D03*
X6980019Y-21380261D03*
D36*
X9357019Y-19880261D03*
%TD*%
D29*
%TO.C,U3*%
X28156519Y-11678715D03*
X28656519Y-11678715D03*
X29156519Y-11678715D03*
X29656519Y-11678715D03*
X30156519Y-11678715D03*
X30656519Y-11678715D03*
X31156519Y-11678715D03*
X31656519Y-11678715D03*
D30*
X33356519Y-14278715D03*
X26456519Y-14278715D03*
%TD*%
D27*
%TO.C,R11*%
X-10548481Y-26204261D03*
X-11568481Y-26204261D03*
%TD*%
D29*
%TO.C,U12*%
X-31883481Y-11477215D03*
X-31383481Y-11477215D03*
X-30883481Y-11477215D03*
X-30383481Y-11477215D03*
X-29883481Y-11477215D03*
X-29383481Y-11477215D03*
X-28883481Y-11477215D03*
X-28383481Y-11477215D03*
D30*
X-26683481Y-14077215D03*
X-33583481Y-14077215D03*
%TD*%
D15*
%TO.C,C3*%
X-10578481Y-25214261D03*
X-11538481Y-25214261D03*
%TD*%
D13*
%TO.C,R5*%
X10661019Y-12714261D03*
X10661019Y-11694261D03*
%TD*%
D37*
%TO.C,USB1*%
X-2730000Y-29551000D03*
X3050000Y-29551000D03*
D38*
X-4165000Y-29051000D03*
X4485000Y-29051000D03*
D39*
X-4165000Y-33251000D03*
X4485000Y-33251000D03*
D40*
X-3040000Y-28289000D03*
X-2240000Y-28289000D03*
D41*
X-1090000Y-28289000D03*
X-90000Y-28289000D03*
X410000Y-28289000D03*
X1410000Y-28289000D03*
D40*
X3360000Y-28289000D03*
X2560000Y-28289000D03*
D41*
X1910000Y-28289000D03*
X910000Y-28289000D03*
X-590000Y-28289000D03*
X-1590000Y-28289000D03*
%TD*%
D42*
%TO.C,Card1*%
X4832519Y-23507215D03*
X-3167481Y-23507215D03*
%TD*%
M02*
