M48
; DRILL file {KiCad (6.0.9)} date Wed Nov 23 18:12:40 2022
; FORMAT={-:-/ absolute / metric / decimal}
; #@! TF.CreationDate,2022-11-23T18:12:40+08:00
; #@! TF.GenerationSoftware,Kicad,Pcbnew,(6.0.9)
; #@! TF.FileFunction,MixedPlating,1,2
FMAT,2
METRIC
; #@! TA.AperFunction,Plated,PTH,ViaDrill
T1C0.200
; #@! TA.AperFunction,Plated,PTH,ViaDrill
T2C0.300
; #@! TA.AperFunction,Plated,PTH,ComponentDrill
T3C0.304
; #@! TA.AperFunction,Plated,PTH,ViaDrill
T4C0.500
; #@! TA.AperFunction,Plated,PTH,ComponentDrill
T5C0.600
; #@! TA.AperFunction,NonPlated,NPTH,ComponentDrill
T6C0.650
; #@! TA.AperFunction,NonPlated,NPTH,ComponentDrill
T7C1.000
%
G90
G05
T1
X136.25Y-101.63
X136.641Y-109.224
X136.929Y-98.98
X136.93Y-98.34
X136.93Y-99.64
X136.93Y-100.33
X136.98Y-97.69
X137.59Y-97.4
X137.59Y-98.02
X137.59Y-98.64
X137.59Y-99.29
X137.607Y-107.837
X138.147Y-108.217
X138.26Y-97.4
X138.26Y-98.02
X138.93Y-97.38
X139.142Y-108.217
X139.6Y-97.32
X139.607Y-90.307
X139.607Y-91.007
X139.607Y-91.707
X139.607Y-92.407
X139.607Y-93.107
X139.607Y-93.807
X139.607Y-94.507
X139.607Y-95.207
X139.607Y-95.907
X139.607Y-96.607
X139.637Y-108.717
X140.157Y-109.237
X140.313Y-97.323
X140.32Y-90.31
X140.32Y-91.01
X140.32Y-91.71
X140.32Y-92.41
X140.32Y-93.11
X140.32Y-93.81
X140.32Y-94.51
X140.32Y-95.21
X140.32Y-95.91
X140.32Y-96.61
X141.656Y-108.724
X142.152Y-109.284
X142.642Y-108.434
X144.117Y-97.487
X144.617Y-91.817
X144.632Y-99.464
X145.067Y-91.017
X145.252Y-99.454
X145.742Y-91.014
X145.851Y-99.444
X145.98Y-105.578
X145.982Y-104.684
X146.42Y-106.25
X146.462Y-91.014
X146.696Y-99.429
X148.04Y-108.76
X148.81Y-113.4
X148.893Y-109.027
X149.302Y-90.574
X149.797Y-95.157
X149.81Y-113.4
X150.6Y-110.52
X151.232Y-110.104
X151.472Y-91.01
X153.792Y-99.714
X154.847Y-105.387
X154.917Y-98.587
X155.487Y-100.077
X159.567Y-107.157
X161.147Y-106.117
X185.537Y-95.677
X188.817Y-103.507
T2
X113.577Y-104.457
X125.347Y-101.347
X136.447Y-104.127
X138.321Y-98.717
X138.547Y-111.197
X143.267Y-97.497
X143.642Y-99.424
X143.927Y-94.767
X144.605Y-100.239
X144.74Y-108.57
X146.67Y-111.08
X149.0Y-86.35
X149.177Y-101.001
X149.887Y-107.767
X150.29Y-93.08
X151.46Y-111.07
X151.497Y-108.477
X152.09Y-93.09
X152.631Y-99.659
X153.327Y-104.177
X153.98Y-97.92
X155.019Y-94.397
X155.37Y-112.78
X158.04Y-98.79
X158.8Y-109.41
X173.537Y-104.897
X174.26Y-115.31
X183.207Y-104.897
X185.45Y-109.09
T3
X139.892Y-102.874
X139.892Y-103.874
X139.892Y-104.874
X140.892Y-102.874
X140.892Y-103.874
X140.892Y-104.874
X141.892Y-102.874
X141.892Y-103.874
X141.892Y-104.874
T4
X156.29Y-114.74
X181.673Y-113.347
X188.84Y-109.93
X188.84Y-115.6
T6
X146.16Y-113.561
X151.94Y-113.561
T7
X145.723Y-107.517
X153.723Y-107.517
T5
G00X144.725Y-112.461
M15
G01X144.725Y-113.661
M16
G05
G00X144.725Y-116.811
M15
G01X144.725Y-117.711
M16
G05
G00X153.375Y-112.461
M15
G01X153.375Y-113.661
M16
G05
G00X153.375Y-116.811
M15
G01X153.375Y-117.711
M16
G05
T0
M30
