%TF.GenerationSoftware,KiCad,Pcbnew,(6.0.9)*%
%TF.CreationDate,2022-11-23T18:12:37+08:00*%
%TF.ProjectId,UINIO-Cubic-Prism,55494e49-4f2d-4437-9562-69632d507269,UinIO.com*%
%TF.SameCoordinates,Original*%
%TF.FileFunction,Soldermask,Top*%
%TF.FilePolarity,Negative*%
%FSLAX46Y46*%
G04 Gerber Fmt 4.6, Leading zero omitted, Abs format (unit mm)*
G04 Created by KiCad (PCBNEW (6.0.9)) date 2022-11-23 18:12:37*
%MOMM*%
%LPD*%
G01*
G04 APERTURE LIST*
G04 Aperture macros list*
%AMRoundRect*
0 Rectangle with rounded corners*
0 $1 Rounding radius*
0 $2 $3 $4 $5 $6 $7 $8 $9 X,Y pos of 4 corners*
0 Add a 4 corners polygon primitive as box body*
4,1,4,$2,$3,$4,$5,$6,$7,$8,$9,$2,$3,0*
0 Add four circle primitives for the rounded corners*
1,1,$1+$1,$2,$3*
1,1,$1+$1,$4,$5*
1,1,$1+$1,$6,$7*
1,1,$1+$1,$8,$9*
0 Add four rect primitives between the rounded corners*
20,1,$1+$1,$2,$3,$4,$5,0*
20,1,$1+$1,$4,$5,$6,$7,0*
20,1,$1+$1,$6,$7,$8,$9,0*
20,1,$1+$1,$8,$9,$2,$3,0*%
G04 Aperture macros list end*
%ADD10R,1.070000X0.532000*%
%ADD11R,1.000000X0.600000*%
%ADD12RoundRect,0.087500X0.087500X-2.412500X0.087500X2.412500X-0.087500X2.412500X-0.087500X-2.412500X0*%
%ADD13RoundRect,0.135000X0.185000X-0.135000X0.185000X0.135000X-0.185000X0.135000X-0.185000X-0.135000X0*%
%ADD14R,1.200000X0.850000*%
%ADD15RoundRect,0.140000X0.140000X0.170000X-0.140000X0.170000X-0.140000X-0.170000X0.140000X-0.170000X0*%
%ADD16C,0.610000*%
%ADD17R,0.800000X0.280000*%
%ADD18R,0.280000X0.800000*%
%ADD19R,5.400000X5.400000*%
%ADD20O,0.280000X0.800000*%
%ADD21O,0.800000X0.280000*%
%ADD22R,2.700000X2.700000*%
%ADD23RoundRect,0.140000X-0.140000X-0.170000X0.140000X-0.170000X0.140000X0.170000X-0.140000X0.170000X0*%
%ADD24RoundRect,0.140000X-0.170000X0.140000X-0.170000X-0.140000X0.170000X-0.140000X0.170000X0.140000X0*%
%ADD25RoundRect,0.140000X0.170000X-0.140000X0.170000X0.140000X-0.170000X0.140000X-0.170000X-0.140000X0*%
%ADD26R,2.300000X0.800000*%
%ADD27RoundRect,0.135000X0.135000X0.185000X-0.135000X0.185000X-0.135000X-0.185000X0.135000X-0.185000X0*%
%ADD28R,0.550000X0.250000*%
%ADD29R,0.300000X1.500000*%
%ADD30R,2.000000X1.500000*%
%ADD31R,0.980000X2.470000*%
%ADD32R,3.600000X2.470000*%
%ADD33RoundRect,0.135000X-0.185000X0.135000X-0.185000X-0.135000X0.185000X-0.135000X0.185000X0.135000X0*%
%ADD34R,0.280000X0.905000*%
%ADD35R,0.905000X0.280000*%
%ADD36R,3.350000X3.350000*%
%ADD37C,0.650000*%
%ADD38O,1.000000X2.100000*%
%ADD39O,1.000000X1.900000*%
%ADD40R,0.600000X1.150000*%
%ADD41R,0.300000X1.150000*%
%ADD42C,1.000000*%
G04 APERTURE END LIST*
D10*
%TO.C,VT2*%
X158266019Y-97144261D03*
X158266019Y-95244261D03*
X155996019Y-96194261D03*
%TD*%
D11*
%TO.C,U7*%
X142361519Y-114084261D03*
X142361519Y-113134261D03*
X142361519Y-112184261D03*
X139761519Y-112184261D03*
X139761519Y-114084261D03*
%TD*%
D12*
%TO.C,U6*%
X172141519Y-110112215D03*
X172841519Y-110112215D03*
X173541519Y-110112215D03*
X174241519Y-110112215D03*
X174941519Y-110112215D03*
X175641519Y-110112215D03*
X176341519Y-110112215D03*
X177041519Y-110112215D03*
X177741519Y-110112215D03*
X178441519Y-110112215D03*
X179141519Y-110112215D03*
X179841519Y-110112215D03*
%TD*%
D13*
%TO.C,R6*%
X159551019Y-93354261D03*
X159551019Y-92334261D03*
%TD*%
D11*
%TO.C,U10*%
X184104519Y-112397215D03*
X184104519Y-113347215D03*
X184104519Y-114297215D03*
X186704519Y-114297215D03*
X186704519Y-112397215D03*
%TD*%
D14*
%TO.C,U11*%
X151366519Y-88777215D03*
X151366519Y-85577215D03*
X146566519Y-85577215D03*
X146566519Y-88777215D03*
%TD*%
D15*
%TO.C,C6*%
X150726519Y-100187215D03*
X149766519Y-100187215D03*
%TD*%
D16*
%TO.C,U5*%
X139891519Y-104874261D03*
X140891519Y-104874261D03*
X141891519Y-104874261D03*
X141891519Y-103874261D03*
X139891519Y-103874261D03*
X140891519Y-102874261D03*
X141891519Y-102874261D03*
X140891519Y-103874261D03*
X139891519Y-102874261D03*
D17*
X137391519Y-101124261D03*
X137391519Y-101624261D03*
X137391519Y-102124261D03*
X137391519Y-102624261D03*
X137391519Y-103124261D03*
X137391519Y-103624261D03*
X137391519Y-104124261D03*
X137391519Y-104624261D03*
X137391519Y-105124261D03*
X137391519Y-105624261D03*
X137391519Y-106124261D03*
X137391519Y-106624261D03*
D18*
X138141519Y-107374261D03*
X138641519Y-107374261D03*
X139141519Y-107374261D03*
X139641519Y-107374261D03*
X140141519Y-107374261D03*
X140641519Y-107374261D03*
X141141519Y-107374261D03*
X141641519Y-107374261D03*
X142141519Y-107374261D03*
X142641519Y-107374261D03*
X143141519Y-107374261D03*
X143641519Y-107374261D03*
D17*
X144391519Y-106624261D03*
X144391519Y-106124261D03*
X144391519Y-105624261D03*
X144391519Y-105124261D03*
X144391519Y-104624261D03*
X144391519Y-104124261D03*
X144391519Y-103624261D03*
X144391519Y-103124261D03*
X144391519Y-102624261D03*
X144391519Y-102124261D03*
X144391519Y-101624261D03*
X144391519Y-101124261D03*
D18*
X143641519Y-100374261D03*
X143141519Y-100374261D03*
X142641519Y-100374261D03*
X142141519Y-100374261D03*
X141641519Y-100374261D03*
X141141519Y-100374261D03*
X140641519Y-100374261D03*
X140141519Y-100374261D03*
X139641519Y-100374261D03*
X139141519Y-100374261D03*
X138641519Y-100374261D03*
X138141519Y-100374261D03*
D19*
X140891519Y-103874261D03*
%TD*%
D20*
%TO.C,U8*%
X147731519Y-105907261D03*
X148231519Y-105907261D03*
X148731519Y-105907261D03*
X149231519Y-105907261D03*
X149731519Y-105907261D03*
X150231519Y-105907261D03*
D21*
X150981519Y-105157261D03*
X150981519Y-104657261D03*
X150981519Y-104157261D03*
X150981519Y-103657261D03*
X150981519Y-103157261D03*
X150981519Y-102657261D03*
D20*
X150231519Y-101907261D03*
X149731519Y-101907261D03*
X149231519Y-101907261D03*
X148731519Y-101907261D03*
X148231519Y-101907261D03*
X147739519Y-101907261D03*
D21*
X146981519Y-102657261D03*
X146981519Y-103157261D03*
X146981519Y-103657261D03*
X146981519Y-104157261D03*
X146981519Y-104657261D03*
X146981519Y-105157261D03*
D22*
X148993519Y-103907261D03*
%TD*%
D23*
%TO.C,C9*%
X137351519Y-112184261D03*
X138311519Y-112184261D03*
%TD*%
D24*
%TO.C,C4*%
X139236519Y-98107215D03*
X139236519Y-99067215D03*
%TD*%
%TO.C,C1*%
X156261519Y-112794261D03*
X156261519Y-113754261D03*
%TD*%
%TO.C,C2*%
X140266519Y-98107215D03*
X140266519Y-99067215D03*
%TD*%
D25*
%TO.C,C5*%
X188826519Y-113357215D03*
X188826519Y-112397215D03*
%TD*%
D15*
%TO.C,C11*%
X148541519Y-100207215D03*
X147581519Y-100207215D03*
%TD*%
D13*
%TO.C,R10*%
X188846519Y-107687215D03*
X188846519Y-106667215D03*
%TD*%
D26*
%TO.C,U4*%
X137640000Y-96630000D03*
X137640000Y-91630000D03*
%TD*%
D27*
%TO.C,R8*%
X158907519Y-111246261D03*
X157887519Y-111246261D03*
%TD*%
D28*
%TO.C,U2*%
X157801519Y-112757215D03*
X157801519Y-113257215D03*
X157801519Y-113757215D03*
X160551519Y-113757215D03*
X160551519Y-113257215D03*
X160551519Y-112757215D03*
%TD*%
D24*
%TO.C,C12*%
X129086519Y-113257215D03*
X129086519Y-114217215D03*
%TD*%
D10*
%TO.C,Q2*%
X127611519Y-99057215D03*
X127611519Y-97157215D03*
X125341519Y-98107215D03*
%TD*%
%TO.C,VT1*%
X158266019Y-93774261D03*
X158266019Y-91874261D03*
X155996019Y-92824261D03*
%TD*%
D25*
%TO.C,C7*%
X152266519Y-103005215D03*
X152266519Y-102045215D03*
%TD*%
D27*
%TO.C,R7*%
X160535019Y-107954261D03*
X159515019Y-107954261D03*
%TD*%
D12*
%TO.C,U14*%
X112181519Y-110082215D03*
X112881519Y-110082215D03*
X113581519Y-110082215D03*
X114281519Y-110082215D03*
X114981519Y-110082215D03*
X115681519Y-110082215D03*
X116381519Y-110082215D03*
X117081519Y-110082215D03*
X117781519Y-110082215D03*
X118481519Y-110082215D03*
X119181519Y-110082215D03*
X119881519Y-110082215D03*
%TD*%
D10*
%TO.C,Q1*%
X186539519Y-107693215D03*
X186539519Y-105793215D03*
X184269519Y-106743215D03*
%TD*%
D24*
%TO.C,C13*%
X126806519Y-113257215D03*
X126806519Y-114217215D03*
%TD*%
D29*
%TO.C,U9*%
X147291519Y-91684261D03*
X147791519Y-91684261D03*
X148291519Y-91684261D03*
X148791519Y-91684261D03*
X149291519Y-91684261D03*
X149791519Y-91684261D03*
X150291519Y-91684261D03*
X150791519Y-91684261D03*
D30*
X152491519Y-94284261D03*
X145591519Y-94284261D03*
%TD*%
D13*
%TO.C,R12*%
X129456519Y-98627215D03*
X129456519Y-97607215D03*
%TD*%
D25*
%TO.C,C8*%
X152276519Y-105799215D03*
X152276519Y-104839215D03*
%TD*%
D23*
%TO.C,C10*%
X137331519Y-114084261D03*
X138291519Y-114084261D03*
%TD*%
D31*
%TO.C,U13*%
X124486519Y-110362215D03*
X126786519Y-110362215D03*
X129086519Y-110362215D03*
D32*
X126786519Y-104692215D03*
%TD*%
D33*
%TO.C,R9*%
X154260000Y-103370000D03*
X154260000Y-104390000D03*
%TD*%
D34*
%TO.C,U1*%
X156747019Y-106267261D03*
X157247019Y-106267261D03*
X157747019Y-106267261D03*
X158247019Y-106267261D03*
X158747019Y-106267261D03*
X159247019Y-106267261D03*
X159747019Y-106267261D03*
D35*
X160624019Y-105390261D03*
X160624019Y-104890261D03*
X160624019Y-104390261D03*
X160624019Y-103890261D03*
X160624019Y-103390261D03*
X160624019Y-102890261D03*
X160624019Y-102390261D03*
D34*
X159747019Y-101513261D03*
X159247019Y-101513261D03*
X158747019Y-101513261D03*
X158247019Y-101513261D03*
X157747019Y-101513261D03*
X157247019Y-101513261D03*
X156747019Y-101513261D03*
D35*
X155870019Y-102390261D03*
X155870019Y-102890261D03*
X155870019Y-103390261D03*
X155870019Y-103890261D03*
X155870019Y-104390261D03*
X155870019Y-104890261D03*
X155870019Y-105390261D03*
D36*
X158247019Y-103890261D03*
%TD*%
D29*
%TO.C,U3*%
X177046519Y-95688715D03*
X177546519Y-95688715D03*
X178046519Y-95688715D03*
X178546519Y-95688715D03*
X179046519Y-95688715D03*
X179546519Y-95688715D03*
X180046519Y-95688715D03*
X180546519Y-95688715D03*
D30*
X182246519Y-98288715D03*
X175346519Y-98288715D03*
%TD*%
D27*
%TO.C,R11*%
X138341519Y-110214261D03*
X137321519Y-110214261D03*
%TD*%
D29*
%TO.C,U12*%
X117006519Y-95487215D03*
X117506519Y-95487215D03*
X118006519Y-95487215D03*
X118506519Y-95487215D03*
X119006519Y-95487215D03*
X119506519Y-95487215D03*
X120006519Y-95487215D03*
X120506519Y-95487215D03*
D30*
X122206519Y-98087215D03*
X115306519Y-98087215D03*
%TD*%
D15*
%TO.C,C3*%
X138311519Y-109224261D03*
X137351519Y-109224261D03*
%TD*%
D13*
%TO.C,R5*%
X159551019Y-96724261D03*
X159551019Y-95704261D03*
%TD*%
D37*
%TO.C,USB1*%
X146160000Y-113561000D03*
X151940000Y-113561000D03*
D38*
X144725000Y-113061000D03*
X153375000Y-113061000D03*
D39*
X144725000Y-117261000D03*
X153375000Y-117261000D03*
D40*
X145850000Y-112299000D03*
X146650000Y-112299000D03*
D41*
X147800000Y-112299000D03*
X148800000Y-112299000D03*
X149300000Y-112299000D03*
X150300000Y-112299000D03*
D40*
X152250000Y-112299000D03*
X151450000Y-112299000D03*
D41*
X150800000Y-112299000D03*
X149800000Y-112299000D03*
X148300000Y-112299000D03*
X147300000Y-112299000D03*
%TD*%
D42*
%TO.C,Card1*%
X153722519Y-107517215D03*
X145722519Y-107517215D03*
%TD*%
M02*
