M48
; DRILL file {KiCad (6.0.11)} date Sun Jan 29 19:30:07 2023
; FORMAT={-:-/ absolute / metric / decimal}
; #@! TF.CreationDate,2023-01-29T19:30:07+08:00
; #@! TF.GenerationSoftware,Kicad,Pcbnew,(6.0.11)
; #@! TF.FileFunction,MixedPlating,1,2
FMAT,2
METRIC
; #@! TA.AperFunction,Plated,PTH,ViaDrill
T1C0.200
; #@! TA.AperFunction,Plated,PTH,ViaDrill
T2C0.300
; #@! TA.AperFunction,Plated,PTH,ComponentDrill
T3C0.304
; #@! TA.AperFunction,Plated,PTH,ViaDrill
T4C0.500
; #@! TA.AperFunction,Plated,PTH,ComponentDrill
T5C0.600
; #@! TA.AperFunction,NonPlated,NPTH,ComponentDrill
T6C0.650
; #@! TA.AperFunction,NonPlated,NPTH,ComponentDrill
T7C1.000
%
G90
G05
T1
X-12.64Y-17.62
X-12.249Y-25.214
X-11.961Y-14.97
X-11.96Y-14.33
X-11.96Y-15.63
X-11.96Y-16.32
X-11.91Y-13.68
X-11.3Y-13.39
X-11.3Y-14.01
X-11.3Y-14.63
X-11.3Y-15.28
X-11.283Y-23.827
X-10.743Y-24.207
X-10.63Y-13.39
X-10.63Y-14.01
X-9.96Y-13.37
X-9.748Y-24.207
X-9.29Y-13.31
X-9.283Y-6.297
X-9.283Y-6.997
X-9.283Y-7.697
X-9.283Y-8.397
X-9.283Y-9.097
X-9.283Y-9.797
X-9.283Y-10.497
X-9.283Y-11.197
X-9.283Y-11.897
X-9.283Y-12.597
X-9.253Y-24.707
X-8.733Y-25.227
X-8.577Y-13.313
X-8.57Y-6.3
X-8.57Y-7.0
X-8.57Y-7.7
X-8.57Y-8.4
X-8.57Y-9.1
X-8.57Y-9.8
X-8.57Y-10.5
X-8.57Y-11.2
X-8.57Y-11.9
X-8.57Y-12.6
X-7.234Y-24.714
X-6.738Y-25.274
X-6.248Y-24.424
X-4.773Y-13.477
X-4.273Y-7.807
X-4.258Y-15.454
X-3.823Y-7.007
X-3.638Y-15.444
X-3.148Y-7.004
X-3.039Y-15.434
X-2.91Y-21.568
X-2.908Y-20.674
X-2.47Y-22.24
X-2.428Y-7.004
X-2.194Y-15.419
X-0.85Y-24.75
X-0.08Y-29.39
X0.003Y-25.017
X0.412Y-6.564
X0.907Y-11.147
X0.92Y-29.39
X1.71Y-26.51
X2.342Y-26.094
X2.582Y-7.0
X4.902Y-15.704
X5.957Y-21.377
X6.027Y-14.577
X6.597Y-16.067
X10.677Y-23.147
X12.257Y-22.107
X36.647Y-11.667
X39.927Y-19.497
T2
X-35.313Y-20.447
X-23.543Y-17.337
X-12.443Y-20.117
X-10.569Y-14.707
X-10.343Y-27.187
X-5.623Y-13.487
X-5.248Y-15.414
X-4.963Y-10.757
X-4.285Y-16.229
X-4.15Y-24.56
X-2.22Y-27.07
X0.11Y-2.34
X0.287Y-16.991
X0.997Y-23.757
X1.4Y-9.07
X2.57Y-27.06
X2.607Y-24.467
X3.2Y-9.08
X3.741Y-15.649
X4.437Y-20.167
X5.09Y-13.91
X6.129Y-10.387
X6.48Y-28.77
X9.15Y-14.78
X9.91Y-25.4
X24.647Y-20.887
X25.37Y-31.3
X34.317Y-20.887
X36.56Y-25.08
T3
X-8.998Y-18.864
X-8.998Y-19.864
X-8.998Y-20.864
X-7.998Y-18.864
X-7.998Y-19.864
X-7.998Y-20.864
X-6.998Y-18.864
X-6.998Y-19.864
X-6.998Y-20.864
T4
X7.4Y-30.73
X32.783Y-29.337
X39.95Y-25.92
X39.95Y-31.59
T6
X-2.73Y-29.551
X3.05Y-29.551
T7
X-3.167Y-23.507
X4.833Y-23.507
T5
G00X-4.165Y-28.451
M15
G01X-4.165Y-29.651
M16
G05
G00X-4.165Y-32.801
M15
G01X-4.165Y-33.701
M16
G05
G00X4.485Y-28.451
M15
G01X4.485Y-29.651
M16
G05
G00X4.485Y-32.801
M15
G01X4.485Y-33.701
M16
G05
T0
M30
