%TF.GenerationSoftware,KiCad,Pcbnew,(6.0.11)*%
%TF.CreationDate,2023-01-29T19:30:00+08:00*%
%TF.ProjectId,UINIO-Cubic-Prism,55494e49-4f2d-4437-9562-69632d507269,Version 3.0.0*%
%TF.SameCoordinates,PX8dfe190PY501e410*%
%TF.FileFunction,Paste,Top*%
%TF.FilePolarity,Positive*%
%FSLAX46Y46*%
G04 Gerber Fmt 4.6, Leading zero omitted, Abs format (unit mm)*
G04 Created by KiCad (PCBNEW (6.0.11)) date 2023-01-29 19:30:00*
%MOMM*%
%LPD*%
G01*
G04 APERTURE LIST*
G04 Aperture macros list*
%AMRoundRect*
0 Rectangle with rounded corners*
0 $1 Rounding radius*
0 $2 $3 $4 $5 $6 $7 $8 $9 X,Y pos of 4 corners*
0 Add a 4 corners polygon primitive as box body*
4,1,4,$2,$3,$4,$5,$6,$7,$8,$9,$2,$3,0*
0 Add four circle primitives for the rounded corners*
1,1,$1+$1,$2,$3*
1,1,$1+$1,$4,$5*
1,1,$1+$1,$6,$7*
1,1,$1+$1,$8,$9*
0 Add four rect primitives between the rounded corners*
20,1,$1+$1,$2,$3,$4,$5,0*
20,1,$1+$1,$4,$5,$6,$7,0*
20,1,$1+$1,$6,$7,$8,$9,0*
20,1,$1+$1,$8,$9,$2,$3,0*%
G04 Aperture macros list end*
%ADD10C,0.120000*%
%ADD11R,1.070000X0.532000*%
%ADD12R,1.000000X0.600000*%
%ADD13RoundRect,0.087500X0.087500X-2.412500X0.087500X2.412500X-0.087500X2.412500X-0.087500X-2.412500X0*%
%ADD14RoundRect,0.135000X0.185000X-0.135000X0.185000X0.135000X-0.185000X0.135000X-0.185000X-0.135000X0*%
%ADD15R,1.200000X0.850000*%
%ADD16RoundRect,0.140000X0.140000X0.170000X-0.140000X0.170000X-0.140000X-0.170000X0.140000X-0.170000X0*%
%ADD17R,5.400000X5.400000*%
%ADD18R,0.280000X0.800000*%
%ADD19R,0.800000X0.280000*%
%ADD20O,0.280000X0.800000*%
%ADD21O,0.800000X0.280000*%
%ADD22R,2.700000X2.700000*%
%ADD23RoundRect,0.140000X-0.140000X-0.170000X0.140000X-0.170000X0.140000X0.170000X-0.140000X0.170000X0*%
%ADD24RoundRect,0.140000X-0.170000X0.140000X-0.170000X-0.140000X0.170000X-0.140000X0.170000X0.140000X0*%
%ADD25RoundRect,0.140000X0.170000X-0.140000X0.170000X0.140000X-0.170000X0.140000X-0.170000X-0.140000X0*%
%ADD26R,2.300000X0.800000*%
%ADD27RoundRect,0.135000X0.135000X0.185000X-0.135000X0.185000X-0.135000X-0.185000X0.135000X-0.185000X0*%
%ADD28R,0.550000X0.250000*%
%ADD29R,0.300000X1.500000*%
%ADD30R,2.000000X1.500000*%
%ADD31R,0.980000X2.470000*%
%ADD32R,3.600000X2.470000*%
%ADD33RoundRect,0.135000X-0.185000X0.135000X-0.185000X-0.135000X0.185000X-0.135000X0.185000X0.135000X0*%
%ADD34R,0.280000X0.905000*%
%ADD35R,0.905000X0.280000*%
%ADD36R,3.350000X3.350000*%
%ADD37R,0.600000X1.150000*%
%ADD38R,0.300000X1.150000*%
G04 APERTURE END LIST*
%TO.C,U5*%
G36*
X-5608481Y-23764261D02*
G01*
X-5888481Y-23764261D01*
X-5888481Y-22964261D01*
X-5608481Y-22964261D01*
X-5608481Y-23764261D01*
G37*
D10*
X-5608481Y-23764261D02*
X-5888481Y-23764261D01*
X-5888481Y-22964261D01*
X-5608481Y-22964261D01*
X-5608481Y-23764261D01*
G36*
X-11098481Y-18755261D02*
G01*
X-11898481Y-18755261D01*
X-11898481Y-18475261D01*
X-11098481Y-18475261D01*
X-11098481Y-18755261D01*
G37*
X-11098481Y-18755261D02*
X-11898481Y-18755261D01*
X-11898481Y-18475261D01*
X-11098481Y-18475261D01*
X-11098481Y-18755261D01*
G36*
X-8108481Y-23764261D02*
G01*
X-8388481Y-23764261D01*
X-8388481Y-22964261D01*
X-8108481Y-22964261D01*
X-8108481Y-23764261D01*
G37*
X-8108481Y-23764261D02*
X-8388481Y-23764261D01*
X-8388481Y-22964261D01*
X-8108481Y-22964261D01*
X-8108481Y-23764261D01*
G36*
X-11098481Y-19254261D02*
G01*
X-11898481Y-19254261D01*
X-11898481Y-18974261D01*
X-11098481Y-18974261D01*
X-11098481Y-19254261D01*
G37*
X-11098481Y-19254261D02*
X-11898481Y-19254261D01*
X-11898481Y-18974261D01*
X-11098481Y-18974261D01*
X-11098481Y-19254261D01*
G36*
X-4098481Y-20254261D02*
G01*
X-4898481Y-20254261D01*
X-4898481Y-19974261D01*
X-4098481Y-19974261D01*
X-4098481Y-20254261D01*
G37*
X-4098481Y-20254261D02*
X-4898481Y-20254261D01*
X-4898481Y-19974261D01*
X-4098481Y-19974261D01*
X-4098481Y-20254261D01*
G36*
X-11098481Y-19755261D02*
G01*
X-11897481Y-19755261D01*
X-11897481Y-19475261D01*
X-11098481Y-19475261D01*
X-11098481Y-19755261D01*
G37*
X-11098481Y-19755261D02*
X-11897481Y-19755261D01*
X-11897481Y-19475261D01*
X-11098481Y-19475261D01*
X-11098481Y-19755261D01*
G36*
X-11098481Y-21755261D02*
G01*
X-11898481Y-21755261D01*
X-11898481Y-21475261D01*
X-11098481Y-21475261D01*
X-11098481Y-21755261D01*
G37*
X-11098481Y-21755261D02*
X-11898481Y-21755261D01*
X-11898481Y-21475261D01*
X-11098481Y-21475261D01*
X-11098481Y-21755261D01*
G36*
X-6608481Y-23764261D02*
G01*
X-6888481Y-23764261D01*
X-6888481Y-22964261D01*
X-6608481Y-22964261D01*
X-6608481Y-23764261D01*
G37*
X-6608481Y-23764261D02*
X-6888481Y-23764261D01*
X-6888481Y-22964261D01*
X-6608481Y-22964261D01*
X-6608481Y-23764261D01*
G36*
X-4098481Y-19754261D02*
G01*
X-4898481Y-19754261D01*
X-4898481Y-19475261D01*
X-4098481Y-19475261D01*
X-4098481Y-19754261D01*
G37*
X-4098481Y-19754261D02*
X-4898481Y-19754261D01*
X-4898481Y-19475261D01*
X-4098481Y-19475261D01*
X-4098481Y-19754261D01*
G36*
X-6108481Y-16764261D02*
G01*
X-6388481Y-16764261D01*
X-6388481Y-15964261D01*
X-6108481Y-15964261D01*
X-6108481Y-16764261D01*
G37*
X-6108481Y-16764261D02*
X-6388481Y-16764261D01*
X-6388481Y-15964261D01*
X-6108481Y-15964261D01*
X-6108481Y-16764261D01*
G36*
X-11098481Y-17254261D02*
G01*
X-11898481Y-17254261D01*
X-11898481Y-16974261D01*
X-11098481Y-16974261D01*
X-11098481Y-17254261D01*
G37*
X-11098481Y-17254261D02*
X-11898481Y-17254261D01*
X-11898481Y-16974261D01*
X-11098481Y-16974261D01*
X-11098481Y-17254261D01*
G36*
X-7608481Y-16764261D02*
G01*
X-7888481Y-16764261D01*
X-7888481Y-15964261D01*
X-7608481Y-15964261D01*
X-7608481Y-16764261D01*
G37*
X-7608481Y-16764261D02*
X-7888481Y-16764261D01*
X-7888481Y-15964261D01*
X-7608481Y-15964261D01*
X-7608481Y-16764261D01*
G36*
X-11098481Y-20754261D02*
G01*
X-11897481Y-20754261D01*
X-11897481Y-20475261D01*
X-11098481Y-20475261D01*
X-11098481Y-20754261D01*
G37*
X-11098481Y-20754261D02*
X-11897481Y-20754261D01*
X-11897481Y-20475261D01*
X-11098481Y-20475261D01*
X-11098481Y-20754261D01*
G36*
X-11098481Y-22254261D02*
G01*
X-11898481Y-22254261D01*
X-11898481Y-21974261D01*
X-11098481Y-21974261D01*
X-11098481Y-22254261D01*
G37*
X-11098481Y-22254261D02*
X-11898481Y-22254261D01*
X-11898481Y-21974261D01*
X-11098481Y-21974261D01*
X-11098481Y-22254261D01*
G36*
X-4098481Y-18754261D02*
G01*
X-4898481Y-18754261D01*
X-4898481Y-18474261D01*
X-4098481Y-18474261D01*
X-4098481Y-18754261D01*
G37*
X-4098481Y-18754261D02*
X-4898481Y-18754261D01*
X-4898481Y-18474261D01*
X-4098481Y-18474261D01*
X-4098481Y-18754261D01*
G36*
X-5608481Y-16764261D02*
G01*
X-5888481Y-16764261D01*
X-5888481Y-15964261D01*
X-5608481Y-15964261D01*
X-5608481Y-16764261D01*
G37*
X-5608481Y-16764261D02*
X-5888481Y-16764261D01*
X-5888481Y-15964261D01*
X-5608481Y-15964261D01*
X-5608481Y-16764261D01*
G36*
X-6108481Y-23764261D02*
G01*
X-6388481Y-23764261D01*
X-6388481Y-22964261D01*
X-6108481Y-22964261D01*
X-6108481Y-23764261D01*
G37*
X-6108481Y-23764261D02*
X-6388481Y-23764261D01*
X-6388481Y-22964261D01*
X-6108481Y-22964261D01*
X-6108481Y-23764261D01*
G36*
X-5108481Y-23764261D02*
G01*
X-5388481Y-23764261D01*
X-5388481Y-22964261D01*
X-5108481Y-22964261D01*
X-5108481Y-23764261D01*
G37*
X-5108481Y-23764261D02*
X-5388481Y-23764261D01*
X-5388481Y-22964261D01*
X-5108481Y-22964261D01*
X-5108481Y-23764261D01*
G36*
X-10108481Y-16764261D02*
G01*
X-10388481Y-16764261D01*
X-10388481Y-15964261D01*
X-10108481Y-15964261D01*
X-10108481Y-16764261D01*
G37*
X-10108481Y-16764261D02*
X-10388481Y-16764261D01*
X-10388481Y-15964261D01*
X-10108481Y-15964261D01*
X-10108481Y-16764261D01*
G36*
X-4098481Y-21254261D02*
G01*
X-4898481Y-21254261D01*
X-4898481Y-20974261D01*
X-4098481Y-20974261D01*
X-4098481Y-21254261D01*
G37*
X-4098481Y-21254261D02*
X-4898481Y-21254261D01*
X-4898481Y-20974261D01*
X-4098481Y-20974261D01*
X-4098481Y-21254261D01*
G36*
X-7108481Y-23764261D02*
G01*
X-7388481Y-23764261D01*
X-7388481Y-22964261D01*
X-7108481Y-22964261D01*
X-7108481Y-23764261D01*
G37*
X-7108481Y-23764261D02*
X-7388481Y-23764261D01*
X-7388481Y-22964261D01*
X-7108481Y-22964261D01*
X-7108481Y-23764261D01*
G36*
X-4098481Y-22254261D02*
G01*
X-4898481Y-22254261D01*
X-4898481Y-21974261D01*
X-4098481Y-21974261D01*
X-4098481Y-22254261D01*
G37*
X-4098481Y-22254261D02*
X-4898481Y-22254261D01*
X-4898481Y-21974261D01*
X-4098481Y-21974261D01*
X-4098481Y-22254261D01*
G36*
X-10608481Y-16764261D02*
G01*
X-10888481Y-16764261D01*
X-10888481Y-15964261D01*
X-10608481Y-15964261D01*
X-10608481Y-16764261D01*
G37*
X-10608481Y-16764261D02*
X-10888481Y-16764261D01*
X-10888481Y-15964261D01*
X-10608481Y-15964261D01*
X-10608481Y-16764261D01*
G36*
X-8108481Y-16764261D02*
G01*
X-8388481Y-16764261D01*
X-8388481Y-15964261D01*
X-8108481Y-15964261D01*
X-8108481Y-16764261D01*
G37*
X-8108481Y-16764261D02*
X-8388481Y-16764261D01*
X-8388481Y-15964261D01*
X-8108481Y-15964261D01*
X-8108481Y-16764261D01*
G36*
X-9108481Y-23764261D02*
G01*
X-9388481Y-23764261D01*
X-9388481Y-22964261D01*
X-9108481Y-22964261D01*
X-9108481Y-23764261D01*
G37*
X-9108481Y-23764261D02*
X-9388481Y-23764261D01*
X-9388481Y-22964261D01*
X-9108481Y-22964261D01*
X-9108481Y-23764261D01*
G36*
X-10108481Y-23764261D02*
G01*
X-10388481Y-23764261D01*
X-10388481Y-22964261D01*
X-10108481Y-22964261D01*
X-10108481Y-23764261D01*
G37*
X-10108481Y-23764261D02*
X-10388481Y-23764261D01*
X-10388481Y-22964261D01*
X-10108481Y-22964261D01*
X-10108481Y-23764261D01*
G36*
X-5108481Y-16764261D02*
G01*
X-5388481Y-16764261D01*
X-5388481Y-15964261D01*
X-5108481Y-15964261D01*
X-5108481Y-16764261D01*
G37*
X-5108481Y-16764261D02*
X-5388481Y-16764261D01*
X-5388481Y-15964261D01*
X-5108481Y-15964261D01*
X-5108481Y-16764261D01*
G36*
X-4098481Y-17254261D02*
G01*
X-4898481Y-17254261D01*
X-4898481Y-16974261D01*
X-4098481Y-16974261D01*
X-4098481Y-17254261D01*
G37*
X-4098481Y-17254261D02*
X-4898481Y-17254261D01*
X-4898481Y-16974261D01*
X-4098481Y-16974261D01*
X-4098481Y-17254261D01*
G36*
X-11098481Y-22755261D02*
G01*
X-11898481Y-22755261D01*
X-11898481Y-22475261D01*
X-11098481Y-22475261D01*
X-11098481Y-22755261D01*
G37*
X-11098481Y-22755261D02*
X-11898481Y-22755261D01*
X-11898481Y-22475261D01*
X-11098481Y-22475261D01*
X-11098481Y-22755261D01*
G36*
X-9608481Y-23764261D02*
G01*
X-9888481Y-23764261D01*
X-9888481Y-22964261D01*
X-9608481Y-22964261D01*
X-9608481Y-23764261D01*
G37*
X-9608481Y-23764261D02*
X-9888481Y-23764261D01*
X-9888481Y-22964261D01*
X-9608481Y-22964261D01*
X-9608481Y-23764261D01*
G36*
X-4098481Y-22754261D02*
G01*
X-4898481Y-22754261D01*
X-4898481Y-22474261D01*
X-4098481Y-22474261D01*
X-4098481Y-22754261D01*
G37*
X-4098481Y-22754261D02*
X-4898481Y-22754261D01*
X-4898481Y-22474261D01*
X-4098481Y-22474261D01*
X-4098481Y-22754261D01*
G36*
X-6608481Y-16764261D02*
G01*
X-6888481Y-16764261D01*
X-6888481Y-15964261D01*
X-6608481Y-15964261D01*
X-6608481Y-16764261D01*
G37*
X-6608481Y-16764261D02*
X-6888481Y-16764261D01*
X-6888481Y-15964261D01*
X-6608481Y-15964261D01*
X-6608481Y-16764261D01*
G36*
X-5838481Y-22024261D02*
G01*
X-10158481Y-22024261D01*
X-10158481Y-17704261D01*
X-5838481Y-17704261D01*
X-5838481Y-22024261D01*
G37*
X-5838481Y-22024261D02*
X-10158481Y-22024261D01*
X-10158481Y-17704261D01*
X-5838481Y-17704261D01*
X-5838481Y-22024261D01*
G36*
X-4098481Y-18254261D02*
G01*
X-4898481Y-18254261D01*
X-4898481Y-17974261D01*
X-4098481Y-17974261D01*
X-4098481Y-18254261D01*
G37*
X-4098481Y-18254261D02*
X-4898481Y-18254261D01*
X-4898481Y-17974261D01*
X-4098481Y-17974261D01*
X-4098481Y-18254261D01*
G36*
X-8608481Y-23764261D02*
G01*
X-8888481Y-23764261D01*
X-8888481Y-22964261D01*
X-8608481Y-22964261D01*
X-8608481Y-23764261D01*
G37*
X-8608481Y-23764261D02*
X-8888481Y-23764261D01*
X-8888481Y-22964261D01*
X-8608481Y-22964261D01*
X-8608481Y-23764261D01*
G36*
X-4098481Y-21754261D02*
G01*
X-4898481Y-21754261D01*
X-4898481Y-21474261D01*
X-4098481Y-21474261D01*
X-4098481Y-21754261D01*
G37*
X-4098481Y-21754261D02*
X-4898481Y-21754261D01*
X-4898481Y-21474261D01*
X-4098481Y-21474261D01*
X-4098481Y-21754261D01*
G36*
X-4098481Y-20754261D02*
G01*
X-4898481Y-20754261D01*
X-4898481Y-20474261D01*
X-4098481Y-20474261D01*
X-4098481Y-20754261D01*
G37*
X-4098481Y-20754261D02*
X-4898481Y-20754261D01*
X-4898481Y-20474261D01*
X-4098481Y-20474261D01*
X-4098481Y-20754261D01*
G36*
X-11098481Y-21254261D02*
G01*
X-11898481Y-21254261D01*
X-11898481Y-20974261D01*
X-11098481Y-20974261D01*
X-11098481Y-21254261D01*
G37*
X-11098481Y-21254261D02*
X-11898481Y-21254261D01*
X-11898481Y-20974261D01*
X-11098481Y-20974261D01*
X-11098481Y-21254261D01*
G36*
X-7608481Y-23764261D02*
G01*
X-7888481Y-23764261D01*
X-7888481Y-22964261D01*
X-7608481Y-22964261D01*
X-7608481Y-23764261D01*
G37*
X-7608481Y-23764261D02*
X-7888481Y-23764261D01*
X-7888481Y-22964261D01*
X-7608481Y-22964261D01*
X-7608481Y-23764261D01*
G36*
X-4098481Y-19254261D02*
G01*
X-4898481Y-19254261D01*
X-4898481Y-18974261D01*
X-4098481Y-18974261D01*
X-4098481Y-19254261D01*
G37*
X-4098481Y-19254261D02*
X-4898481Y-19254261D01*
X-4898481Y-18974261D01*
X-4098481Y-18974261D01*
X-4098481Y-19254261D01*
G36*
X-4098481Y-17754261D02*
G01*
X-4898481Y-17754261D01*
X-4898481Y-17474261D01*
X-4098481Y-17474261D01*
X-4098481Y-17754261D01*
G37*
X-4098481Y-17754261D02*
X-4898481Y-17754261D01*
X-4898481Y-17474261D01*
X-4098481Y-17474261D01*
X-4098481Y-17754261D01*
G36*
X-11098481Y-20254261D02*
G01*
X-11898481Y-20254261D01*
X-11898481Y-19974261D01*
X-11098481Y-19974261D01*
X-11098481Y-20254261D01*
G37*
X-11098481Y-20254261D02*
X-11898481Y-20254261D01*
X-11898481Y-19974261D01*
X-11098481Y-19974261D01*
X-11098481Y-20254261D01*
G36*
X-9608481Y-16764261D02*
G01*
X-9888481Y-16764261D01*
X-9888481Y-15964261D01*
X-9608481Y-15964261D01*
X-9608481Y-16764261D01*
G37*
X-9608481Y-16764261D02*
X-9888481Y-16764261D01*
X-9888481Y-15964261D01*
X-9608481Y-15964261D01*
X-9608481Y-16764261D01*
G36*
X-8608481Y-16764261D02*
G01*
X-8888481Y-16764261D01*
X-8888481Y-15964261D01*
X-8608481Y-15964261D01*
X-8608481Y-16764261D01*
G37*
X-8608481Y-16764261D02*
X-8888481Y-16764261D01*
X-8888481Y-15964261D01*
X-8608481Y-15964261D01*
X-8608481Y-16764261D01*
G36*
X-11098481Y-18255261D02*
G01*
X-11898481Y-18255261D01*
X-11898481Y-17974261D01*
X-11098481Y-17974261D01*
X-11098481Y-18255261D01*
G37*
X-11098481Y-18255261D02*
X-11898481Y-18255261D01*
X-11898481Y-17974261D01*
X-11098481Y-17974261D01*
X-11098481Y-18255261D01*
G36*
X-7108481Y-16764261D02*
G01*
X-7388481Y-16764261D01*
X-7388481Y-15964261D01*
X-7108481Y-15964261D01*
X-7108481Y-16764261D01*
G37*
X-7108481Y-16764261D02*
X-7388481Y-16764261D01*
X-7388481Y-15964261D01*
X-7108481Y-15964261D01*
X-7108481Y-16764261D01*
G36*
X-11098481Y-17755261D02*
G01*
X-11898481Y-17755261D01*
X-11898481Y-17475261D01*
X-11098481Y-17475261D01*
X-11098481Y-17755261D01*
G37*
X-11098481Y-17755261D02*
X-11898481Y-17755261D01*
X-11898481Y-17475261D01*
X-11098481Y-17475261D01*
X-11098481Y-17755261D01*
G36*
X-9108481Y-16764261D02*
G01*
X-9388481Y-16764261D01*
X-9388481Y-15964261D01*
X-9108481Y-15964261D01*
X-9108481Y-16764261D01*
G37*
X-9108481Y-16764261D02*
X-9388481Y-16764261D01*
X-9388481Y-15964261D01*
X-9108481Y-15964261D01*
X-9108481Y-16764261D01*
G36*
X-10608481Y-23764261D02*
G01*
X-10888481Y-23764261D01*
X-10888481Y-22964261D01*
X-10608481Y-22964261D01*
X-10608481Y-23764261D01*
G37*
X-10608481Y-23764261D02*
X-10888481Y-23764261D01*
X-10888481Y-22964261D01*
X-10608481Y-22964261D01*
X-10608481Y-23764261D01*
%TO.C,U8*%
G36*
X868519Y-21500261D02*
G01*
X895519Y-21508261D01*
X919519Y-21521261D01*
X940519Y-21538261D01*
X957519Y-21559261D01*
X970519Y-21583261D01*
X978519Y-21610261D01*
X981519Y-21637261D01*
X981519Y-22157261D01*
X978519Y-22184261D01*
X970519Y-22211261D01*
X957519Y-22235261D01*
X940519Y-22256261D01*
X919519Y-22273261D01*
X895519Y-22286261D01*
X868519Y-22294261D01*
X841519Y-22297261D01*
X814519Y-22294261D01*
X787519Y-22286261D01*
X763519Y-22273261D01*
X742519Y-22256261D01*
X725519Y-22235261D01*
X712519Y-22211261D01*
X704519Y-22184261D01*
X701519Y-22157261D01*
X701519Y-21637261D01*
X704519Y-21610261D01*
X712519Y-21583261D01*
X725519Y-21559261D01*
X742519Y-21538261D01*
X763519Y-21521261D01*
X787519Y-21508261D01*
X814519Y-21500261D01*
X841519Y-21497261D01*
X868519Y-21500261D01*
G37*
X868519Y-21500261D02*
X895519Y-21508261D01*
X919519Y-21521261D01*
X940519Y-21538261D01*
X957519Y-21559261D01*
X970519Y-21583261D01*
X978519Y-21610261D01*
X981519Y-21637261D01*
X981519Y-22157261D01*
X978519Y-22184261D01*
X970519Y-22211261D01*
X957519Y-22235261D01*
X940519Y-22256261D01*
X919519Y-22273261D01*
X895519Y-22286261D01*
X868519Y-22294261D01*
X841519Y-22297261D01*
X814519Y-22294261D01*
X787519Y-22286261D01*
X763519Y-22273261D01*
X742519Y-22256261D01*
X725519Y-22235261D01*
X712519Y-22211261D01*
X704519Y-22184261D01*
X701519Y-22157261D01*
X701519Y-21637261D01*
X704519Y-21610261D01*
X712519Y-21583261D01*
X725519Y-21559261D01*
X742519Y-21538261D01*
X763519Y-21521261D01*
X787519Y-21508261D01*
X814519Y-21500261D01*
X841519Y-21497261D01*
X868519Y-21500261D01*
G36*
X-1621481Y-21010261D02*
G01*
X-1594481Y-21018261D01*
X-1570481Y-21031261D01*
X-1549481Y-21048261D01*
X-1532481Y-21069261D01*
X-1519481Y-21093261D01*
X-1511481Y-21120261D01*
X-1508481Y-21147261D01*
X-1511481Y-21174261D01*
X-1519481Y-21201261D01*
X-1532481Y-21225261D01*
X-1549481Y-21246261D01*
X-1570481Y-21263261D01*
X-1594481Y-21276261D01*
X-1621481Y-21284261D01*
X-1648481Y-21287261D01*
X-2168481Y-21287261D01*
X-2195481Y-21284261D01*
X-2222481Y-21276261D01*
X-2246481Y-21263261D01*
X-2267481Y-21246261D01*
X-2284481Y-21225261D01*
X-2297481Y-21201261D01*
X-2305481Y-21174261D01*
X-2308481Y-21147261D01*
X-2305481Y-21120261D01*
X-2297481Y-21093261D01*
X-2284481Y-21069261D01*
X-2267481Y-21048261D01*
X-2246481Y-21031261D01*
X-2222481Y-21018261D01*
X-2195481Y-21010261D01*
X-2168481Y-21007261D01*
X-1648481Y-21007261D01*
X-1621481Y-21010261D01*
G37*
X-1621481Y-21010261D02*
X-1594481Y-21018261D01*
X-1570481Y-21031261D01*
X-1549481Y-21048261D01*
X-1532481Y-21069261D01*
X-1519481Y-21093261D01*
X-1511481Y-21120261D01*
X-1508481Y-21147261D01*
X-1511481Y-21174261D01*
X-1519481Y-21201261D01*
X-1532481Y-21225261D01*
X-1549481Y-21246261D01*
X-1570481Y-21263261D01*
X-1594481Y-21276261D01*
X-1621481Y-21284261D01*
X-1648481Y-21287261D01*
X-2168481Y-21287261D01*
X-2195481Y-21284261D01*
X-2222481Y-21276261D01*
X-2246481Y-21263261D01*
X-2267481Y-21246261D01*
X-2284481Y-21225261D01*
X-2297481Y-21201261D01*
X-2305481Y-21174261D01*
X-2308481Y-21147261D01*
X-2305481Y-21120261D01*
X-2297481Y-21093261D01*
X-2284481Y-21069261D01*
X-2267481Y-21048261D01*
X-2246481Y-21031261D01*
X-2222481Y-21018261D01*
X-2195481Y-21010261D01*
X-2168481Y-21007261D01*
X-1648481Y-21007261D01*
X-1621481Y-21010261D01*
G36*
X-1621481Y-19010261D02*
G01*
X-1594481Y-19018261D01*
X-1570481Y-19031261D01*
X-1549481Y-19048261D01*
X-1532481Y-19069261D01*
X-1519481Y-19093261D01*
X-1511481Y-19120261D01*
X-1508481Y-19147261D01*
X-1511481Y-19174261D01*
X-1519481Y-19201261D01*
X-1532481Y-19225261D01*
X-1549481Y-19246261D01*
X-1570481Y-19263261D01*
X-1594481Y-19276261D01*
X-1621481Y-19284261D01*
X-1648481Y-19287261D01*
X-2168481Y-19287261D01*
X-2195481Y-19284261D01*
X-2222481Y-19276261D01*
X-2246481Y-19263261D01*
X-2267481Y-19246261D01*
X-2284481Y-19225261D01*
X-2297481Y-19201261D01*
X-2305481Y-19174261D01*
X-2308481Y-19147261D01*
X-2305481Y-19120261D01*
X-2297481Y-19093261D01*
X-2284481Y-19069261D01*
X-2267481Y-19048261D01*
X-2246481Y-19031261D01*
X-2222481Y-19018261D01*
X-2195481Y-19010261D01*
X-2168481Y-19007261D01*
X-1648481Y-19007261D01*
X-1621481Y-19010261D01*
G37*
X-1621481Y-19010261D02*
X-1594481Y-19018261D01*
X-1570481Y-19031261D01*
X-1549481Y-19048261D01*
X-1532481Y-19069261D01*
X-1519481Y-19093261D01*
X-1511481Y-19120261D01*
X-1508481Y-19147261D01*
X-1511481Y-19174261D01*
X-1519481Y-19201261D01*
X-1532481Y-19225261D01*
X-1549481Y-19246261D01*
X-1570481Y-19263261D01*
X-1594481Y-19276261D01*
X-1621481Y-19284261D01*
X-1648481Y-19287261D01*
X-2168481Y-19287261D01*
X-2195481Y-19284261D01*
X-2222481Y-19276261D01*
X-2246481Y-19263261D01*
X-2267481Y-19246261D01*
X-2284481Y-19225261D01*
X-2297481Y-19201261D01*
X-2305481Y-19174261D01*
X-2308481Y-19147261D01*
X-2305481Y-19120261D01*
X-2297481Y-19093261D01*
X-2284481Y-19069261D01*
X-2267481Y-19048261D01*
X-2246481Y-19031261D01*
X-2222481Y-19018261D01*
X-2195481Y-19010261D01*
X-2168481Y-19007261D01*
X-1648481Y-19007261D01*
X-1621481Y-19010261D01*
G36*
X-631481Y-17500261D02*
G01*
X-604481Y-17508261D01*
X-580481Y-17521261D01*
X-559481Y-17538261D01*
X-542481Y-17559261D01*
X-529481Y-17583261D01*
X-521481Y-17610261D01*
X-518481Y-17637261D01*
X-518481Y-18157261D01*
X-521481Y-18184261D01*
X-529481Y-18211261D01*
X-542481Y-18235261D01*
X-559481Y-18256261D01*
X-580481Y-18273261D01*
X-604481Y-18286261D01*
X-631481Y-18294261D01*
X-658481Y-18297261D01*
X-685481Y-18294261D01*
X-712481Y-18286261D01*
X-736481Y-18273261D01*
X-757481Y-18256261D01*
X-774481Y-18235261D01*
X-787481Y-18211261D01*
X-795481Y-18184261D01*
X-798481Y-18157261D01*
X-798481Y-17637261D01*
X-795481Y-17610261D01*
X-787481Y-17583261D01*
X-774481Y-17559261D01*
X-757481Y-17538261D01*
X-736481Y-17521261D01*
X-712481Y-17508261D01*
X-685481Y-17500261D01*
X-658481Y-17497261D01*
X-631481Y-17500261D01*
G37*
X-631481Y-17500261D02*
X-604481Y-17508261D01*
X-580481Y-17521261D01*
X-559481Y-17538261D01*
X-542481Y-17559261D01*
X-529481Y-17583261D01*
X-521481Y-17610261D01*
X-518481Y-17637261D01*
X-518481Y-18157261D01*
X-521481Y-18184261D01*
X-529481Y-18211261D01*
X-542481Y-18235261D01*
X-559481Y-18256261D01*
X-580481Y-18273261D01*
X-604481Y-18286261D01*
X-631481Y-18294261D01*
X-658481Y-18297261D01*
X-685481Y-18294261D01*
X-712481Y-18286261D01*
X-736481Y-18273261D01*
X-757481Y-18256261D01*
X-774481Y-18235261D01*
X-787481Y-18211261D01*
X-795481Y-18184261D01*
X-798481Y-18157261D01*
X-798481Y-17637261D01*
X-795481Y-17610261D01*
X-787481Y-17583261D01*
X-774481Y-17559261D01*
X-757481Y-17538261D01*
X-736481Y-17521261D01*
X-712481Y-17508261D01*
X-685481Y-17500261D01*
X-658481Y-17497261D01*
X-631481Y-17500261D01*
G36*
X368519Y-17500261D02*
G01*
X395519Y-17508261D01*
X419519Y-17521261D01*
X440519Y-17538261D01*
X457519Y-17559261D01*
X470519Y-17583261D01*
X478519Y-17610261D01*
X481519Y-17637261D01*
X481519Y-18157261D01*
X478519Y-18184261D01*
X470519Y-18211261D01*
X457519Y-18235261D01*
X440519Y-18256261D01*
X419519Y-18273261D01*
X395519Y-18286261D01*
X368519Y-18294261D01*
X341519Y-18297261D01*
X314519Y-18294261D01*
X287519Y-18286261D01*
X263519Y-18273261D01*
X242519Y-18256261D01*
X225519Y-18235261D01*
X212519Y-18211261D01*
X204519Y-18184261D01*
X201519Y-18157261D01*
X201519Y-17637261D01*
X204519Y-17610261D01*
X212519Y-17583261D01*
X225519Y-17559261D01*
X242519Y-17538261D01*
X263519Y-17521261D01*
X287519Y-17508261D01*
X314519Y-17500261D01*
X341519Y-17497261D01*
X368519Y-17500261D01*
G37*
X368519Y-17500261D02*
X395519Y-17508261D01*
X419519Y-17521261D01*
X440519Y-17538261D01*
X457519Y-17559261D01*
X470519Y-17583261D01*
X478519Y-17610261D01*
X481519Y-17637261D01*
X481519Y-18157261D01*
X478519Y-18184261D01*
X470519Y-18211261D01*
X457519Y-18235261D01*
X440519Y-18256261D01*
X419519Y-18273261D01*
X395519Y-18286261D01*
X368519Y-18294261D01*
X341519Y-18297261D01*
X314519Y-18294261D01*
X287519Y-18286261D01*
X263519Y-18273261D01*
X242519Y-18256261D01*
X225519Y-18235261D01*
X212519Y-18211261D01*
X204519Y-18184261D01*
X201519Y-18157261D01*
X201519Y-17637261D01*
X204519Y-17610261D01*
X212519Y-17583261D01*
X225519Y-17559261D01*
X242519Y-17538261D01*
X263519Y-17521261D01*
X287519Y-17508261D01*
X314519Y-17500261D01*
X341519Y-17497261D01*
X368519Y-17500261D01*
G36*
X2378519Y-21010261D02*
G01*
X2405519Y-21018261D01*
X2429519Y-21031261D01*
X2450519Y-21048261D01*
X2467519Y-21069261D01*
X2480519Y-21093261D01*
X2488519Y-21120261D01*
X2491519Y-21147261D01*
X2488519Y-21174261D01*
X2480519Y-21201261D01*
X2467519Y-21225261D01*
X2450519Y-21246261D01*
X2429519Y-21263261D01*
X2405519Y-21276261D01*
X2378519Y-21284261D01*
X2351519Y-21287261D01*
X1831519Y-21287261D01*
X1804519Y-21284261D01*
X1777519Y-21276261D01*
X1753519Y-21263261D01*
X1732519Y-21246261D01*
X1715519Y-21225261D01*
X1702519Y-21201261D01*
X1694519Y-21174261D01*
X1691519Y-21147261D01*
X1694519Y-21120261D01*
X1702519Y-21093261D01*
X1715519Y-21069261D01*
X1732519Y-21048261D01*
X1753519Y-21031261D01*
X1777519Y-21018261D01*
X1804519Y-21010261D01*
X1831519Y-21007261D01*
X2351519Y-21007261D01*
X2378519Y-21010261D01*
G37*
X2378519Y-21010261D02*
X2405519Y-21018261D01*
X2429519Y-21031261D01*
X2450519Y-21048261D01*
X2467519Y-21069261D01*
X2480519Y-21093261D01*
X2488519Y-21120261D01*
X2491519Y-21147261D01*
X2488519Y-21174261D01*
X2480519Y-21201261D01*
X2467519Y-21225261D01*
X2450519Y-21246261D01*
X2429519Y-21263261D01*
X2405519Y-21276261D01*
X2378519Y-21284261D01*
X2351519Y-21287261D01*
X1831519Y-21287261D01*
X1804519Y-21284261D01*
X1777519Y-21276261D01*
X1753519Y-21263261D01*
X1732519Y-21246261D01*
X1715519Y-21225261D01*
X1702519Y-21201261D01*
X1694519Y-21174261D01*
X1691519Y-21147261D01*
X1694519Y-21120261D01*
X1702519Y-21093261D01*
X1715519Y-21069261D01*
X1732519Y-21048261D01*
X1753519Y-21031261D01*
X1777519Y-21018261D01*
X1804519Y-21010261D01*
X1831519Y-21007261D01*
X2351519Y-21007261D01*
X2378519Y-21010261D01*
G36*
X-631481Y-21500261D02*
G01*
X-604481Y-21508261D01*
X-580481Y-21521261D01*
X-559481Y-21538261D01*
X-542481Y-21559261D01*
X-529481Y-21583261D01*
X-521481Y-21610261D01*
X-518481Y-21637261D01*
X-518481Y-22157261D01*
X-521481Y-22184261D01*
X-529481Y-22211261D01*
X-542481Y-22235261D01*
X-559481Y-22256261D01*
X-580481Y-22273261D01*
X-604481Y-22286261D01*
X-631481Y-22294261D01*
X-658481Y-22297261D01*
X-685481Y-22294261D01*
X-712481Y-22286261D01*
X-736481Y-22273261D01*
X-757481Y-22256261D01*
X-774481Y-22235261D01*
X-787481Y-22211261D01*
X-795481Y-22184261D01*
X-798481Y-22157261D01*
X-798481Y-21637261D01*
X-795481Y-21610261D01*
X-787481Y-21583261D01*
X-774481Y-21559261D01*
X-757481Y-21538261D01*
X-736481Y-21521261D01*
X-712481Y-21508261D01*
X-685481Y-21500261D01*
X-658481Y-21497261D01*
X-631481Y-21500261D01*
G37*
X-631481Y-21500261D02*
X-604481Y-21508261D01*
X-580481Y-21521261D01*
X-559481Y-21538261D01*
X-542481Y-21559261D01*
X-529481Y-21583261D01*
X-521481Y-21610261D01*
X-518481Y-21637261D01*
X-518481Y-22157261D01*
X-521481Y-22184261D01*
X-529481Y-22211261D01*
X-542481Y-22235261D01*
X-559481Y-22256261D01*
X-580481Y-22273261D01*
X-604481Y-22286261D01*
X-631481Y-22294261D01*
X-658481Y-22297261D01*
X-685481Y-22294261D01*
X-712481Y-22286261D01*
X-736481Y-22273261D01*
X-757481Y-22256261D01*
X-774481Y-22235261D01*
X-787481Y-22211261D01*
X-795481Y-22184261D01*
X-798481Y-22157261D01*
X-798481Y-21637261D01*
X-795481Y-21610261D01*
X-787481Y-21583261D01*
X-774481Y-21559261D01*
X-757481Y-21538261D01*
X-736481Y-21521261D01*
X-712481Y-21508261D01*
X-685481Y-21500261D01*
X-658481Y-21497261D01*
X-631481Y-21500261D01*
G36*
X2378519Y-19010261D02*
G01*
X2405519Y-19018261D01*
X2429519Y-19031261D01*
X2450519Y-19048261D01*
X2467519Y-19069261D01*
X2480519Y-19093261D01*
X2488519Y-19120261D01*
X2491519Y-19147261D01*
X2488519Y-19174261D01*
X2480519Y-19201261D01*
X2467519Y-19225261D01*
X2450519Y-19246261D01*
X2429519Y-19263261D01*
X2405519Y-19276261D01*
X2378519Y-19284261D01*
X2351519Y-19287261D01*
X1831519Y-19287261D01*
X1804519Y-19284261D01*
X1777519Y-19276261D01*
X1753519Y-19263261D01*
X1732519Y-19246261D01*
X1715519Y-19225261D01*
X1702519Y-19201261D01*
X1694519Y-19174261D01*
X1691519Y-19147261D01*
X1694519Y-19120261D01*
X1702519Y-19093261D01*
X1715519Y-19069261D01*
X1732519Y-19048261D01*
X1753519Y-19031261D01*
X1777519Y-19018261D01*
X1804519Y-19010261D01*
X1831519Y-19007261D01*
X2351519Y-19007261D01*
X2378519Y-19010261D01*
G37*
X2378519Y-19010261D02*
X2405519Y-19018261D01*
X2429519Y-19031261D01*
X2450519Y-19048261D01*
X2467519Y-19069261D01*
X2480519Y-19093261D01*
X2488519Y-19120261D01*
X2491519Y-19147261D01*
X2488519Y-19174261D01*
X2480519Y-19201261D01*
X2467519Y-19225261D01*
X2450519Y-19246261D01*
X2429519Y-19263261D01*
X2405519Y-19276261D01*
X2378519Y-19284261D01*
X2351519Y-19287261D01*
X1831519Y-19287261D01*
X1804519Y-19284261D01*
X1777519Y-19276261D01*
X1753519Y-19263261D01*
X1732519Y-19246261D01*
X1715519Y-19225261D01*
X1702519Y-19201261D01*
X1694519Y-19174261D01*
X1691519Y-19147261D01*
X1694519Y-19120261D01*
X1702519Y-19093261D01*
X1715519Y-19069261D01*
X1732519Y-19048261D01*
X1753519Y-19031261D01*
X1777519Y-19018261D01*
X1804519Y-19010261D01*
X1831519Y-19007261D01*
X2351519Y-19007261D01*
X2378519Y-19010261D01*
G36*
X368519Y-21500261D02*
G01*
X395519Y-21508261D01*
X419519Y-21521261D01*
X440519Y-21538261D01*
X457519Y-21559261D01*
X470519Y-21583261D01*
X478519Y-21610261D01*
X481519Y-21637261D01*
X481519Y-22157261D01*
X478519Y-22184261D01*
X470519Y-22211261D01*
X457519Y-22235261D01*
X440519Y-22256261D01*
X419519Y-22273261D01*
X395519Y-22286261D01*
X368519Y-22294261D01*
X341519Y-22297261D01*
X314519Y-22294261D01*
X287519Y-22286261D01*
X263519Y-22273261D01*
X242519Y-22256261D01*
X225519Y-22235261D01*
X212519Y-22211261D01*
X204519Y-22184261D01*
X201519Y-22157261D01*
X201519Y-21637261D01*
X204519Y-21610261D01*
X212519Y-21583261D01*
X225519Y-21559261D01*
X242519Y-21538261D01*
X263519Y-21521261D01*
X287519Y-21508261D01*
X314519Y-21500261D01*
X341519Y-21497261D01*
X368519Y-21500261D01*
G37*
X368519Y-21500261D02*
X395519Y-21508261D01*
X419519Y-21521261D01*
X440519Y-21538261D01*
X457519Y-21559261D01*
X470519Y-21583261D01*
X478519Y-21610261D01*
X481519Y-21637261D01*
X481519Y-22157261D01*
X478519Y-22184261D01*
X470519Y-22211261D01*
X457519Y-22235261D01*
X440519Y-22256261D01*
X419519Y-22273261D01*
X395519Y-22286261D01*
X368519Y-22294261D01*
X341519Y-22297261D01*
X314519Y-22294261D01*
X287519Y-22286261D01*
X263519Y-22273261D01*
X242519Y-22256261D01*
X225519Y-22235261D01*
X212519Y-22211261D01*
X204519Y-22184261D01*
X201519Y-22157261D01*
X201519Y-21637261D01*
X204519Y-21610261D01*
X212519Y-21583261D01*
X225519Y-21559261D01*
X242519Y-21538261D01*
X263519Y-21521261D01*
X287519Y-21508261D01*
X314519Y-21500261D01*
X341519Y-21497261D01*
X368519Y-21500261D01*
G36*
X2378519Y-20510261D02*
G01*
X2405519Y-20518261D01*
X2429519Y-20531261D01*
X2450519Y-20548261D01*
X2467519Y-20569261D01*
X2480519Y-20593261D01*
X2488519Y-20620261D01*
X2491519Y-20647261D01*
X2488519Y-20674261D01*
X2480519Y-20701261D01*
X2467519Y-20725261D01*
X2450519Y-20746261D01*
X2429519Y-20763261D01*
X2405519Y-20776261D01*
X2378519Y-20784261D01*
X2351519Y-20787261D01*
X1831519Y-20787261D01*
X1804519Y-20784261D01*
X1777519Y-20776261D01*
X1753519Y-20763261D01*
X1732519Y-20746261D01*
X1715519Y-20725261D01*
X1702519Y-20701261D01*
X1694519Y-20674261D01*
X1691519Y-20647261D01*
X1694519Y-20620261D01*
X1702519Y-20593261D01*
X1715519Y-20569261D01*
X1732519Y-20548261D01*
X1753519Y-20531261D01*
X1777519Y-20518261D01*
X1804519Y-20510261D01*
X1831519Y-20507261D01*
X2351519Y-20507261D01*
X2378519Y-20510261D01*
G37*
X2378519Y-20510261D02*
X2405519Y-20518261D01*
X2429519Y-20531261D01*
X2450519Y-20548261D01*
X2467519Y-20569261D01*
X2480519Y-20593261D01*
X2488519Y-20620261D01*
X2491519Y-20647261D01*
X2488519Y-20674261D01*
X2480519Y-20701261D01*
X2467519Y-20725261D01*
X2450519Y-20746261D01*
X2429519Y-20763261D01*
X2405519Y-20776261D01*
X2378519Y-20784261D01*
X2351519Y-20787261D01*
X1831519Y-20787261D01*
X1804519Y-20784261D01*
X1777519Y-20776261D01*
X1753519Y-20763261D01*
X1732519Y-20746261D01*
X1715519Y-20725261D01*
X1702519Y-20701261D01*
X1694519Y-20674261D01*
X1691519Y-20647261D01*
X1694519Y-20620261D01*
X1702519Y-20593261D01*
X1715519Y-20569261D01*
X1732519Y-20548261D01*
X1753519Y-20531261D01*
X1777519Y-20518261D01*
X1804519Y-20510261D01*
X1831519Y-20507261D01*
X2351519Y-20507261D01*
X2378519Y-20510261D01*
G36*
X-1621481Y-18510261D02*
G01*
X-1594481Y-18518261D01*
X-1570481Y-18531261D01*
X-1549481Y-18548261D01*
X-1532481Y-18569261D01*
X-1519481Y-18593261D01*
X-1511481Y-18620261D01*
X-1508481Y-18647261D01*
X-1511481Y-18674261D01*
X-1519481Y-18701261D01*
X-1532481Y-18725261D01*
X-1549481Y-18746261D01*
X-1570481Y-18763261D01*
X-1594481Y-18776261D01*
X-1621481Y-18784261D01*
X-1648481Y-18787261D01*
X-2168481Y-18787261D01*
X-2195481Y-18784261D01*
X-2222481Y-18776261D01*
X-2246481Y-18763261D01*
X-2267481Y-18746261D01*
X-2284481Y-18725261D01*
X-2297481Y-18701261D01*
X-2305481Y-18674261D01*
X-2308481Y-18647261D01*
X-2305481Y-18620261D01*
X-2297481Y-18593261D01*
X-2284481Y-18569261D01*
X-2267481Y-18548261D01*
X-2246481Y-18531261D01*
X-2222481Y-18518261D01*
X-2195481Y-18510261D01*
X-2168481Y-18507261D01*
X-1648481Y-18507261D01*
X-1621481Y-18510261D01*
G37*
X-1621481Y-18510261D02*
X-1594481Y-18518261D01*
X-1570481Y-18531261D01*
X-1549481Y-18548261D01*
X-1532481Y-18569261D01*
X-1519481Y-18593261D01*
X-1511481Y-18620261D01*
X-1508481Y-18647261D01*
X-1511481Y-18674261D01*
X-1519481Y-18701261D01*
X-1532481Y-18725261D01*
X-1549481Y-18746261D01*
X-1570481Y-18763261D01*
X-1594481Y-18776261D01*
X-1621481Y-18784261D01*
X-1648481Y-18787261D01*
X-2168481Y-18787261D01*
X-2195481Y-18784261D01*
X-2222481Y-18776261D01*
X-2246481Y-18763261D01*
X-2267481Y-18746261D01*
X-2284481Y-18725261D01*
X-2297481Y-18701261D01*
X-2305481Y-18674261D01*
X-2308481Y-18647261D01*
X-2305481Y-18620261D01*
X-2297481Y-18593261D01*
X-2284481Y-18569261D01*
X-2267481Y-18548261D01*
X-2246481Y-18531261D01*
X-2222481Y-18518261D01*
X-2195481Y-18510261D01*
X-2168481Y-18507261D01*
X-1648481Y-18507261D01*
X-1621481Y-18510261D01*
G36*
X-131481Y-21500261D02*
G01*
X-104481Y-21508261D01*
X-80481Y-21521261D01*
X-59481Y-21538261D01*
X-42481Y-21559261D01*
X-29481Y-21583261D01*
X-21481Y-21610261D01*
X-18481Y-21637261D01*
X-18481Y-22157261D01*
X-21481Y-22184261D01*
X-29481Y-22211261D01*
X-42481Y-22235261D01*
X-59481Y-22256261D01*
X-80481Y-22273261D01*
X-104481Y-22286261D01*
X-131481Y-22294261D01*
X-158481Y-22297261D01*
X-185481Y-22294261D01*
X-212481Y-22286261D01*
X-236481Y-22273261D01*
X-257481Y-22256261D01*
X-274481Y-22235261D01*
X-287481Y-22211261D01*
X-295481Y-22184261D01*
X-298481Y-22157261D01*
X-298481Y-21637261D01*
X-295481Y-21610261D01*
X-287481Y-21583261D01*
X-274481Y-21559261D01*
X-257481Y-21538261D01*
X-236481Y-21521261D01*
X-212481Y-21508261D01*
X-185481Y-21500261D01*
X-158481Y-21497261D01*
X-131481Y-21500261D01*
G37*
X-131481Y-21500261D02*
X-104481Y-21508261D01*
X-80481Y-21521261D01*
X-59481Y-21538261D01*
X-42481Y-21559261D01*
X-29481Y-21583261D01*
X-21481Y-21610261D01*
X-18481Y-21637261D01*
X-18481Y-22157261D01*
X-21481Y-22184261D01*
X-29481Y-22211261D01*
X-42481Y-22235261D01*
X-59481Y-22256261D01*
X-80481Y-22273261D01*
X-104481Y-22286261D01*
X-131481Y-22294261D01*
X-158481Y-22297261D01*
X-185481Y-22294261D01*
X-212481Y-22286261D01*
X-236481Y-22273261D01*
X-257481Y-22256261D01*
X-274481Y-22235261D01*
X-287481Y-22211261D01*
X-295481Y-22184261D01*
X-298481Y-22157261D01*
X-298481Y-21637261D01*
X-295481Y-21610261D01*
X-287481Y-21583261D01*
X-274481Y-21559261D01*
X-257481Y-21538261D01*
X-236481Y-21521261D01*
X-212481Y-21508261D01*
X-185481Y-21500261D01*
X-158481Y-21497261D01*
X-131481Y-21500261D01*
G36*
X-1621481Y-20010261D02*
G01*
X-1594481Y-20018261D01*
X-1570481Y-20031261D01*
X-1549481Y-20048261D01*
X-1532481Y-20069261D01*
X-1519481Y-20093261D01*
X-1511481Y-20120261D01*
X-1508481Y-20147261D01*
X-1511481Y-20174261D01*
X-1519481Y-20201261D01*
X-1532481Y-20225261D01*
X-1549481Y-20246261D01*
X-1570481Y-20263261D01*
X-1594481Y-20276261D01*
X-1621481Y-20284261D01*
X-1648481Y-20287261D01*
X-2168481Y-20287261D01*
X-2195481Y-20284261D01*
X-2222481Y-20276261D01*
X-2246481Y-20263261D01*
X-2267481Y-20246261D01*
X-2284481Y-20225261D01*
X-2297481Y-20201261D01*
X-2305481Y-20174261D01*
X-2308481Y-20147261D01*
X-2305481Y-20120261D01*
X-2297481Y-20093261D01*
X-2284481Y-20069261D01*
X-2267481Y-20048261D01*
X-2246481Y-20031261D01*
X-2222481Y-20018261D01*
X-2195481Y-20010261D01*
X-2168481Y-20007261D01*
X-1648481Y-20007261D01*
X-1621481Y-20010261D01*
G37*
X-1621481Y-20010261D02*
X-1594481Y-20018261D01*
X-1570481Y-20031261D01*
X-1549481Y-20048261D01*
X-1532481Y-20069261D01*
X-1519481Y-20093261D01*
X-1511481Y-20120261D01*
X-1508481Y-20147261D01*
X-1511481Y-20174261D01*
X-1519481Y-20201261D01*
X-1532481Y-20225261D01*
X-1549481Y-20246261D01*
X-1570481Y-20263261D01*
X-1594481Y-20276261D01*
X-1621481Y-20284261D01*
X-1648481Y-20287261D01*
X-2168481Y-20287261D01*
X-2195481Y-20284261D01*
X-2222481Y-20276261D01*
X-2246481Y-20263261D01*
X-2267481Y-20246261D01*
X-2284481Y-20225261D01*
X-2297481Y-20201261D01*
X-2305481Y-20174261D01*
X-2308481Y-20147261D01*
X-2305481Y-20120261D01*
X-2297481Y-20093261D01*
X-2284481Y-20069261D01*
X-2267481Y-20048261D01*
X-2246481Y-20031261D01*
X-2222481Y-20018261D01*
X-2195481Y-20010261D01*
X-2168481Y-20007261D01*
X-1648481Y-20007261D01*
X-1621481Y-20010261D01*
G36*
X2378519Y-19510261D02*
G01*
X2405519Y-19518261D01*
X2429519Y-19531261D01*
X2450519Y-19548261D01*
X2467519Y-19569261D01*
X2480519Y-19593261D01*
X2488519Y-19620261D01*
X2491519Y-19647261D01*
X2488519Y-19674261D01*
X2480519Y-19701261D01*
X2467519Y-19725261D01*
X2450519Y-19746261D01*
X2429519Y-19763261D01*
X2405519Y-19776261D01*
X2378519Y-19784261D01*
X2351519Y-19787261D01*
X1831519Y-19787261D01*
X1804519Y-19784261D01*
X1777519Y-19776261D01*
X1753519Y-19763261D01*
X1732519Y-19746261D01*
X1715519Y-19725261D01*
X1702519Y-19701261D01*
X1694519Y-19674261D01*
X1691519Y-19647261D01*
X1694519Y-19620261D01*
X1702519Y-19593261D01*
X1715519Y-19569261D01*
X1732519Y-19548261D01*
X1753519Y-19531261D01*
X1777519Y-19518261D01*
X1804519Y-19510261D01*
X1831519Y-19507261D01*
X2351519Y-19507261D01*
X2378519Y-19510261D01*
G37*
X2378519Y-19510261D02*
X2405519Y-19518261D01*
X2429519Y-19531261D01*
X2450519Y-19548261D01*
X2467519Y-19569261D01*
X2480519Y-19593261D01*
X2488519Y-19620261D01*
X2491519Y-19647261D01*
X2488519Y-19674261D01*
X2480519Y-19701261D01*
X2467519Y-19725261D01*
X2450519Y-19746261D01*
X2429519Y-19763261D01*
X2405519Y-19776261D01*
X2378519Y-19784261D01*
X2351519Y-19787261D01*
X1831519Y-19787261D01*
X1804519Y-19784261D01*
X1777519Y-19776261D01*
X1753519Y-19763261D01*
X1732519Y-19746261D01*
X1715519Y-19725261D01*
X1702519Y-19701261D01*
X1694519Y-19674261D01*
X1691519Y-19647261D01*
X1694519Y-19620261D01*
X1702519Y-19593261D01*
X1715519Y-19569261D01*
X1732519Y-19548261D01*
X1753519Y-19531261D01*
X1777519Y-19518261D01*
X1804519Y-19510261D01*
X1831519Y-19507261D01*
X2351519Y-19507261D01*
X2378519Y-19510261D01*
G36*
X-1621481Y-19510261D02*
G01*
X-1594481Y-19518261D01*
X-1570481Y-19531261D01*
X-1549481Y-19548261D01*
X-1532481Y-19569261D01*
X-1519481Y-19593261D01*
X-1511481Y-19620261D01*
X-1508481Y-19647261D01*
X-1511481Y-19674261D01*
X-1519481Y-19701261D01*
X-1532481Y-19725261D01*
X-1549481Y-19746261D01*
X-1570481Y-19763261D01*
X-1594481Y-19776261D01*
X-1621481Y-19784261D01*
X-1648481Y-19787261D01*
X-2168481Y-19787261D01*
X-2195481Y-19784261D01*
X-2222481Y-19776261D01*
X-2246481Y-19763261D01*
X-2267481Y-19746261D01*
X-2284481Y-19725261D01*
X-2297481Y-19701261D01*
X-2305481Y-19674261D01*
X-2308481Y-19647261D01*
X-2305481Y-19620261D01*
X-2297481Y-19593261D01*
X-2284481Y-19569261D01*
X-2267481Y-19548261D01*
X-2246481Y-19531261D01*
X-2222481Y-19518261D01*
X-2195481Y-19510261D01*
X-2168481Y-19507261D01*
X-1648481Y-19507261D01*
X-1621481Y-19510261D01*
G37*
X-1621481Y-19510261D02*
X-1594481Y-19518261D01*
X-1570481Y-19531261D01*
X-1549481Y-19548261D01*
X-1532481Y-19569261D01*
X-1519481Y-19593261D01*
X-1511481Y-19620261D01*
X-1508481Y-19647261D01*
X-1511481Y-19674261D01*
X-1519481Y-19701261D01*
X-1532481Y-19725261D01*
X-1549481Y-19746261D01*
X-1570481Y-19763261D01*
X-1594481Y-19776261D01*
X-1621481Y-19784261D01*
X-1648481Y-19787261D01*
X-2168481Y-19787261D01*
X-2195481Y-19784261D01*
X-2222481Y-19776261D01*
X-2246481Y-19763261D01*
X-2267481Y-19746261D01*
X-2284481Y-19725261D01*
X-2297481Y-19701261D01*
X-2305481Y-19674261D01*
X-2308481Y-19647261D01*
X-2305481Y-19620261D01*
X-2297481Y-19593261D01*
X-2284481Y-19569261D01*
X-2267481Y-19548261D01*
X-2246481Y-19531261D01*
X-2222481Y-19518261D01*
X-2195481Y-19510261D01*
X-2168481Y-19507261D01*
X-1648481Y-19507261D01*
X-1621481Y-19510261D01*
G36*
X1368519Y-21500261D02*
G01*
X1395519Y-21508261D01*
X1419519Y-21521261D01*
X1440519Y-21538261D01*
X1457519Y-21559261D01*
X1470519Y-21583261D01*
X1478519Y-21610261D01*
X1481519Y-21637261D01*
X1481519Y-22157261D01*
X1478519Y-22184261D01*
X1470519Y-22211261D01*
X1457519Y-22235261D01*
X1440519Y-22256261D01*
X1419519Y-22273261D01*
X1395519Y-22286261D01*
X1368519Y-22294261D01*
X1341519Y-22297261D01*
X1314519Y-22294261D01*
X1287519Y-22286261D01*
X1263519Y-22273261D01*
X1242519Y-22256261D01*
X1225519Y-22235261D01*
X1212519Y-22211261D01*
X1204519Y-22184261D01*
X1201519Y-22157261D01*
X1201519Y-21637261D01*
X1204519Y-21610261D01*
X1212519Y-21583261D01*
X1225519Y-21559261D01*
X1242519Y-21538261D01*
X1263519Y-21521261D01*
X1287519Y-21508261D01*
X1314519Y-21500261D01*
X1341519Y-21497261D01*
X1368519Y-21500261D01*
G37*
X1368519Y-21500261D02*
X1395519Y-21508261D01*
X1419519Y-21521261D01*
X1440519Y-21538261D01*
X1457519Y-21559261D01*
X1470519Y-21583261D01*
X1478519Y-21610261D01*
X1481519Y-21637261D01*
X1481519Y-22157261D01*
X1478519Y-22184261D01*
X1470519Y-22211261D01*
X1457519Y-22235261D01*
X1440519Y-22256261D01*
X1419519Y-22273261D01*
X1395519Y-22286261D01*
X1368519Y-22294261D01*
X1341519Y-22297261D01*
X1314519Y-22294261D01*
X1287519Y-22286261D01*
X1263519Y-22273261D01*
X1242519Y-22256261D01*
X1225519Y-22235261D01*
X1212519Y-22211261D01*
X1204519Y-22184261D01*
X1201519Y-22157261D01*
X1201519Y-21637261D01*
X1204519Y-21610261D01*
X1212519Y-21583261D01*
X1225519Y-21559261D01*
X1242519Y-21538261D01*
X1263519Y-21521261D01*
X1287519Y-21508261D01*
X1314519Y-21500261D01*
X1341519Y-21497261D01*
X1368519Y-21500261D01*
G36*
X-131481Y-17500261D02*
G01*
X-104481Y-17508261D01*
X-80481Y-17521261D01*
X-59481Y-17538261D01*
X-42481Y-17559261D01*
X-29481Y-17583261D01*
X-21481Y-17610261D01*
X-18481Y-17637261D01*
X-18481Y-18157261D01*
X-21481Y-18184261D01*
X-29481Y-18211261D01*
X-42481Y-18235261D01*
X-59481Y-18256261D01*
X-80481Y-18273261D01*
X-104481Y-18286261D01*
X-131481Y-18294261D01*
X-158481Y-18297261D01*
X-185481Y-18294261D01*
X-212481Y-18286261D01*
X-236481Y-18273261D01*
X-257481Y-18256261D01*
X-274481Y-18235261D01*
X-287481Y-18211261D01*
X-295481Y-18184261D01*
X-298481Y-18157261D01*
X-298481Y-17637261D01*
X-295481Y-17610261D01*
X-287481Y-17583261D01*
X-274481Y-17559261D01*
X-257481Y-17538261D01*
X-236481Y-17521261D01*
X-212481Y-17508261D01*
X-185481Y-17500261D01*
X-158481Y-17497261D01*
X-131481Y-17500261D01*
G37*
X-131481Y-17500261D02*
X-104481Y-17508261D01*
X-80481Y-17521261D01*
X-59481Y-17538261D01*
X-42481Y-17559261D01*
X-29481Y-17583261D01*
X-21481Y-17610261D01*
X-18481Y-17637261D01*
X-18481Y-18157261D01*
X-21481Y-18184261D01*
X-29481Y-18211261D01*
X-42481Y-18235261D01*
X-59481Y-18256261D01*
X-80481Y-18273261D01*
X-104481Y-18286261D01*
X-131481Y-18294261D01*
X-158481Y-18297261D01*
X-185481Y-18294261D01*
X-212481Y-18286261D01*
X-236481Y-18273261D01*
X-257481Y-18256261D01*
X-274481Y-18235261D01*
X-287481Y-18211261D01*
X-295481Y-18184261D01*
X-298481Y-18157261D01*
X-298481Y-17637261D01*
X-295481Y-17610261D01*
X-287481Y-17583261D01*
X-274481Y-17559261D01*
X-257481Y-17538261D01*
X-236481Y-17521261D01*
X-212481Y-17508261D01*
X-185481Y-17500261D01*
X-158481Y-17497261D01*
X-131481Y-17500261D01*
G36*
X2378519Y-20010261D02*
G01*
X2405519Y-20018261D01*
X2429519Y-20031261D01*
X2450519Y-20048261D01*
X2467519Y-20069261D01*
X2480519Y-20093261D01*
X2488519Y-20120261D01*
X2491519Y-20147261D01*
X2488519Y-20174261D01*
X2480519Y-20201261D01*
X2467519Y-20225261D01*
X2450519Y-20246261D01*
X2429519Y-20263261D01*
X2405519Y-20276261D01*
X2378519Y-20284261D01*
X2351519Y-20287261D01*
X1831519Y-20287261D01*
X1804519Y-20284261D01*
X1777519Y-20276261D01*
X1753519Y-20263261D01*
X1732519Y-20246261D01*
X1715519Y-20225261D01*
X1702519Y-20201261D01*
X1694519Y-20174261D01*
X1691519Y-20147261D01*
X1694519Y-20120261D01*
X1702519Y-20093261D01*
X1715519Y-20069261D01*
X1732519Y-20048261D01*
X1753519Y-20031261D01*
X1777519Y-20018261D01*
X1804519Y-20010261D01*
X1831519Y-20007261D01*
X2351519Y-20007261D01*
X2378519Y-20010261D01*
G37*
X2378519Y-20010261D02*
X2405519Y-20018261D01*
X2429519Y-20031261D01*
X2450519Y-20048261D01*
X2467519Y-20069261D01*
X2480519Y-20093261D01*
X2488519Y-20120261D01*
X2491519Y-20147261D01*
X2488519Y-20174261D01*
X2480519Y-20201261D01*
X2467519Y-20225261D01*
X2450519Y-20246261D01*
X2429519Y-20263261D01*
X2405519Y-20276261D01*
X2378519Y-20284261D01*
X2351519Y-20287261D01*
X1831519Y-20287261D01*
X1804519Y-20284261D01*
X1777519Y-20276261D01*
X1753519Y-20263261D01*
X1732519Y-20246261D01*
X1715519Y-20225261D01*
X1702519Y-20201261D01*
X1694519Y-20174261D01*
X1691519Y-20147261D01*
X1694519Y-20120261D01*
X1702519Y-20093261D01*
X1715519Y-20069261D01*
X1732519Y-20048261D01*
X1753519Y-20031261D01*
X1777519Y-20018261D01*
X1804519Y-20010261D01*
X1831519Y-20007261D01*
X2351519Y-20007261D01*
X2378519Y-20010261D01*
G36*
X1368519Y-17500261D02*
G01*
X1395519Y-17508261D01*
X1419519Y-17521261D01*
X1440519Y-17538261D01*
X1457519Y-17559261D01*
X1470519Y-17583261D01*
X1478519Y-17610261D01*
X1481519Y-17637261D01*
X1481519Y-18157261D01*
X1478519Y-18184261D01*
X1470519Y-18211261D01*
X1457519Y-18235261D01*
X1440519Y-18256261D01*
X1419519Y-18273261D01*
X1395519Y-18286261D01*
X1368519Y-18294261D01*
X1341519Y-18297261D01*
X1314519Y-18294261D01*
X1287519Y-18286261D01*
X1263519Y-18273261D01*
X1242519Y-18256261D01*
X1225519Y-18235261D01*
X1212519Y-18211261D01*
X1204519Y-18184261D01*
X1201519Y-18157261D01*
X1201519Y-17637261D01*
X1204519Y-17610261D01*
X1212519Y-17583261D01*
X1225519Y-17559261D01*
X1242519Y-17538261D01*
X1263519Y-17521261D01*
X1287519Y-17508261D01*
X1314519Y-17500261D01*
X1341519Y-17497261D01*
X1368519Y-17500261D01*
G37*
X1368519Y-17500261D02*
X1395519Y-17508261D01*
X1419519Y-17521261D01*
X1440519Y-17538261D01*
X1457519Y-17559261D01*
X1470519Y-17583261D01*
X1478519Y-17610261D01*
X1481519Y-17637261D01*
X1481519Y-18157261D01*
X1478519Y-18184261D01*
X1470519Y-18211261D01*
X1457519Y-18235261D01*
X1440519Y-18256261D01*
X1419519Y-18273261D01*
X1395519Y-18286261D01*
X1368519Y-18294261D01*
X1341519Y-18297261D01*
X1314519Y-18294261D01*
X1287519Y-18286261D01*
X1263519Y-18273261D01*
X1242519Y-18256261D01*
X1225519Y-18235261D01*
X1212519Y-18211261D01*
X1204519Y-18184261D01*
X1201519Y-18157261D01*
X1201519Y-17637261D01*
X1204519Y-17610261D01*
X1212519Y-17583261D01*
X1225519Y-17559261D01*
X1242519Y-17538261D01*
X1263519Y-17521261D01*
X1287519Y-17508261D01*
X1314519Y-17500261D01*
X1341519Y-17497261D01*
X1368519Y-17500261D01*
G36*
X-1123481Y-17500261D02*
G01*
X-1096481Y-17508261D01*
X-1072481Y-17521261D01*
X-1051481Y-17538261D01*
X-1034481Y-17559261D01*
X-1021481Y-17583261D01*
X-1013481Y-17610261D01*
X-1010481Y-17637261D01*
X-1010481Y-18157261D01*
X-1013481Y-18184261D01*
X-1021481Y-18211261D01*
X-1034481Y-18235261D01*
X-1051481Y-18256261D01*
X-1072481Y-18273261D01*
X-1096481Y-18286261D01*
X-1123481Y-18294261D01*
X-1150481Y-18297261D01*
X-1177481Y-18294261D01*
X-1204481Y-18286261D01*
X-1228481Y-18273261D01*
X-1249481Y-18256261D01*
X-1266481Y-18235261D01*
X-1279481Y-18211261D01*
X-1287481Y-18184261D01*
X-1290481Y-18157261D01*
X-1290481Y-17637261D01*
X-1287481Y-17610261D01*
X-1279481Y-17583261D01*
X-1266481Y-17559261D01*
X-1249481Y-17538261D01*
X-1228481Y-17521261D01*
X-1204481Y-17508261D01*
X-1177481Y-17500261D01*
X-1150481Y-17497261D01*
X-1123481Y-17500261D01*
G37*
X-1123481Y-17500261D02*
X-1096481Y-17508261D01*
X-1072481Y-17521261D01*
X-1051481Y-17538261D01*
X-1034481Y-17559261D01*
X-1021481Y-17583261D01*
X-1013481Y-17610261D01*
X-1010481Y-17637261D01*
X-1010481Y-18157261D01*
X-1013481Y-18184261D01*
X-1021481Y-18211261D01*
X-1034481Y-18235261D01*
X-1051481Y-18256261D01*
X-1072481Y-18273261D01*
X-1096481Y-18286261D01*
X-1123481Y-18294261D01*
X-1150481Y-18297261D01*
X-1177481Y-18294261D01*
X-1204481Y-18286261D01*
X-1228481Y-18273261D01*
X-1249481Y-18256261D01*
X-1266481Y-18235261D01*
X-1279481Y-18211261D01*
X-1287481Y-18184261D01*
X-1290481Y-18157261D01*
X-1290481Y-17637261D01*
X-1287481Y-17610261D01*
X-1279481Y-17583261D01*
X-1266481Y-17559261D01*
X-1249481Y-17538261D01*
X-1228481Y-17521261D01*
X-1204481Y-17508261D01*
X-1177481Y-17500261D01*
X-1150481Y-17497261D01*
X-1123481Y-17500261D01*
G36*
X-1621481Y-20510261D02*
G01*
X-1594481Y-20518261D01*
X-1570481Y-20531261D01*
X-1549481Y-20548261D01*
X-1532481Y-20569261D01*
X-1519481Y-20593261D01*
X-1511481Y-20620261D01*
X-1508481Y-20647261D01*
X-1511481Y-20674261D01*
X-1519481Y-20701261D01*
X-1532481Y-20725261D01*
X-1549481Y-20746261D01*
X-1570481Y-20763261D01*
X-1594481Y-20776261D01*
X-1621481Y-20784261D01*
X-1648481Y-20787261D01*
X-2168481Y-20787261D01*
X-2195481Y-20784261D01*
X-2222481Y-20776261D01*
X-2246481Y-20763261D01*
X-2267481Y-20746261D01*
X-2284481Y-20725261D01*
X-2297481Y-20701261D01*
X-2305481Y-20674261D01*
X-2308481Y-20647261D01*
X-2305481Y-20620261D01*
X-2297481Y-20593261D01*
X-2284481Y-20569261D01*
X-2267481Y-20548261D01*
X-2246481Y-20531261D01*
X-2222481Y-20518261D01*
X-2195481Y-20510261D01*
X-2168481Y-20507261D01*
X-1648481Y-20507261D01*
X-1621481Y-20510261D01*
G37*
X-1621481Y-20510261D02*
X-1594481Y-20518261D01*
X-1570481Y-20531261D01*
X-1549481Y-20548261D01*
X-1532481Y-20569261D01*
X-1519481Y-20593261D01*
X-1511481Y-20620261D01*
X-1508481Y-20647261D01*
X-1511481Y-20674261D01*
X-1519481Y-20701261D01*
X-1532481Y-20725261D01*
X-1549481Y-20746261D01*
X-1570481Y-20763261D01*
X-1594481Y-20776261D01*
X-1621481Y-20784261D01*
X-1648481Y-20787261D01*
X-2168481Y-20787261D01*
X-2195481Y-20784261D01*
X-2222481Y-20776261D01*
X-2246481Y-20763261D01*
X-2267481Y-20746261D01*
X-2284481Y-20725261D01*
X-2297481Y-20701261D01*
X-2305481Y-20674261D01*
X-2308481Y-20647261D01*
X-2305481Y-20620261D01*
X-2297481Y-20593261D01*
X-2284481Y-20569261D01*
X-2267481Y-20548261D01*
X-2246481Y-20531261D01*
X-2222481Y-20518261D01*
X-2195481Y-20510261D01*
X-2168481Y-20507261D01*
X-1648481Y-20507261D01*
X-1621481Y-20510261D01*
G36*
X-1131481Y-21500261D02*
G01*
X-1104481Y-21508261D01*
X-1080481Y-21521261D01*
X-1059481Y-21538261D01*
X-1042481Y-21559261D01*
X-1029481Y-21583261D01*
X-1021481Y-21610261D01*
X-1018481Y-21637261D01*
X-1018481Y-22157261D01*
X-1021481Y-22184261D01*
X-1029481Y-22211261D01*
X-1042481Y-22235261D01*
X-1059481Y-22256261D01*
X-1080481Y-22273261D01*
X-1104481Y-22286261D01*
X-1131481Y-22294261D01*
X-1158481Y-22297261D01*
X-1185481Y-22294261D01*
X-1212481Y-22286261D01*
X-1236481Y-22273261D01*
X-1257481Y-22256261D01*
X-1274481Y-22235261D01*
X-1287481Y-22211261D01*
X-1295481Y-22184261D01*
X-1298481Y-22157261D01*
X-1298481Y-21637261D01*
X-1295481Y-21610261D01*
X-1287481Y-21583261D01*
X-1274481Y-21559261D01*
X-1257481Y-21538261D01*
X-1236481Y-21521261D01*
X-1212481Y-21508261D01*
X-1185481Y-21500261D01*
X-1158481Y-21497261D01*
X-1131481Y-21500261D01*
G37*
X-1131481Y-21500261D02*
X-1104481Y-21508261D01*
X-1080481Y-21521261D01*
X-1059481Y-21538261D01*
X-1042481Y-21559261D01*
X-1029481Y-21583261D01*
X-1021481Y-21610261D01*
X-1018481Y-21637261D01*
X-1018481Y-22157261D01*
X-1021481Y-22184261D01*
X-1029481Y-22211261D01*
X-1042481Y-22235261D01*
X-1059481Y-22256261D01*
X-1080481Y-22273261D01*
X-1104481Y-22286261D01*
X-1131481Y-22294261D01*
X-1158481Y-22297261D01*
X-1185481Y-22294261D01*
X-1212481Y-22286261D01*
X-1236481Y-22273261D01*
X-1257481Y-22256261D01*
X-1274481Y-22235261D01*
X-1287481Y-22211261D01*
X-1295481Y-22184261D01*
X-1298481Y-22157261D01*
X-1298481Y-21637261D01*
X-1295481Y-21610261D01*
X-1287481Y-21583261D01*
X-1274481Y-21559261D01*
X-1257481Y-21538261D01*
X-1236481Y-21521261D01*
X-1212481Y-21508261D01*
X-1185481Y-21500261D01*
X-1158481Y-21497261D01*
X-1131481Y-21500261D01*
G36*
X2378519Y-18510261D02*
G01*
X2405519Y-18518261D01*
X2429519Y-18531261D01*
X2450519Y-18548261D01*
X2467519Y-18569261D01*
X2480519Y-18593261D01*
X2488519Y-18620261D01*
X2491519Y-18647261D01*
X2488519Y-18674261D01*
X2480519Y-18701261D01*
X2467519Y-18725261D01*
X2450519Y-18746261D01*
X2429519Y-18763261D01*
X2405519Y-18776261D01*
X2378519Y-18784261D01*
X2351519Y-18787261D01*
X1831519Y-18787261D01*
X1804519Y-18784261D01*
X1777519Y-18776261D01*
X1753519Y-18763261D01*
X1732519Y-18746261D01*
X1715519Y-18725261D01*
X1702519Y-18701261D01*
X1694519Y-18674261D01*
X1691519Y-18647261D01*
X1694519Y-18620261D01*
X1702519Y-18593261D01*
X1715519Y-18569261D01*
X1732519Y-18548261D01*
X1753519Y-18531261D01*
X1777519Y-18518261D01*
X1804519Y-18510261D01*
X1831519Y-18507261D01*
X2351519Y-18507261D01*
X2378519Y-18510261D01*
G37*
X2378519Y-18510261D02*
X2405519Y-18518261D01*
X2429519Y-18531261D01*
X2450519Y-18548261D01*
X2467519Y-18569261D01*
X2480519Y-18593261D01*
X2488519Y-18620261D01*
X2491519Y-18647261D01*
X2488519Y-18674261D01*
X2480519Y-18701261D01*
X2467519Y-18725261D01*
X2450519Y-18746261D01*
X2429519Y-18763261D01*
X2405519Y-18776261D01*
X2378519Y-18784261D01*
X2351519Y-18787261D01*
X1831519Y-18787261D01*
X1804519Y-18784261D01*
X1777519Y-18776261D01*
X1753519Y-18763261D01*
X1732519Y-18746261D01*
X1715519Y-18725261D01*
X1702519Y-18701261D01*
X1694519Y-18674261D01*
X1691519Y-18647261D01*
X1694519Y-18620261D01*
X1702519Y-18593261D01*
X1715519Y-18569261D01*
X1732519Y-18548261D01*
X1753519Y-18531261D01*
X1777519Y-18518261D01*
X1804519Y-18510261D01*
X1831519Y-18507261D01*
X2351519Y-18507261D01*
X2378519Y-18510261D01*
G36*
X868519Y-17500261D02*
G01*
X895519Y-17508261D01*
X919519Y-17521261D01*
X940519Y-17538261D01*
X957519Y-17559261D01*
X970519Y-17583261D01*
X978519Y-17610261D01*
X981519Y-17637261D01*
X981519Y-18157261D01*
X978519Y-18184261D01*
X970519Y-18211261D01*
X957519Y-18235261D01*
X940519Y-18256261D01*
X919519Y-18273261D01*
X895519Y-18286261D01*
X868519Y-18294261D01*
X841519Y-18297261D01*
X814519Y-18294261D01*
X787519Y-18286261D01*
X763519Y-18273261D01*
X742519Y-18256261D01*
X725519Y-18235261D01*
X712519Y-18211261D01*
X704519Y-18184261D01*
X701519Y-18157261D01*
X701519Y-17637261D01*
X704519Y-17610261D01*
X712519Y-17583261D01*
X725519Y-17559261D01*
X742519Y-17538261D01*
X763519Y-17521261D01*
X787519Y-17508261D01*
X814519Y-17500261D01*
X841519Y-17497261D01*
X868519Y-17500261D01*
G37*
X868519Y-17500261D02*
X895519Y-17508261D01*
X919519Y-17521261D01*
X940519Y-17538261D01*
X957519Y-17559261D01*
X970519Y-17583261D01*
X978519Y-17610261D01*
X981519Y-17637261D01*
X981519Y-18157261D01*
X978519Y-18184261D01*
X970519Y-18211261D01*
X957519Y-18235261D01*
X940519Y-18256261D01*
X919519Y-18273261D01*
X895519Y-18286261D01*
X868519Y-18294261D01*
X841519Y-18297261D01*
X814519Y-18294261D01*
X787519Y-18286261D01*
X763519Y-18273261D01*
X742519Y-18256261D01*
X725519Y-18235261D01*
X712519Y-18211261D01*
X704519Y-18184261D01*
X701519Y-18157261D01*
X701519Y-17637261D01*
X704519Y-17610261D01*
X712519Y-17583261D01*
X725519Y-17559261D01*
X742519Y-17538261D01*
X763519Y-17521261D01*
X787519Y-17508261D01*
X814519Y-17500261D01*
X841519Y-17497261D01*
X868519Y-17500261D01*
G36*
X1183519Y-20977261D02*
G01*
X-976481Y-20977261D01*
X-976481Y-18817261D01*
X1183519Y-18817261D01*
X1183519Y-20977261D01*
G37*
X1183519Y-20977261D02*
X-976481Y-20977261D01*
X-976481Y-18817261D01*
X1183519Y-18817261D01*
X1183519Y-20977261D01*
%TO.C,U1*%
G36*
X12187019Y-19520261D02*
G01*
X11282019Y-19520261D01*
X11282019Y-19240261D01*
X12187019Y-19240261D01*
X12187019Y-19520261D01*
G37*
X12187019Y-19520261D02*
X11282019Y-19520261D01*
X11282019Y-19240261D01*
X12187019Y-19240261D01*
X12187019Y-19520261D01*
G36*
X10497019Y-22710261D02*
G01*
X10217019Y-22710261D01*
X10217019Y-21805261D01*
X10497019Y-21805261D01*
X10497019Y-22710261D01*
G37*
X10497019Y-22710261D02*
X10217019Y-22710261D01*
X10217019Y-21805261D01*
X10497019Y-21805261D01*
X10497019Y-22710261D01*
G36*
X7432019Y-19520261D02*
G01*
X6527019Y-19520261D01*
X6527019Y-19240261D01*
X7432019Y-19240261D01*
X7432019Y-19520261D01*
G37*
X7432019Y-19520261D02*
X6527019Y-19520261D01*
X6527019Y-19240261D01*
X7432019Y-19240261D01*
X7432019Y-19520261D01*
G36*
X12187019Y-21020261D02*
G01*
X11282019Y-21020261D01*
X11282019Y-20740261D01*
X12187019Y-20740261D01*
X12187019Y-21020261D01*
G37*
X12187019Y-21020261D02*
X11282019Y-21020261D01*
X11282019Y-20740261D01*
X12187019Y-20740261D01*
X12187019Y-21020261D01*
G36*
X12187019Y-18520261D02*
G01*
X11282019Y-18520261D01*
X11282019Y-18240261D01*
X12187019Y-18240261D01*
X12187019Y-18520261D01*
G37*
X12187019Y-18520261D02*
X11282019Y-18520261D01*
X11282019Y-18240261D01*
X12187019Y-18240261D01*
X12187019Y-18520261D01*
G36*
X8997019Y-17955261D02*
G01*
X8717019Y-17955261D01*
X8717019Y-17050261D01*
X8997019Y-17050261D01*
X8997019Y-17955261D01*
G37*
X8997019Y-17955261D02*
X8717019Y-17955261D01*
X8717019Y-17050261D01*
X8997019Y-17050261D01*
X8997019Y-17955261D01*
G36*
X7997019Y-17955261D02*
G01*
X7717019Y-17955261D01*
X7717019Y-17050261D01*
X7997019Y-17050261D01*
X7997019Y-17955261D01*
G37*
X7997019Y-17955261D02*
X7717019Y-17955261D01*
X7717019Y-17050261D01*
X7997019Y-17050261D01*
X7997019Y-17955261D01*
G36*
X7432019Y-21020261D02*
G01*
X6527019Y-21020261D01*
X6527019Y-20740261D01*
X7432019Y-20740261D01*
X7432019Y-21020261D01*
G37*
X7432019Y-21020261D02*
X6527019Y-21020261D01*
X6527019Y-20740261D01*
X7432019Y-20740261D01*
X7432019Y-21020261D01*
G36*
X8497019Y-22710261D02*
G01*
X8217019Y-22710261D01*
X8217019Y-21805261D01*
X8497019Y-21805261D01*
X8497019Y-22710261D01*
G37*
X8497019Y-22710261D02*
X8217019Y-22710261D01*
X8217019Y-21805261D01*
X8497019Y-21805261D01*
X8497019Y-22710261D01*
G36*
X10497019Y-17955261D02*
G01*
X10217019Y-17955261D01*
X10217019Y-17050261D01*
X10497019Y-17050261D01*
X10497019Y-17955261D01*
G37*
X10497019Y-17955261D02*
X10217019Y-17955261D01*
X10217019Y-17050261D01*
X10497019Y-17050261D01*
X10497019Y-17955261D01*
G36*
X7432019Y-18520261D02*
G01*
X6527019Y-18520261D01*
X6527019Y-18240261D01*
X7432019Y-18240261D01*
X7432019Y-18520261D01*
G37*
X7432019Y-18520261D02*
X6527019Y-18520261D01*
X6527019Y-18240261D01*
X7432019Y-18240261D01*
X7432019Y-18520261D01*
G36*
X7432019Y-21520261D02*
G01*
X6527019Y-21520261D01*
X6527019Y-21240261D01*
X7432019Y-21240261D01*
X7432019Y-21520261D01*
G37*
X7432019Y-21520261D02*
X6527019Y-21520261D01*
X6527019Y-21240261D01*
X7432019Y-21240261D01*
X7432019Y-21520261D01*
G36*
X7432019Y-19020261D02*
G01*
X6527019Y-19020261D01*
X6527019Y-18740261D01*
X7432019Y-18740261D01*
X7432019Y-19020261D01*
G37*
X7432019Y-19020261D02*
X6527019Y-19020261D01*
X6527019Y-18740261D01*
X7432019Y-18740261D01*
X7432019Y-19020261D01*
G36*
X12187019Y-20520261D02*
G01*
X11282019Y-20520261D01*
X11282019Y-20240261D01*
X12187019Y-20240261D01*
X12187019Y-20520261D01*
G37*
X12187019Y-20520261D02*
X11282019Y-20520261D01*
X11282019Y-20240261D01*
X12187019Y-20240261D01*
X12187019Y-20520261D01*
G36*
X7432019Y-20020261D02*
G01*
X6527019Y-20020261D01*
X6527019Y-19740261D01*
X7432019Y-19740261D01*
X7432019Y-20020261D01*
G37*
X7432019Y-20020261D02*
X6527019Y-20020261D01*
X6527019Y-19740261D01*
X7432019Y-19740261D01*
X7432019Y-20020261D01*
G36*
X9497019Y-17955261D02*
G01*
X9217019Y-17955261D01*
X9217019Y-17050261D01*
X9497019Y-17050261D01*
X9497019Y-17955261D01*
G37*
X9497019Y-17955261D02*
X9217019Y-17955261D01*
X9217019Y-17050261D01*
X9497019Y-17050261D01*
X9497019Y-17955261D01*
G36*
X8497019Y-17955261D02*
G01*
X8217019Y-17955261D01*
X8217019Y-17050261D01*
X8497019Y-17050261D01*
X8497019Y-17955261D01*
G37*
X8497019Y-17955261D02*
X8217019Y-17955261D01*
X8217019Y-17050261D01*
X8497019Y-17050261D01*
X8497019Y-17955261D01*
G36*
X9997019Y-22710261D02*
G01*
X9717019Y-22710261D01*
X9717019Y-21805261D01*
X9997019Y-21805261D01*
X9997019Y-22710261D01*
G37*
X9997019Y-22710261D02*
X9717019Y-22710261D01*
X9717019Y-21805261D01*
X9997019Y-21805261D01*
X9997019Y-22710261D01*
G36*
X9497019Y-22710261D02*
G01*
X9217019Y-22710261D01*
X9217019Y-21805261D01*
X9497019Y-21805261D01*
X9497019Y-22710261D01*
G37*
X9497019Y-22710261D02*
X9217019Y-22710261D01*
X9217019Y-21805261D01*
X9497019Y-21805261D01*
X9497019Y-22710261D01*
G36*
X10997019Y-22710261D02*
G01*
X10717019Y-22710261D01*
X10717019Y-21805261D01*
X10997019Y-21805261D01*
X10997019Y-22710261D01*
G37*
X10997019Y-22710261D02*
X10717019Y-22710261D01*
X10717019Y-21805261D01*
X10997019Y-21805261D01*
X10997019Y-22710261D01*
G36*
X12187019Y-20020261D02*
G01*
X11282019Y-20020261D01*
X11282019Y-19740261D01*
X12187019Y-19740261D01*
X12187019Y-20020261D01*
G37*
X12187019Y-20020261D02*
X11282019Y-20020261D01*
X11282019Y-19740261D01*
X12187019Y-19740261D01*
X12187019Y-20020261D01*
G36*
X10997019Y-17955261D02*
G01*
X10717019Y-17955261D01*
X10717019Y-17050261D01*
X10997019Y-17050261D01*
X10997019Y-17955261D01*
G37*
X10997019Y-17955261D02*
X10717019Y-17955261D01*
X10717019Y-17050261D01*
X10997019Y-17050261D01*
X10997019Y-17955261D01*
G36*
X12187019Y-21520261D02*
G01*
X11282019Y-21520261D01*
X11282019Y-21240261D01*
X12187019Y-21240261D01*
X12187019Y-21520261D01*
G37*
X12187019Y-21520261D02*
X11282019Y-21520261D01*
X11282019Y-21240261D01*
X12187019Y-21240261D01*
X12187019Y-21520261D01*
G36*
X9997019Y-17955261D02*
G01*
X9717019Y-17955261D01*
X9717019Y-17050261D01*
X9997019Y-17050261D01*
X9997019Y-17955261D01*
G37*
X9997019Y-17955261D02*
X9717019Y-17955261D01*
X9717019Y-17050261D01*
X9997019Y-17050261D01*
X9997019Y-17955261D01*
G36*
X7997019Y-22710261D02*
G01*
X7717019Y-22710261D01*
X7717019Y-21805261D01*
X7997019Y-21805261D01*
X7997019Y-22710261D01*
G37*
X7997019Y-22710261D02*
X7717019Y-22710261D01*
X7717019Y-21805261D01*
X7997019Y-21805261D01*
X7997019Y-22710261D01*
G36*
X8997019Y-22710261D02*
G01*
X8717019Y-22710261D01*
X8717019Y-21805261D01*
X8997019Y-21805261D01*
X8997019Y-22710261D01*
G37*
X8997019Y-22710261D02*
X8717019Y-22710261D01*
X8717019Y-21805261D01*
X8997019Y-21805261D01*
X8997019Y-22710261D01*
G36*
X12187019Y-19020261D02*
G01*
X11282019Y-19020261D01*
X11282019Y-18740261D01*
X12187019Y-18740261D01*
X12187019Y-19020261D01*
G37*
X12187019Y-19020261D02*
X11282019Y-19020261D01*
X11282019Y-18740261D01*
X12187019Y-18740261D01*
X12187019Y-19020261D01*
G36*
X10707019Y-21230261D02*
G01*
X8007019Y-21230261D01*
X8007019Y-18530261D01*
X10707019Y-18530261D01*
X10707019Y-21230261D01*
G37*
X10707019Y-21230261D02*
X8007019Y-21230261D01*
X8007019Y-18530261D01*
X10707019Y-18530261D01*
X10707019Y-21230261D01*
G36*
X7432019Y-20520261D02*
G01*
X6527019Y-20520261D01*
X6527019Y-20240261D01*
X7432019Y-20240261D01*
X7432019Y-20520261D01*
G37*
X7432019Y-20520261D02*
X6527019Y-20520261D01*
X6527019Y-20240261D01*
X7432019Y-20240261D01*
X7432019Y-20520261D01*
%TO.C,USB1*%
G36*
X60000Y-28864000D02*
G01*
X-240000Y-28864000D01*
X-240000Y-27714000D01*
X60000Y-27714000D01*
X60000Y-28864000D01*
G37*
X60000Y-28864000D02*
X-240000Y-28864000D01*
X-240000Y-27714000D01*
X60000Y-27714000D01*
X60000Y-28864000D01*
G36*
X4583000Y-32311000D02*
G01*
X4676000Y-32339000D01*
X4763000Y-32386000D01*
X4839000Y-32448000D01*
X4901000Y-32524000D01*
X4947000Y-32610000D01*
X4975000Y-32704000D01*
X4985000Y-32801000D01*
X4985000Y-33701000D01*
X4975000Y-33799000D01*
X4947000Y-33893000D01*
X4901000Y-33979000D01*
X4839000Y-34055000D01*
X4763000Y-34117000D01*
X4676000Y-34163000D01*
X4583000Y-34192000D01*
X4485000Y-34201000D01*
X4387000Y-34192000D01*
X4294000Y-34163000D01*
X4207000Y-34117000D01*
X4131000Y-34055000D01*
X4069000Y-33979000D01*
X4023000Y-33893000D01*
X3995000Y-33799000D01*
X3985000Y-33701000D01*
X3985000Y-32801000D01*
X3995000Y-32704000D01*
X4023000Y-32610000D01*
X4069000Y-32524000D01*
X4131000Y-32448000D01*
X4207000Y-32386000D01*
X4294000Y-32339000D01*
X4387000Y-32311000D01*
X4485000Y-32301000D01*
X4583000Y-32311000D01*
G37*
X4583000Y-32311000D02*
X4676000Y-32339000D01*
X4763000Y-32386000D01*
X4839000Y-32448000D01*
X4901000Y-32524000D01*
X4947000Y-32610000D01*
X4975000Y-32704000D01*
X4985000Y-32801000D01*
X4985000Y-33701000D01*
X4975000Y-33799000D01*
X4947000Y-33893000D01*
X4901000Y-33979000D01*
X4839000Y-34055000D01*
X4763000Y-34117000D01*
X4676000Y-34163000D01*
X4583000Y-34192000D01*
X4485000Y-34201000D01*
X4387000Y-34192000D01*
X4294000Y-34163000D01*
X4207000Y-34117000D01*
X4131000Y-34055000D01*
X4069000Y-33979000D01*
X4023000Y-33893000D01*
X3995000Y-33799000D01*
X3985000Y-33701000D01*
X3985000Y-32801000D01*
X3995000Y-32704000D01*
X4023000Y-32610000D01*
X4069000Y-32524000D01*
X4131000Y-32448000D01*
X4207000Y-32386000D01*
X4294000Y-32339000D01*
X4387000Y-32311000D01*
X4485000Y-32301000D01*
X4583000Y-32311000D01*
G36*
X2060000Y-28864000D02*
G01*
X1760000Y-28864000D01*
X1760000Y-27714000D01*
X2060000Y-27714000D01*
X2060000Y-28864000D01*
G37*
X2060000Y-28864000D02*
X1760000Y-28864000D01*
X1760000Y-27714000D01*
X2060000Y-27714000D01*
X2060000Y-28864000D01*
G36*
X1060000Y-28864000D02*
G01*
X760000Y-28864000D01*
X760000Y-27714000D01*
X1060000Y-27714000D01*
X1060000Y-28864000D01*
G37*
X1060000Y-28864000D02*
X760000Y-28864000D01*
X760000Y-27714000D01*
X1060000Y-27714000D01*
X1060000Y-28864000D01*
G36*
X-940000Y-28864000D02*
G01*
X-1240000Y-28864000D01*
X-1240000Y-27714000D01*
X-940000Y-27714000D01*
X-940000Y-28864000D01*
G37*
X-940000Y-28864000D02*
X-1240000Y-28864000D01*
X-1240000Y-27714000D01*
X-940000Y-27714000D01*
X-940000Y-28864000D01*
G36*
X-4067000Y-32311000D02*
G01*
X-3974000Y-32339000D01*
X-3887000Y-32386000D01*
X-3811000Y-32448000D01*
X-3749000Y-32524000D01*
X-3703000Y-32610000D01*
X-3675000Y-32704000D01*
X-3665000Y-32801000D01*
X-3665000Y-33701000D01*
X-3675000Y-33799000D01*
X-3703000Y-33893000D01*
X-3749000Y-33979000D01*
X-3811000Y-34055000D01*
X-3887000Y-34117000D01*
X-3974000Y-34163000D01*
X-4067000Y-34192000D01*
X-4165000Y-34201000D01*
X-4263000Y-34192000D01*
X-4356000Y-34163000D01*
X-4443000Y-34117000D01*
X-4519000Y-34055000D01*
X-4581000Y-33979000D01*
X-4627000Y-33893000D01*
X-4655000Y-33799000D01*
X-4665000Y-33701000D01*
X-4665000Y-32801000D01*
X-4655000Y-32704000D01*
X-4627000Y-32610000D01*
X-4581000Y-32524000D01*
X-4519000Y-32448000D01*
X-4443000Y-32386000D01*
X-4356000Y-32339000D01*
X-4263000Y-32311000D01*
X-4165000Y-32301000D01*
X-4067000Y-32311000D01*
G37*
X-4067000Y-32311000D02*
X-3974000Y-32339000D01*
X-3887000Y-32386000D01*
X-3811000Y-32448000D01*
X-3749000Y-32524000D01*
X-3703000Y-32610000D01*
X-3675000Y-32704000D01*
X-3665000Y-32801000D01*
X-3665000Y-33701000D01*
X-3675000Y-33799000D01*
X-3703000Y-33893000D01*
X-3749000Y-33979000D01*
X-3811000Y-34055000D01*
X-3887000Y-34117000D01*
X-3974000Y-34163000D01*
X-4067000Y-34192000D01*
X-4165000Y-34201000D01*
X-4263000Y-34192000D01*
X-4356000Y-34163000D01*
X-4443000Y-34117000D01*
X-4519000Y-34055000D01*
X-4581000Y-33979000D01*
X-4627000Y-33893000D01*
X-4655000Y-33799000D01*
X-4665000Y-33701000D01*
X-4665000Y-32801000D01*
X-4655000Y-32704000D01*
X-4627000Y-32610000D01*
X-4581000Y-32524000D01*
X-4519000Y-32448000D01*
X-4443000Y-32386000D01*
X-4356000Y-32339000D01*
X-4263000Y-32311000D01*
X-4165000Y-32301000D01*
X-4067000Y-32311000D01*
G36*
X-1940000Y-28864000D02*
G01*
X-2540000Y-28864000D01*
X-2540000Y-27714000D01*
X-1940000Y-27714000D01*
X-1940000Y-28864000D01*
G37*
X-1940000Y-28864000D02*
X-2540000Y-28864000D01*
X-2540000Y-27714000D01*
X-1940000Y-27714000D01*
X-1940000Y-28864000D01*
G36*
X1560000Y-28864000D02*
G01*
X1260000Y-28864000D01*
X1260000Y-27714000D01*
X1560000Y-27714000D01*
X1560000Y-28864000D01*
G37*
X1560000Y-28864000D02*
X1260000Y-28864000D01*
X1260000Y-27714000D01*
X1560000Y-27714000D01*
X1560000Y-28864000D01*
G36*
X3660000Y-28864000D02*
G01*
X3060000Y-28864000D01*
X3060000Y-27714000D01*
X3660000Y-27714000D01*
X3660000Y-28864000D01*
G37*
X3660000Y-28864000D02*
X3060000Y-28864000D01*
X3060000Y-27714000D01*
X3660000Y-27714000D01*
X3660000Y-28864000D01*
G36*
X560000Y-28864000D02*
G01*
X260000Y-28864000D01*
X260000Y-27714000D01*
X560000Y-27714000D01*
X560000Y-28864000D01*
G37*
X560000Y-28864000D02*
X260000Y-28864000D01*
X260000Y-27714000D01*
X560000Y-27714000D01*
X560000Y-28864000D01*
G36*
X2860000Y-28864000D02*
G01*
X2260000Y-28864000D01*
X2260000Y-27714000D01*
X2860000Y-27714000D01*
X2860000Y-28864000D01*
G37*
X2860000Y-28864000D02*
X2260000Y-28864000D01*
X2260000Y-27714000D01*
X2860000Y-27714000D01*
X2860000Y-28864000D01*
G36*
X-4067000Y-28011000D02*
G01*
X-3974000Y-28039000D01*
X-3887000Y-28086000D01*
X-3811000Y-28148000D01*
X-3749000Y-28224000D01*
X-3703000Y-28310000D01*
X-3675000Y-28404000D01*
X-3665000Y-28501000D01*
X-3665000Y-29601000D01*
X-3675000Y-29699000D01*
X-3703000Y-29793000D01*
X-3749000Y-29879000D01*
X-3811000Y-29955000D01*
X-3887000Y-30017000D01*
X-3974000Y-30063000D01*
X-4067000Y-30092000D01*
X-4165000Y-30101000D01*
X-4263000Y-30092000D01*
X-4356000Y-30063000D01*
X-4443000Y-30017000D01*
X-4519000Y-29955000D01*
X-4581000Y-29879000D01*
X-4627000Y-29793000D01*
X-4655000Y-29699000D01*
X-4665000Y-29601000D01*
X-4665000Y-28501000D01*
X-4655000Y-28404000D01*
X-4627000Y-28310000D01*
X-4581000Y-28224000D01*
X-4519000Y-28148000D01*
X-4443000Y-28086000D01*
X-4356000Y-28039000D01*
X-4263000Y-28011000D01*
X-4165000Y-28001000D01*
X-4067000Y-28011000D01*
G37*
X-4067000Y-28011000D02*
X-3974000Y-28039000D01*
X-3887000Y-28086000D01*
X-3811000Y-28148000D01*
X-3749000Y-28224000D01*
X-3703000Y-28310000D01*
X-3675000Y-28404000D01*
X-3665000Y-28501000D01*
X-3665000Y-29601000D01*
X-3675000Y-29699000D01*
X-3703000Y-29793000D01*
X-3749000Y-29879000D01*
X-3811000Y-29955000D01*
X-3887000Y-30017000D01*
X-3974000Y-30063000D01*
X-4067000Y-30092000D01*
X-4165000Y-30101000D01*
X-4263000Y-30092000D01*
X-4356000Y-30063000D01*
X-4443000Y-30017000D01*
X-4519000Y-29955000D01*
X-4581000Y-29879000D01*
X-4627000Y-29793000D01*
X-4655000Y-29699000D01*
X-4665000Y-29601000D01*
X-4665000Y-28501000D01*
X-4655000Y-28404000D01*
X-4627000Y-28310000D01*
X-4581000Y-28224000D01*
X-4519000Y-28148000D01*
X-4443000Y-28086000D01*
X-4356000Y-28039000D01*
X-4263000Y-28011000D01*
X-4165000Y-28001000D01*
X-4067000Y-28011000D01*
G36*
X-1440000Y-28864000D02*
G01*
X-1740000Y-28864000D01*
X-1740000Y-27714000D01*
X-1440000Y-27714000D01*
X-1440000Y-28864000D01*
G37*
X-1440000Y-28864000D02*
X-1740000Y-28864000D01*
X-1740000Y-27714000D01*
X-1440000Y-27714000D01*
X-1440000Y-28864000D01*
G36*
X-440000Y-28864000D02*
G01*
X-740000Y-28864000D01*
X-740000Y-27714000D01*
X-440000Y-27714000D01*
X-440000Y-28864000D01*
G37*
X-440000Y-28864000D02*
X-740000Y-28864000D01*
X-740000Y-27714000D01*
X-440000Y-27714000D01*
X-440000Y-28864000D01*
G36*
X4583000Y-28011000D02*
G01*
X4676000Y-28039000D01*
X4763000Y-28086000D01*
X4839000Y-28148000D01*
X4901000Y-28224000D01*
X4947000Y-28310000D01*
X4975000Y-28404000D01*
X4985000Y-28501000D01*
X4985000Y-29601000D01*
X4975000Y-29699000D01*
X4947000Y-29793000D01*
X4901000Y-29879000D01*
X4839000Y-29955000D01*
X4763000Y-30017000D01*
X4676000Y-30063000D01*
X4583000Y-30092000D01*
X4485000Y-30101000D01*
X4387000Y-30092000D01*
X4294000Y-30063000D01*
X4207000Y-30017000D01*
X4131000Y-29955000D01*
X4069000Y-29879000D01*
X4023000Y-29793000D01*
X3995000Y-29699000D01*
X3985000Y-29601000D01*
X3985000Y-28501000D01*
X3995000Y-28404000D01*
X4023000Y-28310000D01*
X4069000Y-28224000D01*
X4131000Y-28148000D01*
X4207000Y-28086000D01*
X4294000Y-28039000D01*
X4387000Y-28011000D01*
X4485000Y-28001000D01*
X4583000Y-28011000D01*
G37*
X4583000Y-28011000D02*
X4676000Y-28039000D01*
X4763000Y-28086000D01*
X4839000Y-28148000D01*
X4901000Y-28224000D01*
X4947000Y-28310000D01*
X4975000Y-28404000D01*
X4985000Y-28501000D01*
X4985000Y-29601000D01*
X4975000Y-29699000D01*
X4947000Y-29793000D01*
X4901000Y-29879000D01*
X4839000Y-29955000D01*
X4763000Y-30017000D01*
X4676000Y-30063000D01*
X4583000Y-30092000D01*
X4485000Y-30101000D01*
X4387000Y-30092000D01*
X4294000Y-30063000D01*
X4207000Y-30017000D01*
X4131000Y-29955000D01*
X4069000Y-29879000D01*
X4023000Y-29793000D01*
X3995000Y-29699000D01*
X3985000Y-29601000D01*
X3985000Y-28501000D01*
X3995000Y-28404000D01*
X4023000Y-28310000D01*
X4069000Y-28224000D01*
X4131000Y-28148000D01*
X4207000Y-28086000D01*
X4294000Y-28039000D01*
X4387000Y-28011000D01*
X4485000Y-28001000D01*
X4583000Y-28011000D01*
G36*
X-2740000Y-28864000D02*
G01*
X-3340000Y-28864000D01*
X-3340000Y-27714000D01*
X-2740000Y-27714000D01*
X-2740000Y-28864000D01*
G37*
X-2740000Y-28864000D02*
X-3340000Y-28864000D01*
X-3340000Y-27714000D01*
X-2740000Y-27714000D01*
X-2740000Y-28864000D01*
%TD*%
D11*
%TO.C,VT2*%
X9376019Y-13134261D03*
X9376019Y-11234261D03*
X7106019Y-12184261D03*
%TD*%
D12*
%TO.C,U7*%
X-6528481Y-30074261D03*
X-6528481Y-29124261D03*
X-6528481Y-28174261D03*
X-9128481Y-28174261D03*
X-9128481Y-30074261D03*
%TD*%
D13*
%TO.C,U6*%
X23251519Y-26102215D03*
X23951519Y-26102215D03*
X24651519Y-26102215D03*
X25351519Y-26102215D03*
X26051519Y-26102215D03*
X26751519Y-26102215D03*
X27451519Y-26102215D03*
X28151519Y-26102215D03*
X28851519Y-26102215D03*
X29551519Y-26102215D03*
X30251519Y-26102215D03*
X30951519Y-26102215D03*
%TD*%
D14*
%TO.C,R6*%
X10661019Y-9344261D03*
X10661019Y-8324261D03*
%TD*%
D12*
%TO.C,U10*%
X35214519Y-28387215D03*
X35214519Y-29337215D03*
X35214519Y-30287215D03*
X37814519Y-30287215D03*
X37814519Y-28387215D03*
%TD*%
D15*
%TO.C,U11*%
X2476519Y-4767215D03*
X2476519Y-1567215D03*
X-2323481Y-1567215D03*
X-2323481Y-4767215D03*
%TD*%
D16*
%TO.C,C6*%
X1836519Y-16177215D03*
X876519Y-16177215D03*
%TD*%
D17*
%TO.C,U5*%
X-7998481Y-19864261D03*
D18*
X-10748481Y-16364261D03*
X-10248481Y-16364261D03*
X-9748481Y-16364261D03*
X-9248481Y-16364261D03*
X-8748481Y-16364261D03*
X-8248481Y-16364261D03*
X-7748481Y-16364261D03*
X-7248481Y-16364261D03*
X-6748481Y-16364261D03*
X-6248481Y-16364261D03*
X-5748481Y-16364261D03*
X-5248481Y-16364261D03*
D19*
X-4498481Y-17114261D03*
X-4498481Y-17614261D03*
X-4498481Y-18114261D03*
X-4498481Y-18614261D03*
X-4498481Y-19114261D03*
X-4498481Y-19614261D03*
X-4498481Y-20114261D03*
X-4498481Y-20614261D03*
X-4498481Y-21114261D03*
X-4498481Y-21614261D03*
X-4498481Y-22114261D03*
X-4498481Y-22614261D03*
D18*
X-5248481Y-23364261D03*
X-5748481Y-23364261D03*
X-6248481Y-23364261D03*
X-6748481Y-23364261D03*
X-7248481Y-23364261D03*
X-7748481Y-23364261D03*
X-8248481Y-23364261D03*
X-8748481Y-23364261D03*
X-9248481Y-23364261D03*
X-9748481Y-23364261D03*
X-10248481Y-23364261D03*
X-10748481Y-23364261D03*
D19*
X-11498481Y-22614261D03*
X-11498481Y-22114261D03*
X-11498481Y-21614261D03*
X-11498481Y-21114261D03*
X-11498481Y-20614261D03*
X-11498481Y-20114261D03*
X-11498481Y-19614261D03*
X-11498481Y-19114261D03*
X-11498481Y-18614261D03*
X-11498481Y-18114261D03*
X-11498481Y-17614261D03*
X-11498481Y-17114261D03*
%TD*%
D20*
%TO.C,U8*%
X-1158481Y-21897261D03*
X-658481Y-21897261D03*
X-158481Y-21897261D03*
X341519Y-21897261D03*
X841519Y-21897261D03*
X1341519Y-21897261D03*
D21*
X2091519Y-21147261D03*
X2091519Y-20647261D03*
X2091519Y-20147261D03*
X2091519Y-19647261D03*
X2091519Y-19147261D03*
X2091519Y-18647261D03*
D20*
X1341519Y-17897261D03*
X841519Y-17897261D03*
X341519Y-17897261D03*
X-158481Y-17897261D03*
X-658481Y-17897261D03*
X-1150481Y-17897261D03*
D21*
X-1908481Y-18647261D03*
X-1908481Y-19147261D03*
X-1908481Y-19647261D03*
X-1908481Y-20147261D03*
X-1908481Y-20647261D03*
X-1908481Y-21147261D03*
D22*
X103519Y-19897261D03*
%TD*%
D23*
%TO.C,C9*%
X-11538481Y-28174261D03*
X-10578481Y-28174261D03*
%TD*%
D24*
%TO.C,C4*%
X-9653481Y-14097215D03*
X-9653481Y-15057215D03*
%TD*%
%TO.C,C1*%
X7371519Y-28784261D03*
X7371519Y-29744261D03*
%TD*%
%TO.C,C2*%
X-8623481Y-14097215D03*
X-8623481Y-15057215D03*
%TD*%
D25*
%TO.C,C5*%
X39936519Y-29347215D03*
X39936519Y-28387215D03*
%TD*%
D16*
%TO.C,C11*%
X-348481Y-16197215D03*
X-1308481Y-16197215D03*
%TD*%
D14*
%TO.C,R10*%
X39956519Y-23677215D03*
X39956519Y-22657215D03*
%TD*%
D26*
%TO.C,U4*%
X-11250000Y-12620000D03*
X-11250000Y-7620000D03*
%TD*%
D27*
%TO.C,R8*%
X10017519Y-27236261D03*
X8997519Y-27236261D03*
%TD*%
D28*
%TO.C,U2*%
X8911519Y-28747215D03*
X8911519Y-29247215D03*
X8911519Y-29747215D03*
X11661519Y-29747215D03*
X11661519Y-29247215D03*
X11661519Y-28747215D03*
%TD*%
D24*
%TO.C,C12*%
X-19803481Y-29247215D03*
X-19803481Y-30207215D03*
%TD*%
D11*
%TO.C,Q2*%
X-21278481Y-15047215D03*
X-21278481Y-13147215D03*
X-23548481Y-14097215D03*
%TD*%
%TO.C,VT1*%
X9376019Y-9764261D03*
X9376019Y-7864261D03*
X7106019Y-8814261D03*
%TD*%
D25*
%TO.C,C7*%
X3376519Y-18995215D03*
X3376519Y-18035215D03*
%TD*%
D27*
%TO.C,R7*%
X11645019Y-23944261D03*
X10625019Y-23944261D03*
%TD*%
D13*
%TO.C,U14*%
X-36708481Y-26072215D03*
X-36008481Y-26072215D03*
X-35308481Y-26072215D03*
X-34608481Y-26072215D03*
X-33908481Y-26072215D03*
X-33208481Y-26072215D03*
X-32508481Y-26072215D03*
X-31808481Y-26072215D03*
X-31108481Y-26072215D03*
X-30408481Y-26072215D03*
X-29708481Y-26072215D03*
X-29008481Y-26072215D03*
%TD*%
D11*
%TO.C,Q1*%
X37649519Y-23683215D03*
X37649519Y-21783215D03*
X35379519Y-22733215D03*
%TD*%
D24*
%TO.C,C13*%
X-22083481Y-29247215D03*
X-22083481Y-30207215D03*
%TD*%
D29*
%TO.C,U9*%
X-1598481Y-7674261D03*
X-1098481Y-7674261D03*
X-598481Y-7674261D03*
X-98481Y-7674261D03*
X401519Y-7674261D03*
X901519Y-7674261D03*
X1401519Y-7674261D03*
X1901519Y-7674261D03*
D30*
X3601519Y-10274261D03*
X-3298481Y-10274261D03*
%TD*%
D14*
%TO.C,R12*%
X-19433481Y-14617215D03*
X-19433481Y-13597215D03*
%TD*%
D25*
%TO.C,C8*%
X3386519Y-21789215D03*
X3386519Y-20829215D03*
%TD*%
D23*
%TO.C,C10*%
X-11558481Y-30074261D03*
X-10598481Y-30074261D03*
%TD*%
D31*
%TO.C,U13*%
X-24403481Y-26352215D03*
X-22103481Y-26352215D03*
X-19803481Y-26352215D03*
D32*
X-22103481Y-20682215D03*
%TD*%
D33*
%TO.C,R9*%
X5370000Y-19360000D03*
X5370000Y-20380000D03*
%TD*%
D34*
%TO.C,U1*%
X7857019Y-22257261D03*
X8357019Y-22257261D03*
X8857019Y-22257261D03*
X9357019Y-22257261D03*
X9857019Y-22257261D03*
X10357019Y-22257261D03*
X10857019Y-22257261D03*
D35*
X11734019Y-21380261D03*
X11734019Y-20880261D03*
X11734019Y-20380261D03*
X11734019Y-19880261D03*
X11734019Y-19380261D03*
X11734019Y-18880261D03*
X11734019Y-18380261D03*
D34*
X10857019Y-17503261D03*
X10357019Y-17503261D03*
X9857019Y-17503261D03*
X9357019Y-17503261D03*
X8857019Y-17503261D03*
X8357019Y-17503261D03*
X7857019Y-17503261D03*
D35*
X6980019Y-18380261D03*
X6980019Y-18880261D03*
X6980019Y-19380261D03*
X6980019Y-19880261D03*
X6980019Y-20380261D03*
X6980019Y-20880261D03*
X6980019Y-21380261D03*
D36*
X9357019Y-19880261D03*
%TD*%
D29*
%TO.C,U3*%
X28156519Y-11678715D03*
X28656519Y-11678715D03*
X29156519Y-11678715D03*
X29656519Y-11678715D03*
X30156519Y-11678715D03*
X30656519Y-11678715D03*
X31156519Y-11678715D03*
X31656519Y-11678715D03*
D30*
X33356519Y-14278715D03*
X26456519Y-14278715D03*
%TD*%
D27*
%TO.C,R11*%
X-10548481Y-26204261D03*
X-11568481Y-26204261D03*
%TD*%
D29*
%TO.C,U12*%
X-31883481Y-11477215D03*
X-31383481Y-11477215D03*
X-30883481Y-11477215D03*
X-30383481Y-11477215D03*
X-29883481Y-11477215D03*
X-29383481Y-11477215D03*
X-28883481Y-11477215D03*
X-28383481Y-11477215D03*
D30*
X-26683481Y-14077215D03*
X-33583481Y-14077215D03*
%TD*%
D16*
%TO.C,C3*%
X-10578481Y-25214261D03*
X-11538481Y-25214261D03*
%TD*%
D14*
%TO.C,R5*%
X10661019Y-12714261D03*
X10661019Y-11694261D03*
%TD*%
D37*
%TO.C,USB1*%
X-3040000Y-28289000D03*
X-2240000Y-28289000D03*
D38*
X-1090000Y-28289000D03*
X-90000Y-28289000D03*
X410000Y-28289000D03*
X1410000Y-28289000D03*
D37*
X3360000Y-28289000D03*
X2560000Y-28289000D03*
D38*
X1910000Y-28289000D03*
X910000Y-28289000D03*
X-590000Y-28289000D03*
X-1590000Y-28289000D03*
%TD*%
M02*
